<?xml version="1.0" encoding="iso-8859-1"?>
<!-- Generator: Adobe Illustrator 19.0.0, SVG Export Plug-In . SVG Version: 6.00 Build 0)  -->
<svg version="1.1" id="Capa_1" xmlns="http://www.w3.org/2000/svg" xmlns:xlink="http://www.w3.org/1999/xlink" x="0px" y="0px"
	 viewBox="0 0 512 512" style="enable-background:new 0 0 512 512;" xml:space="preserve">
<g>
	<g>
		<path fill="#ffffff" d="M451.001,0H61C36.187,0,16,20.187,16,45v332c0,24.813,20.187,45,45,45h75v75c0,6.067,3.655,11.537,9.26,13.858
			c5.605,2.322,12.057,1.038,16.347-3.251L247.214,422c10.45,0,193.554,0,203.787,0c24.813,0,45-20.187,45-45V45
			C496.001,20.187,475.814,0,451.001,0z M346,255v137h-30V255c0-8.284-6.716-15-15-15h-15v-30h15c8.284,0,15-6.716,15-15v-60
			c0-24.813,20.187-45,45-45h45v30h-45c-8.284,0-15,6.716-15,15v60c0,8.284,6.716,15,15,15h35.729l-15,30H361
			C352.716,240,346,246.716,346,255z M466,377c0,8.271-6.729,15-15,15h-75V270h15c5.682,0,10.875-3.21,13.417-8.292l30-60
			c2.325-4.65,2.076-10.172-0.657-14.594C431.027,182.692,426.199,180,421,180h-45v-30h45c8.284,0,15-6.716,15-15V75
			c0-8.284-6.716-15-15-15h-60c-41.355,0-75,33.645-75,75v45h-15c-8.284,0-15,6.716-15,15v60c0,8.284,6.716,15,15,15h15v122h-45
			c-3.978,0-7.793,1.58-10.606,4.393L166,460.787V407c0-8.284-6.716-15-15-15H61c-8.271,0-15-6.729-15-15V45c0-8.271,6.729-15,15-15
			h390c8.271,0,15,6.729,15,15V377z"/>
	</g>
</g>
<g>
</g>
<g>
</g>
<g>
</g>
<g>
</g>
<g>
</g>
<g>
</g>
<g>
</g>
<g>
</g>
<g>
</g>
<g>
</g>
<g>
</g>
<g>
</g>
<g>
</g>
<g>
</g>
<g>
</g>
</svg>
