<?xml version="1.0" standalone="no"?>
<!DOCTYPE svg PUBLIC "-//W3C//DTD SVG 1.1//EN" "http://www.w3.org/Graphics/SVG/1.1/DTD/svg11.dtd" >
<svg>
<metadata>
Created by FontForge 20090914 at Sat Jun 22 10:37:57 2013
 By www-data
Copyright (c) 2013 by Victoria Onishuk. All rights reserved.
</metadata>
<defs>
<font id="Gregor" horiz-adv-x="660" >
  <font-face 
    font-family="Gregor"
    font-weight="400"
    font-stretch="normal"
    units-per-em="1000"
    panose-1="2 0 5 3 6 0 0 2 0 4"
    ascent="750"
    descent="-250"
    x-height="500"
    cap-height="700"
    bbox="-135.996 -308.999 1056 929.999"
    underline-thickness="50"
    underline-position="-50"
    unicode-range="U+0020-U+FB02"
  />
<missing-glyph horiz-adv-x="260" 
 />
    <glyph glyph-name=".notdef" horiz-adv-x="260" 
 />
    <glyph glyph-name="space" unicode=" " horiz-adv-x="260" 
 />
    <glyph glyph-name="exclam" unicode="!" horiz-adv-x="272" 
d="M75 670l20 32h87l20 -32l-33 -496h-59zM174 110h-70l-20 -20v-70l20 -20h65l25 20v70z" />
    <glyph glyph-name="quotedbl" unicode="&#x22;" horiz-adv-x="385" 
d="M76 644l-1 69h79v-28c0 -6.66699 -0.166992 -13.667 -0.5 -21s-0.833008 -14 -1.5 -20l-22 -160h-32zM232 644l-1 69h79v-10c0 -4.66699 -0.166992 -10.5 -0.5 -17.5l-1 -21.5c-0.333008 -7.33301 -0.833008 -14 -1.5 -20l-22 -160h-31z" />
    <glyph glyph-name="numbersign" unicode="#" horiz-adv-x="664" 
d="M613 417h-124l-29 -153h122l-12 -60h-122l-41 -204h-63l39 204h-157l-41 -204h-63l40 204h-122l12 60h122l31 153h-124l13 60h122l41 205h64l-41 -205h157l41 205h64l-40 -205h122zM268 417l-30 -153h158l30 153h-158z" />
    <glyph glyph-name="dollar" unicode="$" horiz-adv-x="539" 
d="M215 -86v100h66v-100h-66zM240 662v100h66v-100h-66zM55 182l49.001 0.00195312l49 -127c10 -4 20.5 -7 31.5 -9s22 -3.5 33 -4.5s21.333 -1.5 31 -1.5h23.5c21.333 0 40.333 3.33301 57 10s30.667 15.5 42 26.5s20 23.167 26 36.5s9 27 9 41c0 14.667 -2 28.5 -6 41.5
s-11.5 25.833 -22.5 38.5s-26 25.334 -45 38.001s-43.167 26 -72.5 40c-47.333 20 -84.166 39.5 -110.499 58.5s-45.833 37.333 -58.5 55s-20.334 34.667 -23.001 51s-4 31.5 -4 45.5c0 28.667 6.16699 54.667 18.5 78s29.333 43.166 51 59.499s47.334 28.833 77.001 37.5
s61.834 13 96.501 13c26.667 0 52.5 -2.5 77.5 -7.5s53.5 -14.167 85.5 -27.5l-1 -150h-50l-49 120c-12 5.33301 -24.833 9.16602 -38.5 11.499s-25.167 3.5 -34.5 3.5c-18.667 0 -36.334 -2.16699 -53.001 -6.5s-31.334 -10.666 -44.001 -18.999s-22.667 -18.5 -30 -30.5
s-11 -25.667 -11 -41c0 -18 2.33301 -34.333 7 -49s13.167 -28.5 25.5 -41.5s28.833 -25.833 49.5 -38.5s47 -26 79 -40c36 -16 65.833 -32.333 89.5 -49s42.667 -33.834 57 -51.501s24.5 -35.5 30.5 -53.5s9 -36 9 -54c0 -28 -5.5 -54 -16.5 -78
s-26.833 -44.833 -47.5 -62.5s-45.334 -31.334 -74.001 -41.001s-60.667 -14.5 -96 -14.5c-34.667 0 -68.5 3.5 -101.5 10.5s-71.5 16.833 -115.5 29.5v152z" />
    <glyph glyph-name="percent" unicode="%" horiz-adv-x="736" 
d="M40 507c0 20.667 4 40.167 12 58.5s18.833 34.166 32.5 47.499s29.667 24 48 32s37.833 12 58.5 12s40.167 -4 58.5 -12s34.333 -18.667 48 -32s24.5 -29.166 32.5 -47.499s12 -37.833 12 -58.5s-4 -40.167 -12 -58.5s-18.833 -34.166 -32.5 -47.499s-29.667 -24 -48 -32
s-37.833 -12 -58.5 -12s-40.167 4 -58.5 12s-34.333 18.667 -48 32s-24.5 29.166 -32.5 47.499s-12 37.833 -12 58.5zM94 507c0 -14 2.5 -27.167 7.5 -39.5s11.833 -23.166 20.5 -32.499s19 -16.833 31 -22.5s24.667 -8.5 38 -8.5s26 2.83301 38 8.5s22.333 13.167 31 22.5
s15.5 20.166 20.5 32.499s7.5 25.5 7.5 39.5s-2.5 27.167 -7.5 39.5s-11.833 23.166 -20.5 32.499s-19 16.833 -31 22.5s-24.667 8.5 -38 8.5s-26 -2.83301 -38 -8.5s-22.333 -13.167 -31 -22.5s-15.5 -20.166 -20.5 -32.499s-7.5 -25.5 -7.5 -39.5zM575 672l39 -27
l-449 -645h-57zM394 137c0 20.667 4 40.167 12 58.5s18.833 34.166 32.5 47.499s29.667 24 48 32s37.833 12 58.5 12s40.167 -4 58.5 -12s34.333 -18.667 48 -32s24.5 -29.166 32.5 -47.499s12 -37.833 12 -58.5s-4 -40.167 -12 -58.5s-18.833 -34.166 -32.5 -47.499
s-29.667 -24 -48 -32s-37.833 -12 -58.5 -12s-40.167 4 -58.5 12s-34.333 18.667 -48 32s-24.5 29.166 -32.5 47.499s-12 37.833 -12 58.5zM448 137c0 -14 2.5 -27.167 7.5 -39.5s11.833 -23.166 20.5 -32.499s19 -16.833 31 -22.5s24.667 -8.5 38 -8.5s26 2.83301 38 8.5
s22.333 13.167 31 22.5s15.5 20.166 20.5 32.499s7.5 25.5 7.5 39.5s-2.5 27.167 -7.5 39.5s-11.833 23.166 -20.5 32.499s-19 16.833 -31 22.5s-24.667 8.5 -38 8.5s-26 -2.83301 -38 -8.5s-22.333 -13.167 -31 -22.5s-15.5 -20.166 -20.5 -32.499s-7.5 -25.5 -7.5 -39.5z
" />
    <glyph glyph-name="ampersand" unicode="&#x26;" horiz-adv-x="849" 
d="M688 350c-6.66699 -32.667 -16.998 -64.5 -30.998 -95.5s-30.667 -61.5 -50 -91.5l118 -97l89 -31v-35h-145l-115 100c-31.333 -34 -66.5 -60.833 -105.5 -80.5s-86.5 -29.5 -142.5 -29.5c-29.333 0 -59.166 3.66699 -89.499 11s-57.833 18.833 -82.5 34.5
s-44.834 35.334 -60.501 59.001s-23.5 51.5 -23.5 83.5c0 22.667 5.5 44.334 16.5 65.001s25.167 39.834 42.5 57.501s36.5 34 57.5 49s41.167 28.167 60.5 39.5l-41.5 32c-13.667 10.667 -25.667 22 -36 34s-18.833 25 -25.5 39s-10 29.667 -10 47
c0 30 5.5 55.833 16.5 77.5s25.167 39.167 42.5 52.5s36.833 23.166 58.5 29.499s43.5 9.5 65.5 9.5c20.667 0 42 -2.66699 64 -8s42.167 -14 60.5 -26s33.333 -27.333 45 -46s17.5 -41.334 17.5 -68.001c0 -20.667 -4 -38.667 -12 -54s-18.667 -29.333 -32 -42
s-28.333 -24.834 -45 -36.501s-33.334 -24.5 -50.001 -38.5l210 -188c13.333 22.667 23.166 46.667 29.499 72s11.5 50.333 15.5 75l-70 30v35h248v-35zM264.002 356l-41.5 -35.5c-13 -11 -24.333 -22.5 -34 -34.5s-17.334 -25 -23.001 -39s-8.5 -30.333 -8.5 -49
c0 -23.333 4.33301 -43.833 13 -61.5s20.334 -32.5 35.001 -44.5s31.667 -21 51 -27s40 -9 62 -9c42 0 79.333 6.5 112 19.5s59.667 32.5 81 58.5zM303.002 426l38.501 30.5c12.333 9.66699 23.166 19.667 32.499 30s16.833 21 22.5 32s8.5 23.5 8.5 37.5
c0 32 -11 57.333 -33 76s-49 28 -81 28c-9.33301 0 -19 -1.66699 -29 -5s-19.167 -8.83301 -27.5 -16.5s-15.333 -17.834 -21 -30.501s-8.5 -28 -8.5 -46c0 -15.333 3.66699 -30 11 -44s16 -26.833 26 -38.5s20.667 -22.167 32 -31.5s21 -16.666 29 -21.999z" />
    <glyph glyph-name="quotesingle" unicode="'" horiz-adv-x="250" 
d="M75 709l100 1l-28 -200h-52z" />
    <glyph glyph-name="parenleft" unicode="(" horiz-adv-x="273" 
d="M226 -230c-26 32 -49.333 63.8359 -70 95.5029s-38 66.167 -52 103.5s-24.833 79 -32.5 125s-11.5 99.667 -11.5 161c0 64 3.33301 118.167 10 162.5s16.834 84.166 30.501 119.499s31 68.666 52 99.999s45.5 65.666 73.5 102.999l27 -24
c-14.667 -24 -27.167 -45.833 -37.5 -65.5s-19.166 -39.167 -26.499 -58.5s-13.333 -39.5 -18 -60.5s-8.33398 -44.667 -11.001 -71s-4.5 -56.166 -5.5 -89.499s-1.5 -72 -1.5 -116c0 -66.667 1.16699 -121.334 3.5 -164.001s7.16602 -80 14.499 -112s17.5 -62 30.5 -90
s30.167 -60.333 51.5 -97z" />
    <glyph glyph-name="parenright" unicode=")" horiz-adv-x="273" 
d="M47 740c26 -32 49.332 -63.8359 69.999 -95.5029s38 -66.167 52 -103.5s24.833 -79 32.5 -125s11.5 -99.667 11.5 -161c0 -64 -3.33301 -118.167 -10 -162.5s-16.834 -84.166 -30.501 -119.499s-31 -68.666 -52 -99.999s-45.5 -65.666 -73.5 -102.999l-27 24
c14 23.333 26.333 45 37 65s19.667 39.667 27 59s13.333 39.5 18 60.5s8.33398 44.667 11.001 71s4.5 56.166 5.5 89.499s1.5 72 1.5 116c0 66.667 -1.16699 121.334 -3.5 164.001s-7.16602 80 -14.499 112s-17.5 62 -30.5 90s-30.167 60.333 -51.5 97z" />
    <glyph glyph-name="asterisk" unicode="*" horiz-adv-x="385" 
d="M64 532l-38 67l125 43l16 -25zM235 479l-77 -1l25 130l29 1zM365 600l-37 -67l-101 85l16 28zM325 774l39 -66l-122 -43l-15 23zM156 828h78l-22 -132l-29 1zM25 706l38 66l102 -84l-15 -27z" />
    <glyph glyph-name="plus" unicode="+" horiz-adv-x="570" 
d="M310 301v-226h-70v226h-220v70h220v214h70v-214h220v-70h-220z" />
    <glyph glyph-name="comma" unicode="," horiz-adv-x="300" 
d="M130 0l-19.998 20.001v70l20 20h70l20 -20v-36c0 -12 -1 -26 -3 -42s-7.33301 -32.333 -16 -49s-21.334 -33.167 -38.001 -49.5s-39.334 -30.833 -68.001 -43.5l-15 20c8 5.33301 16.167 12.166 24.5 20.499s15.833 17.5 22.5 27.5s12.167 20.333 16.5 31s6.5 21 6.5 31
h-20z" />
    <glyph glyph-name="hyphen" unicode="-" horiz-adv-x="340" 
d="M10 230v80h270v-80h-270z" />
    <glyph glyph-name="period" unicode="." horiz-adv-x="255" 
d="M180 90v-70l-25 -20h-65l-20 20v70l20 20h70z" />
    <glyph glyph-name="slash" unicode="/" horiz-adv-x="440" 
d="M370 700h60l-360 -800l-60 -1z" />
    <glyph glyph-name="zero" unicode="0" horiz-adv-x="615" 
d="M307 660c-27.333 0 -50.6689 -9.16699 -70.002 -27.5s-35 -42.333 -47 -72s-20.833 -63.334 -26.5 -101.001s-8.5 -75.5 -8.5 -113.5s2.5 -75.333 7.5 -112s13.5 -69.334 25.5 -98.001s27.667 -51.834 47 -69.501s43.333 -26.5 72 -26.5s52.667 8.83301 72 26.5
s35 40.834 47 69.501s20.667 61.334 26 98.001s8 74 8 112s-2.83301 75.833 -8.5 113.5s-14.667 71.334 -27 101.001s-28.166 53.667 -47.499 72s-42.666 27.5 -69.999 27.5zM306.997 710c48 0 88.5 -10.167 121.5 -30.5s59.667 -47.333 80 -81
s34.833 -72.334 43.5 -116.001s13 -89.167 13 -136.5c0 -55.333 -5.66699 -105 -17 -149s-27.833 -81.333 -49.5 -112s-48.5 -54.167 -80.5 -70.5s-69 -24.5 -111 -24.5s-79 8.16699 -111 24.5s-58.833 39.833 -80.5 70.5s-38 68 -49 112s-16.5 93.667 -16.5 149
c0 47.333 4.33301 92.833 13 136.5s23.167 82.334 43.5 116.001s46.833 60.667 79.5 81s73 30.5 121 30.5z" />
    <glyph glyph-name="one" unicode="1" horiz-adv-x="375" 
d="M64 35l92 25v565h-136v40l179 45h53v-650l93 -25v-35h-281v35z" />
    <glyph glyph-name="two" unicode="2" horiz-adv-x="553" 
d="M45 76l59.001 58.501c22.667 22.333 45.667 46.333 69 72s46.5 52.667 69.5 81s43.5 56.666 61.5 84.999s32.5 56.333 43.5 84s16.5 53.834 16.5 78.501c0 38 -9.83301 68.333 -29.5 91s-48.834 34 -87.501 34c-9.33301 0 -21.833 -1 -37.5 -3s-34.5 -6 -56.5 -12
l-50 -120h-50v150c24.667 10.667 54.334 19.167 89.001 25.5s71 9.5 109 9.5c30 0 58.667 -3.33301 86 -10s51.166 -17 71.499 -31s36.666 -32 48.999 -54s18.5 -48.667 18.5 -80c0 -30.667 -6.83301 -61.5 -20.5 -92.5s-31.167 -61.167 -52.5 -90.5
s-45.166 -57.5 -71.499 -84.5s-52.5 -51.833 -78.5 -74.5s-50.167 -42.834 -72.5 -60.501l-53.5 -42.5v-10h260l45 110h46v-190h-433v76z" />
    <glyph glyph-name="three" unicode="3" horiz-adv-x="563" 
d="M125 175l49.9961 -120.002c7.33301 -3.33301 15.333 -6 24 -8s17 -3.5 25 -4.5s14.833 -1.66699 20.5 -2s8.83398 -0.5 9.50098 -0.5c20.667 0 40 4 58 12s33.833 19 47.5 33s24.5 30.667 32.5 50s12 40.333 12 63c0 20 -4 38.333 -12 55s-18.667 31 -32 43
s-28.666 21.333 -45.999 28s-35.333 10 -54 10l-91 -10v84l81 -9c14 5.33301 28.167 12.833 42.5 22.5s27.5 20.834 39.5 33.501s21.667 26.667 29 42s11 31 11 47s-1.66699 31 -5 45s-9 26.333 -17 37s-18.5 19 -31.5 25s-28.833 9 -47.5 9
c-25.333 0 -48.333 -4.66699 -69 -14l-51 -121h-50v150c30.667 13.333 58.834 22.5 84.501 27.5s55.167 7.5 88.5 7.5c27.333 0 52.833 -3.16699 76.5 -9.5s44.334 -15.833 62.001 -28.5s31.5 -28.334 41.5 -47.001s15 -40.334 15 -65.001
c0 -26 -5.16699 -48.833 -15.5 -68.5s-22.833 -36.667 -37.5 -51s-30.334 -26.166 -47.001 -35.499s-31 -16.666 -43 -21.999c-3.33301 -1.33301 -3.66602 -2.5 -0.999023 -3.5s3 -1.83301 1 -2.5c20 -2 40.5 -7.5 61.5 -16.5s40 -21 57 -36s31 -33 42 -54
s16.5 -44.5 16.5 -70.5c0 -36 -7.5 -67.167 -22.5 -93.5s-34.5 -48.166 -58.5 -65.499s-51 -30.166 -81 -38.499s-60 -12.5 -90 -12.5c-42.667 0 -77.667 3.66699 -105 11s-51 18.666 -71 33.999v140h50z" />
    <glyph glyph-name="four" unicode="4" horiz-adv-x="550" 
d="M312 265v328l-222 -328h222zM398 1h-86v192h-293v75l304 442h75v-445h103v-72h-103v-192z" />
    <glyph glyph-name="five" unicode="5" horiz-adv-x="575" 
d="M193 620l-13 -176.004c4 0 10.5 0.666992 19.5 2s19.833 2.33301 32.5 3s26.5 0.833984 41.5 0.500977s30.5 -1.83301 46.5 -4.5c24 -4 47.167 -11 69.5 -21s42 -23.667 59 -41s30.667 -39 41 -65s15.5 -57.333 15.5 -94c0 -38 -6.16699 -71.5 -18.5 -100.5
s-29.333 -53.333 -51 -73s-47.5 -34.667 -77.5 -45s-63 -15.5 -99 -15.5c-21.333 0 -42.166 2 -62.499 6s-38.833 8.66699 -55.5 14s-30.834 10.333 -42.501 15s-19.5 8 -23.5 10v150h50l49 -130c15.333 -5.33301 30.333 -9.16602 45 -11.499s28 -3.5 40 -3.5
c29.333 0 53.666 6 72.999 18s34.666 26.833 45.999 44.5s19.333 36.5 24 56.5s7 37.667 7 53c0 12.667 -1.66699 27.334 -5 44.001s-10.333 32.834 -21 48.501s-26.167 29.167 -46.5 40.5s-47.166 18 -80.499 20c-24.667 1.33301 -47.667 0.833008 -69 -1.5
s-46.666 -4.83301 -75.999 -7.5l28 344h353v-80h-299z" />
    <glyph glyph-name="six" unicode="6" horiz-adv-x="564" 
d="M275 -10c-39.333 0 -72.9971 7.99902 -100.997 23.999s-51.333 38 -70 66s-32.334 60.833 -41.001 98.5s-13 78.167 -13 121.5c0 60.667 7 116.167 21 166.5s33.667 93.5 59 129.5s55.833 64 91.5 84s75.167 30 118.5 30c28 0 55 -6.66699 81 -20l-18 -40
c-12 2.66699 -23.333 5 -34 7s-20.334 3 -29.001 3c-26 0 -49.833 -7.16699 -71.5 -21.5s-40.5 -33.833 -56.5 -58.5s-29.333 -53.167 -40 -85.5s-18.334 -66.5 -23.001 -102.5c23.333 16.667 48.333 30 75 40s55.667 15 87 15c27.333 0 53 -4.66699 77 -14
s45 -22.833 63 -40.5s32.167 -39 42.5 -64s15.5 -53.5 15.5 -85.5c0 -34 -5.16699 -66.167 -15.5 -96.5s-25.5 -57.166 -45.5 -80.499s-44.5 -41.833 -73.5 -55.5s-62.167 -20.5 -99.5 -20.5zM272.003 373.999c-23.333 0 -45.335 -2.66797 -66.002 -8.00098s-41 -13 -61 -23
c-0.666992 -8 -1 -15.833 -1 -23.5v-24.5c0 -33.333 2.33301 -65.166 7 -95.499s12.334 -57 23.001 -80s24.334 -41.5 41.001 -55.5s36.667 -21 60 -21c45.333 0 79.333 15 102 45s34 71.667 34 125c0 47.333 -12.333 86 -37 116s-58.667 45 -102 45z" />
    <glyph glyph-name="seven" unicode="7" horiz-adv-x="507" 
d="M70 500h-50v200h455l12 -35l-298 -665h-110l320 610v10h-279z" />
    <glyph glyph-name="eight" unicode="8" horiz-adv-x="598" 
d="M60 180c0 22 4.66602 41.9971 13.999 59.9971s21.333 34.667 36 50s31.334 29.333 50.001 42s37.334 24.667 56.001 36v6c-12 6.66699 -25.333 15.167 -40 25.5s-28.5 22.5 -41.5 36.5s-23.833 29.333 -32.5 46s-13 34.334 -13 53.001c0 25.333 5.5 48.666 16.5 69.999
s26.333 39.833 46 55.5s42.5 27.834 68.5 36.501s54 13 84 13s58.333 -3.16699 85 -9.5s50 -16.166 70 -29.499s35.833 -30.333 47.5 -51s17.5 -45.667 17.5 -75c0 -22.667 -5 -43.167 -15 -61.5s-21.667 -34.5 -35 -48.5s-27.333 -26 -42 -36l-35 -24v-6
c17.333 -10 34.333 -21.167 51 -33.5s31.667 -26 45 -41s24.166 -31.5 32.499 -49.5s12.5 -37.333 12.5 -58c0 -29.333 -6.16699 -56 -18.5 -80s-29 -44.667 -50 -62s-45.667 -30.833 -74 -40.5s-58.833 -14.5 -91.5 -14.5c-29.333 0 -58.5 3.83301 -87.5 11.5
s-55 19.334 -78 35.001s-41.833 35.5 -56.5 59.5s-22 52 -22 84zM437.999 184.997c0 19.333 -5 36.6641 -15 51.9971s-23.333 29.333 -40 42s-35.334 24.334 -56.001 35.001l-63 32l-37 -36c-12.667 -12.667 -24.167 -25.667 -34.5 -39s-18.666 -27.166 -24.999 -41.499
s-9.5 -29.166 -9.5 -44.499c0 -24 4.16699 -45.167 12.5 -63.5s19.333 -33.5 33 -45.5s29.167 -21 46.5 -27s35.333 -9 54 -9c17.333 0 34 3 50 9s30.333 15.167 43 27.5s22.667 27.5 30 45.5s11 39 11 63zM178.999 544.995c0 -18 5.16895 -33.8369 15.502 -47.5039
s23.5 -26 39.5 -37s33.667 -21.167 53 -30.5s37.666 -18.666 54.999 -27.999c10 8.66699 20 18.834 30 30.501s19.333 24.334 28 38.001s15.667 27.667 21 42s8 28.5 8 42.5c0 17.333 -4 32.666 -12 45.999s-18 24.333 -30 33s-25.333 15.167 -40 19.5s-29 6.5 -43 6.5
c-12 0 -25.333 -2.16699 -40 -6.5s-28.334 -11.166 -41.001 -20.499s-23.167 -21.166 -31.5 -35.499s-12.5 -31.833 -12.5 -52.5z" />
    <glyph glyph-name="nine" unicode="9" horiz-adv-x="537" 
d="M260 710c40 0 74.5 -7.99902 103.5 -23.999s53 -38 72 -66s33.167 -60.667 42.5 -98s14 -77.333 14 -120c0 -60.667 -7 -116.167 -21 -166.5s-33.333 -93.666 -58 -129.999s-53.334 -64.666 -86.001 -84.999s-67.667 -30.5 -105 -30.5c-20.667 0 -40 2.5 -58 7.5
s-28.667 9.16699 -32 12.5l20 40c15.333 -5.33301 29 -8.33301 41 -9s21.667 -1 29 -1c24.667 0 46.334 7.33301 65.001 22s34.834 34.167 48.501 58.5s25 52.833 34 85.5s15.833 67 20.5 103c-22 -15.333 -42.5 -27 -61.5 -35s-35.667 -13.5 -50 -16.5
s-26.333 -4.5 -36 -4.5h-20.5c-28 0 -54.333 5.83301 -79 17.5s-46 27.667 -64 48s-32.333 44.166 -43 71.499s-16 56.666 -16 87.999c0 34 5.16699 65.167 15.5 93.5s25.666 52.666 45.999 72.999s45.333 36.333 75 48s64.167 17.5 103.5 17.5zM262 326.001
c24.667 0 47.8311 2.66504 69.498 7.99805s42.5 12.666 62.5 21.999c0.666992 8.66699 1 17 1 25v25c0 32.667 -2.33301 64.334 -7 95.001s-12.5 57.834 -23.5 81.501s-25.667 42.5 -44 56.5s-40.833 21 -67.5 21c-20.667 0 -39.167 -4.5 -55.5 -13.5
s-30.166 -21.667 -41.499 -38s-20 -35.666 -26 -57.999s-9 -46.833 -9 -73.5c0 -47.333 12.833 -84.333 38.5 -111s59.834 -40 102.501 -40z" />
    <glyph glyph-name="colon" unicode=":" horiz-adv-x="285" 
d="M200 90v-70l-25 -20h-65l-20 20v70l20 20h70zM200 480v-70l-25 -20h-65l-20 20v70l20 20h70z" />
    <glyph glyph-name="semicolon" unicode=";" horiz-adv-x="300" 
d="M104 0l-19.998 20.001v70l20 20h70l20 -20v-36c0 -12 -1 -26 -3 -42s-7.33301 -32.333 -16 -49s-21.334 -33.167 -38.001 -49.5s-39.334 -30.833 -68.001 -43.5l-15 20c8 5.33301 16.167 12.166 24.5 20.499s15.833 17.5 22.5 27.5s12.167 20.333 16.5 31s6.5 21 6.5 31
h-20zM190.002 480.001v-70l-25 -20h-65l-20 20v70l20 20h70z" />
    <glyph glyph-name="less" unicode="&#x3c;" horiz-adv-x="583" 
d="M45 315v27l448 279l30 -68l-343 -225l343 -225l-30 -68z" />
    <glyph glyph-name="equal" unicode="=" horiz-adv-x="580" 
d="M30 393v71h520v-71h-520zM30 191v71h520v-71h-520z" />
    <glyph glyph-name="greater" unicode="&#x3e;" horiz-adv-x="583" 
d="M85 35l-40 58l343 235l-343 215l40 78l438 -281v-25z" />
    <glyph glyph-name="question" unicode="?" horiz-adv-x="410" 
d="M20 666c22 8.66699 41.334 15.835 58.001 21.502s31.667 10.167 45 13.5s25.5 5.66602 36.5 6.99902s22.167 2 33.5 2c34 0 63.5 -4.5 88.5 -13.5s45.5 -21 61.5 -36s27.833 -32.333 35.5 -52s11.5 -40.5 11.5 -62.5c0 -40.667 -7.33301 -76.5 -22 -107.5
s-39 -61.833 -73 -92.5l-100 -75l-26 -107h-47l-15 104l124 110c21.333 23.333 36.5 48.833 45.5 76.5s13.5 54.167 13.5 79.5c0 16.667 -2.33301 32.667 -7 48s-11.834 28.666 -21.501 39.999s-22.167 20.5 -37.5 27.5s-34 10.5 -56 10.5
c-17.333 0 -30.333 -2.16699 -39 -6.5l-33 -16.5l-28 -94h-48v123zM179.001 110.001h-70l-20 -20v-70l20 -20h65l25 20v70z" />
    <glyph glyph-name="at" unicode="@" horiz-adv-x="817" 
d="M641 37c-33.333 -18.667 -68.4932 -32.168 -105.493 -40.501s-77.5 -12.5 -121.5 -12.5c-54 0 -103.333 8.5 -148 25.5s-83 41 -115 72s-56.833 68.333 -74.5 112s-26.5 91.834 -26.5 144.501c0 54 9.33301 104 28 150s44.834 85.833 78.501 119.5
s73.667 59.834 120 78.501s97.166 28 152.499 28c44.667 0 87.5 -6.5 128.5 -19.5s77 -31.5 108 -55.5s55.667 -53.333 74 -88s27.5 -73.334 27.5 -116.001c0 -34.667 -7 -67 -21 -97s-33 -56.333 -57 -79s-52.167 -40.834 -84.5 -54.501s-66.833 -21.5 -103.5 -23.5l-38 40
c-17.333 -17.333 -38.5 -28.5 -63.5 -33.5s-49.167 -3.83301 -72.5 3.5s-43.333 20.833 -60 40.5s-25 46.167 -25 79.5c0 23.333 4.16699 46.833 12.5 70.5s21.166 45.167 38.499 64.5s39.166 35 65.499 47s57.166 18 92.499 18c2.66699 0 8.66699 -0.333008 18 -1
s19.833 -2 31.5 -4s23.167 -4.5 34.5 -7.5s20.666 -6.5 27.999 -10.5l-31 -239c0 -1.33301 0.166992 -3.5 0.5 -6.5s0.833008 -5.5 1.5 -7.5c29.333 1.33301 54.5 8.66602 75.5 21.999s38.333 29.833 52 49.5s23.667 40.834 30 63.501s9.5 44 9.5 64
c0 36 -8.33301 68.167 -25 96.5s-38.334 52.333 -65.001 72s-56.834 34.834 -90.501 45.501s-67.5 16 -101.5 16c-43.333 0 -83.333 -8.5 -120 -25.5s-68.334 -39.833 -95.001 -68.5s-47.5 -62.334 -62.5 -101.001s-22.5 -79.334 -22.5 -122.001
c0 -43.333 7.66699 -84 23 -122s36.5 -71.167 63.5 -99.5s59.333 -50.666 97 -66.999s79.167 -24.5 124.5 -24.5c34 0 68.167 4.83301 102.5 14.5s63.833 20.834 88.5 33.501zM487.007 460.999c-5.33301 2.66699 -11.8359 4.83398 -19.5029 6.50098s-15.167 2.5 -22.5 2.5
c-23.333 0 -43.166 -4.83301 -59.499 -14.5s-29.666 -21.834 -39.999 -36.501s-17.833 -30.667 -22.5 -48s-7 -34 -7 -50c0 -30 7.83301 -52.833 23.5 -68.5s34.167 -23.5 55.5 -23.5c15.333 0 27.833 2.33301 37.5 7s18.834 13.667 27.501 27z" />
    <glyph glyph-name="A" unicode="A" horiz-adv-x="644" 
d="M413 206h-248l-52 -146l90 -25v-35h-218v35l70 25l235 655h40l249 -655l70 -25v-35h-266v35l85 25zM182 256h213l-109 292z" />
    <glyph glyph-name="B" unicode="B" horiz-adv-x="651" 
d="M35 35l90 25.001v580l-90 25v35h314c70.667 0 123.5 -13.833 158.5 -41.5s52.5 -65.5 52.5 -113.5c0 -46 -14 -82.5 -42 -109.5s-65.333 -46.167 -112 -57.5c26.667 -5.33301 51.5 -13 74.5 -23s43 -22.5 60 -37.5s30.5 -32.333 40.5 -52s15 -41.834 15 -66.501
c0 -34 -6.83301 -63.5 -20.5 -88.5s-32 -45.667 -55 -62s-49.667 -28.5 -80 -36.5s-61.833 -12 -94.5 -12h-311v35zM456 545.001c0 16.667 -3.5 31.5 -10.5 44.5s-16.167 24 -27.5 33s-23.833 15.833 -37.5 20.5s-27.5 7 -41.5 7h-110v-255h72c46 0 83.333 13.5 112 40.5
s43 63.5 43 109.5zM493 199.001c0 26 -4.83105 48.165 -14.498 66.498s-22.334 33.333 -38.001 45s-33.834 20.334 -54.501 26.001s-42 8.83398 -64 9.50098h-93v-296h107c20.667 0 40.5 2.83301 59.5 8.5s35.833 14.667 50.5 27s26.167 27.833 34.5 46.5s12.5 41 12.5 67z
" />
    <glyph glyph-name="C" unicode="C" horiz-adv-x="620" 
d="M379 -10c-44.667 0 -87.1709 7.00293 -127.504 21.0029s-75.833 35.5 -106.5 64.5s-55 65.833 -73 110.5s-27 98 -27 160c0 55.333 9.66699 105.5 29 150.5s45.333 83.333 78 115s69.834 56 111.501 73s85.167 25.5 130.5 25.5c18 0 36.333 -1 55 -3s36 -4.83301 52 -8.5
s30.5 -7.5 43.5 -11.5s23.167 -8 30.5 -12v-150h-50l-50 120c-17.333 5.33301 -34.833 9.16602 -52.5 11.499s-32.167 3.5 -43.5 3.5c-30 0 -59 -6.33301 -87 -19s-52.667 -31.667 -74 -57s-38.333 -57 -51 -95s-19 -82.333 -19 -133c0 -44 6.83301 -85.333 20.5 -124
s31.834 -72.167 54.501 -100.5s48.5 -50.666 77.5 -66.999s58.5 -24.5 88.5 -24.5c19.333 0 34.833 1.16699 46.5 3.5s24.834 6.16602 39.501 11.499l50 130h50v-150c-13.333 -8.66699 -29.666 -15.834 -48.999 -21.501s-38.5 -10.334 -57.5 -14.001
s-36.667 -6.16699 -53 -7.5s-28.5 -2 -36.5 -2z" />
    <glyph glyph-name="D" unicode="D" horiz-adv-x="727" 
d="M567 361c0 30 -2.83301 62 -8.5 96s-16.167 65.333 -31.5 94s-36.5 52.334 -63.5 71.001s-61.833 28 -104.5 28h-134v-600h134c42.667 0 77.667 10.5 105 31.5s48.5 47.167 63.5 78.5s25.333 65.166 31 101.499s8.5 69.5 8.5 99.5zM125 640l-90 25.0029v35h324
c52 0 97.833 -9.66699 137.5 -29s72.834 -44.833 99.501 -76.5s46.834 -67.834 60.501 -108.501s20.5 -82.334 20.5 -125.001c0 -43.333 -6.83301 -86.333 -20.5 -129s-33.834 -81.334 -60.501 -116.001s-59.834 -62.667 -99.501 -84s-85.5 -32 -137.5 -32h-324v35l90 25
v580z" />
    <glyph glyph-name="E" unicode="E" 
d="M371 337h-146v-287h270l60 110h50l-22 -160h-548v35l90 25v580l-90 25v35h533l17 -150h-50l-50 100h-260v-263h147l24 89h35v-228h-35z" />
    <glyph glyph-name="F" unicode="F" horiz-adv-x="605" 
d="M405 317h-180v-257l110 -25v-35h-300v35l90 25v580l-90 25v35h535l15 -150h-50l-50 100h-260v-283h180l25 88h35v-228h-35l-25 89v1z" />
    <glyph glyph-name="G" unicode="G" horiz-adv-x="686" 
d="M496 237l-109.998 24.9971v35h280v-35l-70 -25v-178c-18 -17.333 -38 -30.5 -60 -39.5s-43.5 -15.833 -64.5 -20.5s-39.833 -7.33398 -56.5 -8.00098s-29 -1 -37 -1c-39.333 0 -78.5 6.83301 -117.5 20.5s-74.167 34.834 -105.5 63.501s-56.666 65.334 -75.999 110.001
s-29 98 -29 160c0 52.667 9.66699 101.334 29 146.001s45.666 83.334 78.999 116.001s72 58.167 116 76.5s90.667 27.5 140 27.5c25.333 0 53 -2.66699 83 -8s63 -14.333 99 -27v-140h-50l-51 110c-8.66699 2.66699 -17.834 4.83398 -27.501 6.50098s-19 3.16699 -28 4.5
s-17 2.33301 -24 3s-12.5 1 -16.5 1c-30 0 -59.5 -6.33301 -88.5 -19s-54.833 -31.667 -77.5 -57s-40.834 -57 -54.501 -95s-20.5 -82.333 -20.5 -133c0 -42 6.83301 -82 20.5 -120s32.167 -71.5 55.5 -100.5s50 -52.167 80 -69.5s61.667 -26 95 -26
c13.333 0 27.833 1.16699 43.5 3.5s30.167 6.16602 43.5 11.499v182z" />
    <glyph glyph-name="H" unicode="H" horiz-adv-x="767" 
d="M550 391v249l-90 25v35h272v-35l-90 -25v-580l90 -25v-35h-272v35l90 25v281h-333v-281l90 -25v-35h-272v35l90 25v580l-90 25v35h272v-35l-90 -25v-249h333z" />
    <glyph glyph-name="I" unicode="I" horiz-adv-x="351" 
d="M125 640l-90 25v35h281v-35l-90 -25v-580l90 -25v-35h-281v35l90 25v580z" />
    <glyph glyph-name="J" unicode="J" horiz-adv-x="355" 
d="M20 30c28 0 49.999 7.66602 65.999 22.999s28 33.666 36 54.999s13 42.833 15 64.5s3 39.167 3 52.5v415l-110 25v35h300v-35l-90 -25v-370c0 -19.333 -0.333008 -39.666 -1 -60.999s-3 -42.5 -7 -63.5s-10.333 -40.833 -19 -59.5s-21.167 -35.167 -37.5 -49.5
s-37.166 -25.666 -62.499 -33.999s-56.333 -12.5 -93 -12.5v40z" />
    <glyph glyph-name="K" unicode="K" horiz-adv-x="684" 
d="M396 355l193 -295l90 -25v-35h-165l-216 330h-73v-270l90 -25v-35h-280v35l90 25v580l-90 25v35h280v-35l-90 -25v-260h119l143 260l-70 25v35h226v-35l-90 -25z" />
    <glyph glyph-name="L" unicode="L" horiz-adv-x="575" 
d="M115 60v580l-80 25v35h291v-35l-110 -25v-590h234l60 131h50l-22 -181h-503v35z" />
    <glyph glyph-name="M" unicode="M" horiz-adv-x="925" 
d="M800 60l90 -25v-35h-270v35l80 25l-15 493l-217 -552h-57l-207 554l-24 -495l80 -25v-35h-225v35l90 25l29 580l-90 25v35h186l212 -557l218 557h188v-35l-90 -25z" />
    <glyph glyph-name="N" unicode="N" horiz-adv-x="731" 
d="M472 665v35h239v-35l-90 -25v-640h-47l-392 530v-470l90 -25v-35h-237v35l90 25v541l-30 39l-60 25v35h142l385 -520v460z" />
    <glyph glyph-name="O" unicode="O" horiz-adv-x="732" 
d="M366 710c51.333 0 96.333 -9.16895 135 -27.502s71 -43.666 97 -75.999s45.667 -70.333 59 -114s20 -90.5 20 -140.5c0 -49.333 -6.66699 -95.833 -20 -139.5s-33 -82 -59 -115s-58.5 -59.167 -97.5 -78.5s-83.833 -29 -134.5 -29c-52 0 -97.333 9.5 -136 28.5
s-71 44.833 -97 77.5s-45.5 71 -58.5 115s-19.5 91 -19.5 141c0 50.667 6.5 97.834 19.5 141.501s32.5 81.5 58.5 113.5s58.5 57.167 97.5 75.5s84.167 27.5 135.5 27.5zM366 659.998c-31.333 0 -59.668 -7.16797 -85.001 -21.501s-47 -34.666 -65 -60.999
s-31.833 -58.5 -41.5 -96.5s-14.5 -81 -14.5 -129s4.83301 -91.167 14.5 -129.5s23.334 -71 41.001 -98s39.167 -47.833 64.5 -62.5s54 -22 86 -22c31.333 0 59.5 7.33301 84.5 22s46.333 35.5 64 62.5s31.167 59.667 40.5 98s14 81.5 14 129.5
c0 47.333 -4.66699 90 -14 128s-22.833 70.333 -40.5 97s-39 47.167 -64 61.5s-53.167 21.5 -84.5 21.5z" />
    <glyph glyph-name="P" unicode="P" horiz-adv-x="583" 
d="M335 35l0.000976562 -35h-300v35l90 25v580l-90 25v35h303c30 0 58.333 -3.66699 85 -11s50 -18.666 70 -33.999s35.833 -34.666 47.5 -57.999s17.5 -51 17.5 -83c0 -36 -7.66699 -67.333 -23 -94s-35.333 -48.834 -60 -66.501s-52.834 -30.834 -84.501 -39.501
s-63.5 -13 -95.5 -13c-12 0 -23.833 0.333008 -35.5 1s-23.167 2 -34.5 4v-246zM458.001 514c0 22 -4 41.332 -12 57.999s-18.5 30.834 -31.5 42.501s-27.833 20.5 -44.5 26.5s-33.667 9 -51 9h-94v-297c24.667 -2.66699 50.667 -2.16699 78 1.5s52.5 11.5 75.5 23.5
s42 29.167 57 51.5s22.5 50.5 22.5 84.5z" />
    <glyph glyph-name="Q" unicode="Q" horiz-adv-x="729" 
d="M366 710c50 0 94.333 -9.33301 133 -28s71.167 -44 97.5 -76s46.333 -69.833 60 -113.5s20.5 -90.5 20.5 -140.5c0 -40.667 -4.66699 -79.5 -14 -116.5s-23 -70.833 -41 -101.5s-40.5 -57.167 -67.5 -79.5s-58.5 -38.833 -94.5 -49.5l144 -125l85 -45v-35h-151
c0 -0.666992 -3.83301 3 -11.5 11l-29 31.5l-39 43l-40.5 45l-33 38l-18 21.5h-1c-54 2.66699 -100.5 14.167 -139.5 34.5s-71.333 46.666 -97 78.999s-44.5 69.833 -56.5 112.5s-18 88 -18 136c0 50.667 6.66699 97.834 20 141.501s33.166 81.5 59.499 113.5
s58.833 57.167 97.5 75.5s83.334 27.5 134.001 27.5zM366 660c-32 0 -60.668 -7.16797 -86.001 -21.501s-47 -34.666 -65 -60.999s-31.667 -58.5 -41 -96.5s-14 -81 -14 -129s4.83301 -91.167 14.5 -129.5s23.334 -71 41.001 -98s39.167 -47.833 64.5 -62.5s54 -22 86 -22
c31.333 0 59.5 7.33301 84.5 22s46.333 35.5 64 62.5s31.167 59.667 40.5 98s14 81.5 14 129.5c0 47.333 -4.66699 90 -14 128s-22.833 70.333 -40.5 97s-39 47.167 -64 61.5s-53.167 21.5 -84.5 21.5z" />
    <glyph glyph-name="R" unicode="R" 
d="M315 35l-0.000976562 -35.002h-280v35l90 25v580l-90 25v35h303c30 0 58.333 -3.66699 85 -11s50 -18.666 70 -33.999s35.833 -34.666 47.5 -57.999s17.5 -51 17.5 -83c0 -24 -3.66699 -45.5 -11 -64.5s-17.166 -35.833 -29.499 -50.5s-27 -27.167 -44 -37.5
s-35.167 -18.833 -54.5 -25.5l156 -276l90 -25v-35h-169l-181 319c-4.66699 -0.666992 -8 -1 -10 -1h-10c-12 0 -23.833 0.333008 -35.5 1s-23.167 2 -34.5 4v-263zM457.999 513.998c0 22 -4 41.333 -12 58s-18.5 30.834 -31.5 42.501s-27.833 20.5 -44.5 26.5
s-33.667 9 -51 9h-94v-280c24.667 -2.66699 50.667 -3.16699 78 -1.5s52.5 7.66699 75.5 18s42 25.666 57 45.999s22.5 47.5 22.5 81.5z" />
    <glyph glyph-name="S" unicode="S" horiz-adv-x="601" 
d="M55 182l49.001 0.00195312l49 -127c10 -4 20.5 -7 31.5 -9s22 -3.5 33 -4.5s21.333 -1.5 31 -1.5h23.5c21.333 0 40.333 3.33301 57 10s30.667 15.5 42 26.5s20 23.167 26 36.5s9 27 9 41c0 14.667 -2 28.5 -6 41.5s-11.5 25.833 -22.5 38.5s-26 25.334 -45 38.001
s-43.167 26 -72.5 40c-47.333 20 -84.166 39.5 -110.499 58.5s-45.833 37.333 -58.5 55s-20.334 34.667 -23.001 51s-4 31.5 -4 45.5c0 28.667 6.16699 54.667 18.5 78s29.333 43.166 51 59.499s47.334 28.833 77.001 37.5s61.834 13 96.501 13
c26.667 0 52.5 -2.5 77.5 -7.5s53.5 -14.167 85.5 -27.5l-1 -150h-50l-49 120c-12 5.33301 -24.833 9.16602 -38.5 11.499s-25.167 3.5 -34.5 3.5c-18.667 0 -36.334 -2.16699 -53.001 -6.5s-31.334 -10.666 -44.001 -18.999s-22.667 -18.5 -30 -30.5s-11 -25.667 -11 -41
c0 -18 2.33301 -34.333 7 -49s13.167 -28.5 25.5 -41.5s28.833 -25.833 49.5 -38.5s47 -26 79 -40c36 -16 65.833 -32.333 89.5 -49s42.667 -33.834 57 -51.501s24.5 -35.5 30.5 -53.5s9 -36 9 -54c0 -28 -5.5 -54 -16.5 -78s-26.833 -44.833 -47.5 -62.5
s-45.334 -31.334 -74.001 -41.001s-60.667 -14.5 -96 -14.5c-34.667 0 -68.5 3.5 -101.5 10.5s-71.5 16.833 -115.5 29.5v152z" />
    <glyph glyph-name="T" unicode="T" horiz-adv-x="620" 
d="M110 650l-50 -99h-50l16 149h569l15 -149h-50l-50 99h-147v-590l90 -25v-35h-280v35l90 25v590h-153z" />
    <glyph glyph-name="U" unicode="U" horiz-adv-x="685" 
d="M590 236c0 -37.333 -5.66602 -70.998 -16.999 -100.998s-27.5 -55.833 -48.5 -77.5s-46.667 -38.334 -77 -50.001s-64.5 -17.5 -102.5 -17.5c-37.333 0 -71.333 6 -102 18s-57 28.833 -79 50.5s-39 47.667 -51 78s-18 63.5 -18 99.5v404l-90 26v35h280v-35l-90 -26v-404
c0 -26.667 2.83301 -51.834 8.5 -75.501s15 -44.5 28 -62.5s30 -32.167 51 -42.5s47.167 -15.5 78.5 -15.5c28.667 0 54 5.5 76 16.5s40.167 25.5 54.5 43.5s25.166 38.833 32.499 62.5s11 48.167 11 73.5v404l-90 25v35h235v-35l-90 -25v-404z" />
    <glyph glyph-name="V" unicode="V" horiz-adv-x="640" 
d="M350 -15h-40l-250 655l-70 25v35h265v-35l-90 -25l184 -500l180 500l-90 25v35h216v-35l-70 -25z" />
    <glyph glyph-name="W" unicode="W" horiz-adv-x="913" 
d="M654 -15h-40l-149 545l-160 -545h-40l-197 655l-78 25v35h266v-35l-90 -25l141 -480l159 540h40l152 -540l148 480l-95 25v35h217v-35l-70 -25z" />
    <glyph glyph-name="X" unicode="X" horiz-adv-x="647" 
d="M642 35v-35h-248v35l70 25l-173 257l-152 -257l70 -25v-35h-204v35l70 25l187 298l-187 282l-70 25v35h248v-35l-70 -25l136 -219l136 219l-70 25v35h203v-35l-70 -25l-169 -263l223 -317z" />
    <glyph glyph-name="Y" unicode="Y" horiz-adv-x="603" 
d="M352 346l145 294l-70 25v35h196v-35l-70 -25l-172 -347v-233l70 -25v-35h-239v35l70 25v226l-222 354l-70 25v35h249v-35l-70 -25z" />
    <glyph glyph-name="Z" unicode="Z" horiz-adv-x="601" 
d="M539 0h-489l-10 32l387 618h-263l-51 -99h-49l16 149h453l9 -38l-381 -612h290l60 100h50z" />
    <glyph glyph-name="bracketleft" unicode="[" horiz-adv-x="276" 
d="M85 -230v967h151v-30h-84v-907h84v-30h-151z" />
    <glyph glyph-name="backslash" unicode="\" horiz-adv-x="440" 
d="M430 -49h-60l-360 800h60z" />
    <glyph glyph-name="bracketright" unicode="]" horiz-adv-x="276" 
d="M30 -230v30h85v907h-85v30h151v-967h-151z" />
    <glyph glyph-name="asciicircum" unicode="^" horiz-adv-x="614" 
d="M435 414l-128 215l-118 -215h-89l194 325h28l192 -325h-79z" />
    <glyph glyph-name="underscore" unicode="_" horiz-adv-x="533" 
d="M0 -123v46h513v-46h-513z" />
    <glyph glyph-name="grave" unicode="`" horiz-adv-x="255" 
d="M20 720l120 30l90 -160l-44 -20z" />
    <glyph glyph-name="a" unicode="a" horiz-adv-x="522" 
d="M220 460c-6 0 -14.4971 -1.16797 -25.4971 -3.50098s-24.5 -6.16602 -40.5 -11.499l-35 -85h-50v115c14.667 6 30.5 11.167 47.5 15.5s33.667 8 50 11s31.5 5.16699 45.5 6.5s25.333 2 34 2c52.667 0 95.167 -11.833 127.5 -35.5s48.5 -60.834 48.5 -111.501v-293l70 -15
v-35l-140 -30l-20 60c-26.667 -21.333 -52.834 -36.666 -78.501 -45.999s-48.167 -14 -67.5 -14c-23.333 0 -44.333 3.33301 -63 10s-34.5 16 -47.5 28s-23 26 -30 42s-10.5 33.667 -10.5 53c0 18 4.16699 36.333 12.5 55s23.666 35.5 45.999 50.5s52.666 27.333 90.999 37
s87.5 14.5 147.5 14.5v71c0 40 -9.16699 68.167 -27.5 84.5s-46.5 24.5 -84.5 24.5zM332.003 234.999c-38.667 0 -71.167 -2.66797 -97.5 -8.00098s-47.5 -12.833 -63.5 -22.5s-27.333 -21.5 -34 -35.5s-10 -29.333 -10 -46s3.66699 -30.167 11 -40.5
s15.833 -18.166 25.5 -23.499s19.5 -9 29.5 -11s17.667 -3 23 -3c19.333 0 39.5 6 60.5 18s39.5 27.667 55.5 47v125z" />
    <glyph glyph-name="b" unicode="b" horiz-adv-x="552" 
d="M273 -10c-3.33301 0 -11.665 0.333984 -24.998 1.00098s-29.333 2.16699 -48 4.5s-38.5 5.83301 -59.5 10.5s-40.833 11 -59.5 19l4 625l-75 15v35l161 40v-283c20 13.333 41.5 25.5 64.5 36.5s45.5 16.5 67.5 16.5c42 0 77 -6.33301 105 -19s50.5 -29.5 67.5 -50.5
s29 -45.333 36 -73s10.5 -56.834 10.5 -87.501c0 -31.333 -4.16699 -64 -12.5 -98s-22.333 -65.167 -42 -93.5s-45.334 -51.833 -77.001 -70.5s-70.834 -28 -117.501 -28zM283.001 450.001c-20 0 -39.332 -3.16797 -57.999 -9.50098s-36.667 -14.166 -54 -23.499v-342
c19.333 -13.333 38 -22.5 56 -27.5s36.667 -7.5 56 -7.5c24 0 45.167 5.33301 63.5 16s33.666 25.5 45.999 44.5s21.5 41.167 27.5 66.5s9 52.666 9 81.999c0 28.667 -2.66699 55.334 -8 80.001s-13.666 46 -24.999 64s-26.333 32 -45 42s-41.334 15 -68.001 15z" />
    <glyph glyph-name="c" unicode="c" horiz-adv-x="480" 
d="M360 445c-12.667 6.66699 -26.5029 10.833 -41.5029 12.5s-25.167 2.5 -30.5 2.5c-18 0 -36 -4.5 -54 -13.5s-34.167 -22 -48.5 -39s-26 -37.833 -35 -62.5s-13.5 -52.334 -13.5 -83.001c0 -34 5.16699 -64.167 15.5 -90.5s23.833 -48.5 40.5 -66.5
s35.334 -31.667 56.001 -41s41.334 -14 62.001 -14c24.667 0 48 3.5 70 10.5s37.667 12.833 47 17.5l17 -31c-28 -19.333 -56.167 -33.333 -84.5 -42s-55.833 -13 -82.5 -13c-38 0 -71.667 6.5 -101 19.5s-53.666 31 -72.999 54s-34 50.5 -44 82.5s-15 66.667 -15 104
c0 34.667 6.5 67.667 19.5 99s30.833 58.833 53.5 82.5s49.5 42.334 80.5 56.001s64.167 20.5 99.5 20.5c10.667 0 22.5 -1 35.5 -3s26.333 -4.5 40 -7.5s26.667 -6.66699 39 -11s22.833 -8.83301 31.5 -13.5v-115h-50z" />
    <glyph glyph-name="d" unicode="d" horiz-adv-x="583" 
d="M280 50c24 0 46 5.16797 66 15.501s39 25.166 57 44.499v292c-18 23.333 -38 38.833 -60 46.5s-43 11.5 -63 11.5c-23.333 0 -43.833 -5.5 -61.5 -16.5s-32.5 -26 -44.5 -45s-21 -41.333 -27 -67s-9 -52.834 -9 -81.501c0 -29.333 2.5 -56.166 7.5 -80.499
s13.167 -45.333 24.5 -63s26 -31.5 44 -41.5s40 -15 66 -15zM403 50.001l-24 -17.002c-9.33301 -6.66699 -20.166 -13.167 -32.499 -19.5s-26.5 -11.833 -42.5 -16.5s-34 -7 -54 -7c-36 0 -66.833 6.16699 -92.5 18.5s-46.834 29 -63.501 50s-29 45.333 -37 73
s-12 57.167 -12 88.5c0 32.667 4.16699 66.167 12.5 100.5s22.5 65.5 42.5 93.5s46.333 51 79 69s73 27 121 27c4.66699 0 11.167 -0.666992 19.5 -2s17.333 -3.16602 27 -5.49902s19.5 -5.16602 29.5 -8.49902s19 -7.33301 27 -12v178l-70 15v35l158 30v-670l72 -15v-35
l-140 -30z" />
    <glyph glyph-name="e" unicode="e" horiz-adv-x="533" 
d="M111 308l280 0.00292969c0 48 -10.167 85.333 -30.5 112s-48.833 40 -85.5 40c-27.333 0 -49.833 -5.33301 -67.5 -16s-31.667 -24.5 -42 -41.5s-17.5 -36.333 -21.5 -58s-6 -43.167 -6 -64.5c0 -71.333 13 -127.5 39 -168.5s68.667 -61.5 128 -61.5
c30 0 58 4.16699 84 12.5s48.667 17.833 68 28.5l17 -31c-18.667 -14 -35.5 -25.5 -50.5 -34.5s-30 -16.167 -45 -21.5s-30.833 -9 -47.5 -11s-35.334 -3 -56.001 -3c-35.333 0 -67.166 6.16699 -95.499 18.5s-52.5 29.666 -72.5 51.999s-35.333 49 -46 80
s-16 65.167 -16 102.5c0 36 5.33301 70.167 16 102.5s26 60.666 46 84.999s44.167 43.666 72.5 57.999s60.166 21.5 95.499 21.5c65.333 0 116.333 -20.5 153 -61.5s54.334 -104.5 53.001 -190.5h-370v50z" />
    <glyph glyph-name="f" unicode="f" horiz-adv-x="357" 
d="M215 60l89.998 -25.001v-35h-248v35l70 25v390h-92v30l92 20v6c0 17.333 0.166992 34.5 0.5 51.5s1.83301 33.333 4.5 49s6.83398 30.5 12.501 44.5s13.834 26.667 24.501 38c38.667 40.667 91.667 61 159 61c13.333 0 27.166 -1.16699 41.499 -3.5
s30.166 -6.16602 47.499 -11.499v-117h-49l-33 82c-14 4.66699 -25 7 -33 7c-18 0 -32.667 -5.16699 -44 -15.5s-20.166 -22.833 -26.499 -37.5s-10.666 -30 -12.999 -46s-3.5 -30 -3.5 -42v-66h121v-50h-121v-390z" />
    <glyph glyph-name="g" unicode="g" horiz-adv-x="519" 
d="M24 -108c0 14.667 2.99805 28.832 8.99805 42.499s13.333 26.5 22 38.5s18.167 22.5 28.5 31.5s19.833 16.167 28.5 21.5l35 -20c-13.333 -15.333 -23 -29.5 -29 -42.5s-9.66699 -28.833 -11 -47.5c-0.666992 -12.667 1.83301 -25 7.5 -37s14.834 -22.5 27.501 -31.5
s29.167 -16.333 49.5 -22s44.833 -8.5 73.5 -8.5c10.667 0 24.334 1.16699 41.001 3.5s32.667 7 48 14s28.5 16.833 39.5 29.5s16.5 29 16.5 49c0 12 -2.16699 21.667 -6.5 29s-10 13.333 -17 18s-14.667 8.16699 -23 10.5s-16.5 4.16602 -24.5 5.49902
c-16.667 2.66699 -36.667 5 -60 7s-43 4 -59 6c-15.333 2 -30.666 4.33301 -45.999 7s-29.5 6.83398 -42.5 12.501s-23.5 13.5 -31.5 23.5s-12 23.333 -12 40c0 6.66699 2.66699 15.334 8 26.001s11.666 21.5 18.999 32.5l21.5 31.5c7 10 12.167 17.667 15.5 23l41 -14
c-3.33301 -9.33301 -6.5 -17.666 -9.5 -24.999s-5.83301 -14.666 -8.5 -21.999c-4 -12 -4.66699 -21.5 -2 -28.5s7.33398 -12.5 14.001 -16.5s14.667 -6.83301 24 -8.5s18.333 -2.83398 27 -3.50098l99 -10c20 -2 39.333 -5 58 -9s35.167 -10.5 49.5 -19.5
s25.833 -20.833 34.5 -35.5s13 -33.334 13 -56.001c0 -26 -6.5 -49.5 -19.5 -70.5s-30.333 -38.833 -52 -53.5s-46.834 -26 -75.501 -34s-59 -12 -91 -12c-29.333 0 -57.833 2.66699 -85.5 8s-52.167 13.166 -73.5 23.499s-38.5 23.333 -51.5 39s-19.5 33.834 -19.5 54.501z
M235.998 162.998c-25.333 0 -49.668 3.33203 -73.001 9.99902s-43.833 17 -61.5 31s-31.834 31.833 -42.501 53.5s-16 47.5 -16 77.5c0 24.667 4.5 47.667 13.5 69s21.833 39.833 38.5 55.5s36.834 28 60.501 37s50.5 13.5 80.5 13.5c2.66699 0 8.66699 -0.333008 18 -1
s20.5 -2.16699 33.5 -4.5s26.833 -5.5 41.5 -9.5s28.334 -9.33301 41.001 -16l148 30v-91l-125 39l-2 -5c14 -20.667 23.833 -40.167 29.5 -58.5s8.5 -39.833 8.5 -64.5c0 -26 -5.33301 -49.333 -16 -70s-25 -38.167 -43 -52.5s-38.667 -25.166 -62 -32.499
s-47.333 -11 -72 -11zM238.996 212.997c34 0 60.332 9.5 78.999 28.5s28 51.167 28 96.5c0 40 -11 71 -33 93s-49 33 -81 33c-34 0 -60.333 -11 -79 -33s-28 -53 -28 -93s10.833 -70.833 32.5 -92.5s48.834 -32.5 81.501 -32.5z" />
    <glyph glyph-name="h" unicode="h" horiz-adv-x="609" 
d="M193 450c36 19.333 67.498 34.168 94.498 44.501s49.833 15.5 68.5 15.5c30.667 0 56.5 -4.16699 77.5 -12.5s37.833 -20 50.5 -35s21.834 -32.667 27.501 -53s8.5 -42.5 8.5 -66.5v-283l69 -25v-35h-219v35l60 25v275c0 34 -8.66699 60 -26 78s-49.333 27 -96 27
c-16.667 0 -34.667 -2.33301 -54 -7s-39.666 -12.334 -60.999 -23.001v-350l60 -25v-35h-218v35l70 25v600l-70 15v35l158 30v-290z" />
    <glyph glyph-name="i" unicode="i" horiz-adv-x="289" 
d="M264 35v-35h-229v35l70 25v375l-70 15v35l160 30v-455zM204 720v-70l-20 -20h-70l-20 20v70l20 20h70z" />
    <glyph glyph-name="j" unicode="j" horiz-adv-x="305" 
d="M208 63c0 -16 -0.667969 -34.8311 -2.00098 -56.498s-6.16602 -44.334 -14.499 -68.001s-22 -47.5 -41 -71.5s-45.833 -46 -80.5 -66l-30 30c20 20 35.5 40.5 46.5 61.5s19 42.167 24 63.5s7.83301 42.666 8.5 63.999s1 43 1 65v350l-70 15v35l158 30v-452z
M213.999 720.002v-70l-20 -20h-70l-20 20v70l20 20h70z" />
    <glyph glyph-name="k" unicode="k" horiz-adv-x="581" 
d="M35 0v35l70 25v600l-70 15v35l158 30v-447h96l103 147l-70 25v35h208v-35l-70 -25l-120 -170l166 -210l70 -25v-35h-132l-195 243h-56v-183l70 -25v-35h-228z" />
    <glyph glyph-name="l" unicode="l" horiz-adv-x="283" 
d="M263 35v-35h-228v35l70 25v600l-70 15v35l158 30v-680z" />
    <glyph glyph-name="m" unicode="m" horiz-adv-x="919" 
d="M101 435l-71.0039 15.001v35l149 30l10 -65c36.667 20.667 67.834 35.834 93.501 45.501s46.5 14.5 62.5 14.5c38 0 68.833 -6.16699 92.5 -18.5s41.167 -28.833 52.5 -49.5c36.667 24.667 70.334 42.167 101.001 52.5s55.667 15.5 75 15.5
c30.667 0 56.5 -4.16699 77.5 -12.5s37.833 -20 50.5 -35s21.667 -32.667 27 -53s8 -42.5 8 -66.5v-283l70 -25v-35h-229v35l70 25v275c0 34 -8.66699 60 -26 78s-49.333 27 -96 27c-14 0 -29.667 -2.33301 -47 -7s-37.666 -12.334 -60.999 -23.001v-350l70 -25v-35h-231v35
l70 25v275c0 34 -8.66699 60 -26 78s-49.333 27 -96 27c-14 0 -29.667 -2.33301 -47 -7s-37.666 -12.334 -60.999 -23.001v-350l69 -25v-35h-228v35l71 25v375z" />
    <glyph glyph-name="n" unicode="n" horiz-adv-x="608" 
d="M30 450l-0.00390625 35.001l148 30l10 -65c36.667 19.333 68.834 34.166 96.501 44.499s50.834 15.5 69.501 15.5c30.667 0 56.5 -4.16699 77.5 -12.5s37.833 -20 50.5 -35s21.834 -32.667 27.501 -53s8.5 -42.5 8.5 -66.5v-283l70 -25v-35h-230v35l70 25v275
c0 34 -8.66699 60.167 -26 78.5s-49.333 27.5 -96 27.5c-35.333 0 -74.666 -10.333 -117.999 -31v-350l70 -25v-35h-228v35l70 25v375z" />
    <glyph glyph-name="o" unicode="o" horiz-adv-x="580" 
d="M290 -10c-40.667 0 -76.334 7.83301 -107.001 23.5s-56.167 35.834 -76.5 60.501s-35.666 52.5 -45.999 83.5s-15.5 61.833 -15.5 92.5s5.16699 61.334 15.5 92.001s25.666 58.5 45.999 83.5s45.833 45.333 76.5 61s66.334 23.5 107.001 23.5
s76.334 -7.83301 107.001 -23.5s56.167 -36 76.5 -61s35.666 -52.833 45.999 -83.5s15.5 -61.334 15.5 -92.001s-5.16699 -61.5 -15.5 -92.5s-25.666 -58.833 -45.999 -83.5s-45.833 -44.834 -76.5 -60.501s-66.334 -23.5 -107.001 -23.5zM290 40c26 0 48.167 5.5 66.5 16.5
s33.333 26 45 45s20.167 41.167 25.5 66.5s8 52.666 8 81.999c0 28.667 -2.66699 55.834 -8 81.501s-13.833 48 -25.5 67s-26.667 34 -45 45s-40.5 16.5 -66.5 16.5s-48.167 -5.5 -66.5 -16.5s-33.333 -26 -45 -45s-20.167 -41.333 -25.5 -67s-8 -52.834 -8 -81.501
c0 -29.333 2.66699 -56.666 8 -81.999s13.833 -47.5 25.5 -66.5s26.667 -34 45 -45s40.5 -16.5 66.5 -16.5z" />
    <glyph glyph-name="p" unicode="p" horiz-adv-x="580" 
d="M189 88c12 -10.667 24.334 -19.168 37.001 -25.501s24.667 -11.166 36 -14.499s21.333 -5.5 30 -6.5s15 -1.5 19 -1.5c25.333 0 47.166 5.33301 65.499 16s33.5 25.5 45.5 44.5s20.833 41.167 26.5 66.5s8.5 52.666 8.5 81.999c0 28.667 -2.66699 55.334 -8 80.001
s-13.666 46 -24.999 64s-26.333 32 -45 42s-41.334 15 -68.001 15c-20 0 -41 -3.66699 -63 -11s-41.667 -15 -59 -23v-328zM190.001 455.999c22.667 14 46.167 26.502 70.5 37.502s47.833 16.5 70.5 16.5c42 0 77 -6.33301 105 -19s50.5 -29.5 67.5 -50.5s29 -45.333 36 -73
s10.5 -56.834 10.5 -87.501c0 -33.333 -3.66699 -67.166 -11 -101.499s-20.5 -65.5 -39.5 -93.5s-44.5 -50.833 -76.5 -68.5s-72.667 -26.5 -122 -26.5c-6.66699 0 -13.334 0.166992 -20.001 0.5s-14.167 1.16602 -22.5 2.49902s-18.166 3.16602 -29.499 5.49902
s-25 5.5 -41 9.5v-198l70 -25v-35h-228v35l70 25v625l-70 14v36l150 30z" />
    <glyph glyph-name="q" unicode="q" horiz-adv-x="571" 
d="M280 50c24 0 45.168 3.33203 63.501 9.99902s38.166 18.334 59.499 35.001v310c-10 12 -20.667 21.5 -32 28.5s-22.5 12.5 -33.5 16.5s-21.333 6.66699 -31 8s-18.5 2 -26.5 2c-23.333 0 -43.833 -5.5 -61.5 -16.5s-32.5 -26 -44.5 -45s-21 -41.333 -27 -67
s-9 -52.834 -9 -81.501c0 -29.333 2.5 -56.166 7.5 -80.499s13.167 -45.333 24.5 -63s26 -31.5 44 -41.5s40 -15 66 -15zM250.001 -10.001c-36 0 -66.834 6.16699 -92.501 18.5s-46.834 29 -63.501 50s-29 45.333 -37 73s-12 57.167 -12 88.5
c0 32.667 4.16699 66.167 12.5 100.5s22.5 65.5 42.5 93.5s46.333 51 79 69s73 27 121 27c20.667 0 39.5 -1.16699 56.5 -3.5s32.833 -5.5 47.5 -9.5s29 -9.16699 43 -15.5s28.667 -13.5 44 -21.5v-650l70 -25v-35h-228v35l70 25v240c-16 -13.333 -30.833 -24 -44.5 -32
s-26.667 -14 -39 -18s-24.166 -6.66699 -35.499 -8s-22.666 -2 -33.999 -2z" />
    <glyph glyph-name="r" unicode="r" horiz-adv-x="433" 
d="M35 450l-0.000976562 35l149 30l9 -144l16 34c7.33301 15.333 17.333 30.833 30 46.5s28.5 29.334 47.5 41.001s41.5 17.5 67.5 17.5c8.66699 0 18.167 -1.83301 28.5 -5.5s20.5 -10.167 30.5 -19.5v-123h-49l-32 73h-19c-13.333 0 -26.166 -4.83301 -38.499 -14.5
s-24 -21.334 -35 -35.001s-20.5 -27.5 -28.5 -41.5s-14 -25.333 -18 -34v-250l90 -25v-35h-248v35l70 25v375z" />
    <glyph glyph-name="s" unicode="s" horiz-adv-x="447" 
d="M225 460c-11.333 0 -22.002 -1.99609 -32.002 -5.99609s-18.667 -9.5 -26 -16.5s-13.166 -14.833 -17.499 -23.5s-6.5 -17.334 -6.5 -26.001c0 -6 1.33301 -13 4 -21s8.16699 -16.333 16.5 -25s20.333 -17.334 36 -26.001s36.5 -17 62.5 -25
c30 -13.333 54.167 -27.166 72.5 -41.499s32.5 -28.333 42.5 -42s16.667 -26.5 20 -38.5s5 -21.667 5 -29c0 -19.333 -3.5 -38 -10.5 -56s-17.333 -34 -31 -48s-30.834 -25.167 -51.501 -33.5s-45 -12.5 -73 -12.5c-34.667 0 -68.334 4.66699 -101.001 14
s-61 19.666 -85 30.999v116h50l35 -86l26 -10.5c7.33301 -3 14.833 -5.5 22.5 -7.5s15.5 -3.66699 23.5 -5s17.667 -2 29 -2c22.667 0 41.167 7.33301 55.5 22s21.5 33.667 21.5 57c0 17.333 -9 34.833 -27 52.5s-43 32.5 -75 44.5c-29.333 10.667 -53.666 22 -72.999 34
s-34.833 24 -46.5 36s-20 24.167 -25 36.5s-7.5 24.166 -7.5 35.499c0 22.667 4.33301 43.334 13 62.001s20.5 34.667 35.5 48s32.5 23.666 52.5 30.999s41.667 11 65 11c4.66699 0 11.834 -0.333008 21.501 -1s20.834 -2.33398 33.501 -5.00098
s26.334 -6.33398 41.001 -11.001s29.334 -11 44.001 -19v-114h-51l-34 85c-5.33301 2 -10 3.83301 -14 5.5l-11.5 5c-3.66699 1.66699 -7.83398 2.83398 -12.501 3.50098s-10.334 1 -17.001 1z" />
    <glyph glyph-name="t" unicode="t" horiz-adv-x="366" 
d="M345 450h-160v-313c0.666992 -13.333 1.5 -25.666 2.5 -36.999s3.5 -21.166 7.5 -29.499s10.5 -14.833 19.5 -19.5s21.833 -7 38.5 -7c19.333 0 36 3.16699 50 9.5s24 11.166 30 14.499l18 -31c-6 -4 -12.667 -8.83301 -20 -14.5s-16 -10.834 -26 -15.501
s-21.667 -8.66699 -35 -12s-29 -5 -47 -5c-38 0 -68.833 9.66699 -92.5 29s-35.5 47 -35.5 83v348h-70v30l70 20v1l40 124h50v-125h160v-50z" />
    <glyph glyph-name="u" unicode="u" horiz-adv-x="602" 
d="M302 45c6.66699 0 14.999 1.33301 24.999 4s20.333 6.66699 31 12s21.167 12 31.5 20s19.5 17.667 27.5 29v325l-70 15v35l158 30v-445l72 -15v-35l-140 -30l-20 60c-16 -13.333 -31 -24 -45 -32s-27.5 -14 -40.5 -18s-25.833 -6.66699 -38.5 -8s-25.667 -2 -39 -2
c-20.667 0 -41.167 3 -61.5 9s-38.5 14.667 -54.5 26s-29 25.5 -39 42.5s-15 36.5 -15 58.5v309l-69 15v35l158 30v-351c0 -34 9.83301 -62.333 29.5 -85s52.834 -34 99.501 -34z" />
    <glyph glyph-name="v" unicode="v" horiz-adv-x="559" 
d="M67 440l-70 25v35h229v-35l-70 -25l141 -327h5l134 327l-70 25v35h198v-35l-70 -25l-189 -457h-40z" />
    <glyph glyph-name="w" unicode="w" horiz-adv-x="788" 
d="M551 -15h-30l-132 339l-117 -339h-30l-182 455l-70 25v35h235v-35l-70 -25l114 -303l121 363h30l139 -369l114 309l-70 25v35h190v-35l-70 -25z" />
    <glyph glyph-name="x" unicode="x" horiz-adv-x="571" 
d="M556 35v-35h-240v35l70 25l-121 152l-109 -152l70 -24v-36h-207v36l70 24l143 193l-147 187l-70 25v35h231v-35l-60 -25l105 -140l100 140l-70 25v35h206v-35l-70 -25l-135 -179l164 -201z" />
    <glyph glyph-name="y" unicode="y" horiz-adv-x="539" 
d="M198 -270l-94 49l137 211v10l-181 440l-70 25v35h237v-35l-70 -25l114 -297v-49l6 1l131 345l-70 25v35h199v-35l-70 -25z" />
    <glyph glyph-name="z" unicode="z" horiz-adv-x="544" 
d="M50 38l316 412h-216l-36 -86h-50l15 136h396l10 -31l-320 -419h238l41 86h45l-15 -136h-414z" />
    <glyph glyph-name="braceleft" unicode="{" horiz-adv-x="365" 
d="M305 -222c-43.333 0 -75.668 6.66406 -97.001 19.9971s-36.333 32.5 -45 57.5s-13 55.333 -13 91v119.5c0 23.333 -0.833008 45.833 -2.5 67.5s-5.83398 41.167 -12.501 58.5s-16.667 31.833 -30 43.5s-31.666 19.167 -54.999 22.5v26c24 2 42.5 7.83301 55.5 17.5
s22.667 21.5 29 35.5s10.333 29.5 12 46.5s2.83398 33.5 3.50098 49.5v55.5c0 14.333 -0.166992 26 -0.5 35s-0.5 16.333 -0.5 22v15.5c0 22 1.5 43.833 4.5 65.5s9.66699 41.334 20 59.001s25.833 31.834 46.5 42.501s49 16 85 16l10 -23c-13.333 -2 -26 -5.66699 -38 -11
s-22.5 -14.5 -31.5 -27.5s-16.333 -30.833 -22 -53.5s-8.5 -52.334 -8.5 -89.001v-161c0 -12 -0.833008 -23.333 -2.5 -34s-5.33398 -20.5 -11.001 -29.5s-13.834 -17.333 -24.501 -25s-25 -14.167 -43 -19.5c18 -7.33301 32.333 -15.666 43 -24.999
s18.834 -19.666 24.501 -30.999s9.16699 -23.333 10.5 -36s2 -25.667 2 -39v-155c0 -38 3.16699 -68.5 9.5 -91.5s14.333 -41 24 -54s20.334 -22 32.001 -27s23.167 -8.83301 34.5 -11.5z" />
    <glyph glyph-name="bar" unicode="|" horiz-adv-x="266" 
d="M110 -246v1010h46v-1010h-46z" />
    <glyph glyph-name="braceright" unicode="}" horiz-adv-x="365" 
d="M51 -199c10.667 2.66699 21.8311 6.50391 33.498 11.5039s22.334 14 32.001 27s17.667 31 24 54s9.5 53.5 9.5 91.5v155c0 13.333 0.833008 26.333 2.5 39s5.16699 24.667 10.5 36s13.5 21.666 24.5 30.999s25.5 17.666 43.5 24.999c-18 5.33301 -32.5 11.833 -43.5 19.5
s-19.167 16 -24.5 25s-8.83301 18.833 -10.5 29.5s-2.5 22 -2.5 34v161c0 36.667 -2.83301 66.334 -8.5 89.001s-13 40.5 -22 53.5s-19.667 22.167 -32 27.5s-24.833 9 -37.5 11l10 23c36 0 64.167 -5.33301 84.5 -16s35.833 -24.834 46.5 -42.501
s17.334 -37.334 20.001 -59.001s4 -43.5 4 -65.5v-128c0.666992 -16 1.83398 -32.5 3.50098 -49.5s5.66699 -32.5 12 -46.5s16 -25.833 29 -35.5s31.5 -15.5 55.5 -17.5v-26c-28 -4 -49 -14.167 -63 -30.5s-23.833 -36.166 -29.5 -59.499s-8.33398 -49.333 -8.00098 -78
s0.5 -57.334 0.5 -86.001c0 -35.333 -1 -66.833 -3 -94.5s-7.83301 -51.334 -17.5 -71.001s-25 -34.667 -46 -45s-50.5 -15.5 -88.5 -15.5z" />
    <glyph glyph-name="asciitilde" unicode="~" horiz-adv-x="623" 
d="M603 327l-21.502 -59.002c-7 -18.667 -15.667 -35.167 -26 -49.5s-23.166 -25.833 -38.499 -34.5s-34.666 -13 -57.999 -13c-8 0 -16.333 0.666992 -25 2s-19 3.83301 -31 7.5s-26.167 8.33398 -42.5 14.001s-35.833 12.834 -58.5 21.501l-58 21.5
c-15.333 5.66699 -27.833 10 -37.5 13s-17.667 5.16699 -24 6.5s-12.166 2 -17.499 2c-19.333 0 -36.166 -8.5 -50.499 -25.5s-28.833 -42.5 -43.5 -76.5l-51 21l23.5 55c8.33301 18.667 18.166 35.5 29.499 50.5s24.5 27.333 39.5 37s32.833 14.5 53.5 14.5
c21.333 0 42.333 -3.5 63 -10.5s40.667 -14.167 60 -21.5l77.5 -30c19.667 -7.33301 35.334 -13 47.001 -17s20.667 -6.5 27 -7.5s12.5 -1.5 18.5 -1.5c19.333 0 35.666 8.16699 48.999 24.5s28.666 42.5 45.999 78.5z" />
    <glyph glyph-name="uni00A0" unicode="&#xa0;" horiz-adv-x="260" 
 />
    <glyph glyph-name="exclamdown" unicode="&#xa1;" horiz-adv-x="255" 
d="M151 680v-70l-25 -20h-65l-20 20v70l20 20h70z" />
    <glyph glyph-name="cent" unicode="&#xa2;" horiz-adv-x="460" 
d="M275 487v113h66v-113h-66zM245 -101v113h66v-113h-66zM362 450c-6.66699 3.33301 -13.833 6.16895 -21.5 8.50195s-15 4 -22 5s-13.333 1.66699 -19 2s-9.83398 0.5 -12.501 0.5c-18.667 0 -37.167 -4.66699 -55.5 -14s-35 -22.833 -50 -40.5
s-27.167 -39.167 -36.5 -64.5s-14 -54 -14 -86c0 -35.333 5.33301 -66.666 16 -93.999s24.5 -50.166 41.5 -68.499s36.333 -32.333 58 -42s43.167 -14.5 64.5 -14.5c12.667 0 25.167 1 37.5 3s23.833 4.5 34.5 7.5s20.167 6.16699 28.5 9.5s15.166 6.33301 20.499 9l18 -32
c-29.333 -20.667 -58.5 -35.334 -87.5 -44.001s-57.5 -13 -85.5 -13c-40 0 -75 6.66699 -105 20s-55 32 -75 56s-35.167 52.5 -45.5 85.5s-15.5 68.833 -15.5 107.5c0 36 6.66699 70.167 20 102.5s31.833 60.666 55.5 84.999s51.334 43.666 83.001 57.999
s65.834 21.5 102.501 21.5c10.667 0 23 -1 37 -3s28 -4.66699 42 -8s27.333 -7.33301 40 -12s23.667 -9.33398 33 -14.001v-119h-52z" />
    <glyph glyph-name="sterling" unicode="&#xa3;" horiz-adv-x="510" 
d="M115 383l-0.000976562 162c0 49.333 16.333 89.166 49 119.499s80.334 45.5 143.001 45.5c25.333 0 52.333 -2.16699 81 -6.5s54 -10.833 76 -19.5l-28 -127h-45l-15 93c-11.333 3.33301 -23.166 5.83301 -35.499 7.5s-24.166 2.5 -35.499 2.5
c-16 0 -30.333 -3.16699 -43 -9.5s-23.334 -14.833 -32.001 -25.5s-15.334 -22.834 -20.001 -36.501s-7 -27.834 -7 -42.501v-163h184v-50h-182v-16v-27v-27v-16c0 -15.333 -0.166992 -31.666 -0.5 -48.999s-2.33301 -34.666 -6 -51.999s-9.16699 -34.166 -16.5 -50.499
s-18 -31.5 -32 -45.5h249l25 101h46v-151h-450v35l77 37c12 24 18.333 50.667 19 80s1 61 1 95v86h-68v50h66z" />
    <glyph glyph-name="currency" unicode="&#xa4;" horiz-adv-x="599" 
d="M214 539c34 22.667 73.332 33.998 117.999 33.998c22 0 42.667 -2.66699 62 -8s37 -12.666 53 -21.999l59 72l46 -33l-61 -75c30 -35.333 45 -81 45 -137c0 -31.333 -4.16699 -59.5 -12.5 -84.5s-20.166 -46.5 -35.499 -64.5l66 -80l-46 -33l-63 76
c-31.333 -20 -69 -30 -113 -30c-47.333 0 -87 10 -119 30l-62 -76l-46 33l66 81c-28.667 36.667 -43 86 -43 148c0 26.667 3.83301 50.834 11.5 72.501s18.5 41.167 32.5 58.5l-65 81l46 33zM202.999 368.998c0 -23.333 3.16797 -45.167 9.50098 -65.5
s15.166 -37.833 26.499 -52.5s24.833 -26.167 40.5 -34.5s33.167 -12.5 52.5 -12.5c41.333 0 73 15.5 95 46.5s33 70.5 33 118.5c0 20.667 -3.16699 40.334 -9.5 59.001s-15 35 -26 49s-24.5 25.167 -40.5 33.5s-33.333 12.5 -52 12.5c-20.667 0 -39 -4 -55 -12
s-29.5 -18.833 -40.5 -32.5s-19.333 -29.834 -25 -48.501s-8.5 -39 -8.5 -61z" />
    <glyph glyph-name="yen" unicode="&#xa5;" horiz-adv-x="588" 
d="M100 326v71h219l33 -53l25 53h163v-71h-440zM100 171v71h440v-71h-440zM352 346l145 294l-70 25v35h196v-35l-70 -25l-172 -347v-233l70 -25v-35h-239v35l70 25v226l-222 354l-70 25v35h249v-35l-70 -25z" />
    <glyph glyph-name="brokenbar" unicode="&#xa6;" horiz-adv-x="228" 
d="M148 334h-68v336h68v-336zM148 -174h-68v365h68v-365z" />
    <glyph glyph-name="section" unicode="&#xa7;" horiz-adv-x="546" 
d="M127 444l-12.5 45.5029c-4.33301 16.333 -6.5 35.166 -6.5 56.499c0 23.333 5 45 15 65s23.5 37.333 40.5 52s36.333 26.167 58 34.5s44.167 12.5 67.5 12.5h18.5c9.66699 0 21 -1 34 -3s26.333 -5.33301 40 -10s26.167 -11.667 37.5 -21v-1h1v-105h-1v-1h-47l-35 86
c-10 2.66699 -18.5 4.33398 -25.5 5.00098s-14.5 0.666992 -22.5 0c-29.333 -2 -52.166 -9.83301 -68.499 -23.5s-24.5 -34.167 -24.5 -61.5c0 -26 6.66699 -47.5 20 -64.5s30 -32.5 50 -46.5s41.667 -27.833 65 -41.5s45 -29.5 65 -47.5s36.667 -39.667 50 -65
s20 -57 20 -95c0 -28.667 -6.5 -52.834 -19.5 -72.501s-31.833 -39.5 -56.5 -59.5c11.333 -16 22.166 -34.333 32.499 -55s15.5 -41.667 15.5 -63c0 -18 -4.5 -36.833 -13.5 -56.5s-21.667 -37.5 -38 -53.5s-35.833 -29.167 -58.5 -39.5s-47.667 -15.5 -75 -15.5
c-10.667 0 -20.5 0.5 -29.5 1.5s-18.333 2.66699 -28 5s-19.834 5.83301 -30.501 10.5s-23 10.667 -37 18v1h-1v105h1v1h46l35 -86c12 -3.33301 21 -5.33301 27 -6s13 -0.666992 21 0c12.667 0.666992 24.5 3 35.5 7s20.833 9.5 29.5 16.5s15.5 15.667 20.5 26
s7.5 22.5 7.5 36.5c0 25.333 -6.66699 46.666 -20 63.999s-30 33 -50 47s-41.667 27.833 -65 41.5s-45 29.5 -65 47.5s-36.667 39.667 -50 65s-20 57 -20 95c0 14 1.33301 27.167 4 39.5s6.33398 24.166 11.001 35.499l15 35zM150 315.003
c0 -28 6.83398 -49.833 20.501 -65.5s30.5 -29.167 50.5 -40.5s41.667 -22.833 65 -34.5s44.666 -27.5 63.999 -47.5c10.667 8 21 18.833 31 32.5s15 29.167 15 46.5c0 25.333 -8 45.333 -24 60s-35.5 27.667 -58.5 39l-73 34.5c-25.667 11.667 -48.5 27.5 -68.5 47.5
c-4 -14.667 -8.66699 -27.167 -14 -37.5s-8 -21.833 -8 -34.5z" />
    <glyph glyph-name="dieresis" unicode="&#xa8;" horiz-adv-x="365" 
d="M110 680v-70l-20 -20h-70l-20 20v70l20 20h70zM294 680v-70l-20 -20h-70l-20 20v70l20 20h70z" />
    <glyph glyph-name="copyright" unicode="&#xa9;" horiz-adv-x="847" 
d="M807 371c0 -54 -9.83203 -104.83 -29.499 -152.497s-46.5 -89.5 -80.5 -125.5s-74.333 -64.5 -121 -85.5s-97 -31.5 -151 -31.5s-104.5 10.167 -151.5 30.5s-87.667 48.166 -122 83.499s-61.5 76.833 -81.5 124.5s-30 98.5 -30 152.5c0 54.667 10 105.667 30 153
s47.5 88.666 82.5 123.999s76.167 63.166 123.5 83.499s98.333 30.5 153 30.5s105.167 -10 151.5 -30s86.166 -47.5 119.499 -82.5s59.5 -76 78.5 -123s28.5 -97.5 28.5 -151.5zM743.001 371.003c0 46 -7.66406 89.1699 -22.9971 129.503s-36.833 75.5 -64.5 105.5
s-60.667 53.833 -99 71.5s-80.833 26.5 -127.5 26.5s-89.834 -8.83301 -129.501 -26.5s-73.834 -41.834 -102.501 -72.501s-51.167 -66.334 -67.5 -107.001s-24.5 -84.334 -24.5 -131.001c0 -46 8 -89.5 24 -130.5s38.167 -76.833 66.5 -107.5s62.166 -55 101.499 -73
s82 -27 128 -27s88.5 9.16699 127.5 27.5s72.667 43 101 74s50.333 67.167 66 108.5s23.5 85.333 23.5 132zM533.004 461.006l41.001 0.00292969v93c-7.33301 4 -16 7.83301 -26 11.5s-20.5 6.66699 -31.5 9s-21.833 4.33301 -32.5 6s-20.334 2.5 -29.001 2.5
c-28.667 0 -55.5 -5.66699 -80.5 -17s-46.667 -26.5 -65 -45.5s-32.833 -41.167 -43.5 -66.5s-16 -52 -16 -80c0 -30.667 4 -58.834 12 -84.501s20 -47.834 36 -66.501s35.667 -33.334 59 -44.001s50.666 -16 81.999 -16c21.333 0 43.5 3.33301 66.5 10s46.167 18 69.5 34
l-14 25c-8 -3.33301 -21 -7.83301 -39 -13.5s-36.667 -8.5 -56 -8.5c-17.333 0 -34.333 3.83301 -51 11.5s-31.834 18.667 -45.501 33s-24.667 32.166 -33 53.499s-12.5 46 -12.5 74c0 24.667 3.66699 47 11 67s16.833 36.833 28.5 50.5s24.834 24.167 39.501 31.5
s29.334 11 44.001 11c4.66699 0 13 -0.666992 25 -2s23 -4.66602 33 -9.99902z" />
    <glyph glyph-name="ordfeminine" unicode="&#xaa;" horiz-adv-x="356" 
d="M24 300h280v-51h-280v51zM123 658c-8.66699 0 -22.666 -3.33203 -41.999 -9.99902l-22 -54h-32v73c18.667 8 39.167 13.833 61.5 17.5s39.166 5.5 50.499 5.5c34 0 61.167 -7.66699 81.5 -23s30.5 -39 30.5 -71v-186l44 -9v-22l-89 -19l-12 38
c-17.333 -14 -34 -23.833 -50 -29.5s-30.333 -8.5 -43 -8.5c-30 0 -53.5 8 -70.5 24s-25.5 36 -25.5 60c0 11.333 2.66699 23 8 35s15 22.833 29 32.5s33.333 17.5 58 23.5s56 9 94 9v45c0 25.333 -5.83301 43.166 -17.5 53.499s-29.5 15.5 -53.5 15.5zM194.001 515.001
c-49.333 0 -83.332 -6.5 -101.999 -19.5s-28 -30.167 -28 -51.5c0 -10.667 2.33301 -19.167 7 -25.5s10 -11.333 16 -15s12.167 -6 18.5 -7s11.166 -1.5 14.499 -1.5c12.667 0 25.5 3.66699 38.5 11s24.833 17.333 35.5 30v79z" />
    <glyph glyph-name="guillemotleft" unicode="&#xab;" horiz-adv-x="404" 
d="M313 56l-119 202l119 201l31 -20l-60 -181l60 -182zM174 56l-119 202l119 201l31 -20l-58 -181l58 -182z" />
    <glyph glyph-name="logicalnot" unicode="&#xac;" horiz-adv-x="568" 
d="M452 148v129h-412v77h468v-206h-56z" />
    <glyph glyph-name="uni00AD" unicode="&#xad;" horiz-adv-x="401" 
d="M40 230v70h300v-70h-300z" />
    <glyph glyph-name="registered" unicode="&#xae;" horiz-adv-x="512" 
d="M472 532c0 -30.667 -5.50391 -59.502 -16.5039 -86.502s-26.167 -50.5 -45.5 -70.5s-42.166 -35.833 -68.499 -47.5s-54.833 -17.5 -85.5 -17.5c-30 0 -58.167 5.66699 -84.5 17s-49.333 27 -69 47s-35 43.333 -46 70s-16.5 55.334 -16.5 86.001
s5.66699 59.334 17 86.001s26.833 50 46.5 70s42.834 35.667 69.501 47s55.334 17 86.001 17s59.167 -5.66699 85.5 -17s48.833 -26.833 67.5 -46.5s33.334 -42.667 44.001 -69s16 -54.833 16 -85.5zM435.996 531.998c0 26 -4.33301 50.333 -13 73s-20.667 42.5 -36 59.5
s-34 30.333 -56 40s-46 14.5 -72 14.5c-26.667 0 -51.167 -5 -73.5 -15s-41.5 -23.5 -57.5 -40.5s-28.5 -37 -37.5 -60s-13.5 -47.5 -13.5 -73.5s4.5 -50.667 13.5 -74s21.5 -43.5 37.5 -60.5s35 -30.5 57 -40.5s45.667 -15 71 -15c26.667 0 51 5 73 15s41 23.833 57 41.5
s28.333 38.167 37 61.5s13 48 13 74zM254.996 427.998v-12h-92v12l29 8v193l-29 8v12h100c10 0 19.5 -1.16699 28.5 -3.5s16.833 -6.16602 23.5 -11.499s11.834 -11.833 15.501 -19.5s5.5 -16.834 5.5 -27.501c0 -8 -1.16699 -15.167 -3.5 -21.5s-5.5 -12 -9.5 -17
s-8.83301 -9.16699 -14.5 -12.5s-11.834 -6 -18.501 -8l52 -92l30 -8v-12h-56l-61 106h-3h-3c-4 0 -8 0.166992 -12 0.5s-7.66699 0.833008 -11 1.5v-88zM302.996 586.998c0 7.33301 -1.33301 13.832 -4 19.499s-6.16699 10.334 -10.5 14.001s-9.33301 6.5 -15 8.5
s-11.167 3 -16.5 3h-31v-93c8 -0.666992 16.5 -0.833984 25.5 -0.500977s17.333 2.33301 25 6s14 8.83398 19 15.501s7.5 15.667 7.5 27z" />
    <glyph glyph-name="macron" unicode="&#xaf;" horiz-adv-x="419" 
d="M79 665v65h259v-65h-259z" />
    <glyph glyph-name="degree" unicode="&#xb0;" horiz-adv-x="435" 
d="M355 595c0 -20 -3.83301 -38.833 -11.5 -56.5s-18.167 -33 -31.5 -46s-29 -23.333 -47 -31s-37.333 -11.5 -58 -11.5c-20 0 -39 3.83301 -57 11.5s-33.667 18 -47 31s-23.833 28.333 -31.5 46s-11.5 36.5 -11.5 56.5s3.83301 38.667 11.5 56s18.167 32.5 31.5 45.5
s29 23.333 47 31s37 11.5 57 11.5c20.667 0 40 -3.83301 58 -11.5s33.667 -18 47 -31s23.833 -28.167 31.5 -45.5s11.5 -36 11.5 -56zM311 595c0 14 -2.66504 27.167 -7.99805 39.5s-12.666 23 -21.999 32s-20.333 16.167 -33 21.5s-26.334 8 -41.001 8
c-29.333 0 -53.833 -9.66699 -73.5 -29s-29.5 -43.333 -29.5 -72c0 -14 2.66699 -27.167 8 -39.5s12.666 -23.166 21.999 -32.499s20.166 -16.666 32.499 -21.999s25.833 -8 40.5 -8s28.334 2.66699 41.001 8s23.667 12.666 33 21.999s16.666 20.166 21.999 32.499
s8 25.5 8 39.5z" />
    <glyph glyph-name="plusminus" unicode="&#xb1;" horiz-adv-x="588" 
d="M332 384v-231h-78v231h-224v75h224v209h78v-209h224v-75h-224zM30 0v70h528v-70h-528z" />
    <glyph glyph-name="acute" unicode="&#xb4;" horiz-adv-x="255" 
d="M69 570l-44 20l90 160l120 -30z" />
    <glyph glyph-name="mu" unicode="&#xb5;" horiz-adv-x="589" 
d="M98 81l56.9961 -330.997h-102l2 750h87c0 -40 0.166992 -83.333 0.5 -130s0.166016 -90.667 -0.500977 -132c-1.33301 -120.667 37.667 -181 117 -181c14 0 27.333 2.5 40 7.5s24.334 11.667 35.001 20s20.167 17.666 28.5 27.999s14.833 20.833 19.5 31.5v356h83v-266
c0 -65.333 3.33301 -115 10 -149s19.334 -51 38.001 -51c6.66699 0 14.667 1 24 3s16.666 3.33301 21.999 4v-27c-3.33301 -2.66699 -8.16602 -5.83398 -14.499 -9.50098s-13 -7 -20 -10s-14.167 -5.66699 -21.5 -8s-14 -3.5 -20 -3.5c-27.333 0 -48 9 -62 27s-24 42 -30 72
h-5c-9.33301 -14 -18.666 -27 -27.999 -39s-19.666 -22.5 -30.999 -31.5s-23.833 -16 -37.5 -21s-29.5 -7.5 -47.5 -7.5c-15.333 0 -30.166 1.83301 -44.499 5.5s-27.5 9.5 -39.5 17.5s-22.667 18.167 -32 30.5s-16.333 27.166 -21 44.499h-7z" />
    <glyph glyph-name="paragraph" unicode="&#xb6;" horiz-adv-x="632" 
d="M498 -175h-53v827h-111v-827h-53v504h-9c-34.667 0 -66.5 3.66699 -95.5 11s-54 18.5 -75 33.5s-37.333 34.167 -49 57.5s-17.5 51 -17.5 83s5.66699 60 17 84s27.333 43.667 48 59s45.5 26.833 74.5 34.5s61.5 11.5 97.5 11.5h315v-40l-89 -25v-813z" />
    <glyph glyph-name="periodcentered" unicode="&#xb7;" horiz-adv-x="320" 
d="M141 325c20.667 0 37.334 -6 50.001 -18s19 -28.667 19 -50c0 -23.333 -6.33301 -41.333 -19 -54s-29.334 -19 -50.001 -19c-47.333 0 -71 24.333 -71 73c0 20.667 6.5 37.167 19.5 49.5s30.167 18.5 51.5 18.5z" />
    <glyph glyph-name="cedilla" unicode="&#xb8;" horiz-adv-x="419" 
d="M214 13l35 -0.000976562l-14 -72c15.333 -3.33301 29.666 -11 42.999 -23s20 -27.667 20 -47c0 -14 -3.5 -26.667 -10.5 -38s-16.167 -21.5 -27.5 -30.5s-24.333 -16.167 -39 -21.5s-29.667 -9 -45 -11l-13 27c20 3.33301 33.333 12 40 26s10 28.667 10 44
c0 14.667 -5.16699 26.834 -15.5 36.501s-23.166 16.167 -38.499 19.5z" />
    <glyph glyph-name="ordmasculine" unicode="&#xba;" horiz-adv-x="500" 
d="M91 249h280v51h-280v-51zM240 365c-25.333 0 -47.666 4.83301 -66.999 14.5s-35.5 22.334 -48.5 38.001s-22.667 33.167 -29 52.5s-9.5 38.666 -9.5 57.999c0 18.667 3.16699 37.834 9.5 57.501s16 37.167 29 52.5s29.167 28 48.5 38s41.666 15 66.999 15
s47.666 -5 66.999 -15s35.333 -22.667 48 -38s22.167 -32.833 28.5 -52.5s9.5 -38.834 9.5 -57.501c0 -19.333 -3.16699 -38.666 -9.5 -57.999s-15.833 -36.833 -28.5 -52.5s-28.667 -28.334 -48 -38.001s-41.666 -14.5 -66.999 -14.5zM240 396c16 0 29.833 3.5 41.5 10.5
s21.167 16.5 28.5 28.5s12.666 26 15.999 42s5 33 5 51s-1.66699 35 -5 51s-8.66602 29.833 -15.999 41.5s-16.833 21 -28.5 28s-25.5 10.5 -41.5 10.5s-29.833 -3.5 -41.5 -10.5s-21.167 -16.333 -28.5 -28s-12.666 -25.5 -15.999 -41.5s-5 -33 -5 -51s1.66699 -35 5 -51
s8.66602 -30 15.999 -42s16.833 -21.5 28.5 -28.5s25.5 -10.5 41.5 -10.5z" />
    <glyph glyph-name="guillemotright" unicode="&#xbb;" horiz-adv-x="404" 
d="M230 56l-31 20l59 182l-59 181l31 20l119 -201zM92 56l-32 20l60 182l-60 181l32 20l118 -201z" />
    <glyph glyph-name="questiondown" unicode="&#xbf;" horiz-adv-x="441" 
d="M349 680v-70l-25 -20h-65l-20 20v70l20 20h70z" />
    <glyph glyph-name="Agrave" unicode="&#xc0;" horiz-adv-x="639" 
d="M413 206h-248l-52 -146l90 -25v-35h-218v35l70 25l235 655h40l249 -655l70 -25v-35h-266v35l85 25zM182 256h213l-109 292zM209 870l120 30l90 -160l-44 -20z" />
    <glyph glyph-name="Aacute" unicode="&#xc1;" horiz-adv-x="639" 
d="M413 206h-248l-52 -146l90 -25v-35h-218v35l70 25l235 655h40l249 -655l70 -25v-35h-266v35l85 25zM182 256h213l-109 292zM288 740l-44 20l90 160l120 -30z" />
    <glyph glyph-name="Acircumflex" unicode="&#xc2;" horiz-adv-x="639" 
d="M413 206h-248l-52 -146l90 -25v-35h-218v35l70 25l235 655h40l249 -655l70 -25v-35h-266v35l85 25zM182 256h213l-109 292zM357 900l114 -136l-47 -30l-110 90l-107 -84l-40 31l106 129h84z" />
    <glyph glyph-name="Atilde" unicode="&#xc3;" horiz-adv-x="639" 
d="M413 206h-248l-52 -146l90 -25v-35h-218v35l70 25l235 655h40l249 -655l70 -25v-35h-266v35l85 25zM182 256h213l-109 292zM475 891c-0.666992 -12.667 -3.16699 -25.335 -7.5 -38.002s-10.5 -24.167 -18.5 -34.5s-18 -18.666 -30 -24.999s-26.333 -9.5 -43 -9.5
c-11.333 0 -22.333 2.16699 -33 6.5s-21 9.33301 -31 15s-19.833 10.667 -29.5 15s-19.5 6.5 -29.5 6.5c-13.333 0 -24.666 -4.16699 -33.999 -12.5s-15.333 -18.166 -18 -29.499l-37 12c2.66699 13.333 6.5 26.166 11.5 38.499s11.667 23.333 20 33
s18.333 17.334 30 23.001s25.167 8.5 40.5 8.5c14 0 26.167 -2.16699 36.5 -6.5s20.166 -9 29.499 -14l27 -14c8.66699 -4.33301 18.667 -6.5 30 -6.5c12 0 22.333 3.83301 31 11.5s14 17.167 16 28.5z" />
    <glyph glyph-name="Adieresis" unicode="&#xc4;" horiz-adv-x="639" 
d="M413 206h-248l-52 -146l90 -25v-35h-218v35l70 25l235 655h40l249 -655l70 -25v-35h-266v35l85 25zM182 256h213l-109 292zM279 860v-70l-20 -20h-70l-20 20v70l20 20h70zM463 860v-70l-20 -20h-70l-20 20v70l20 20h70z" />
    <glyph glyph-name="Aring" unicode="&#xc5;" horiz-adv-x="639" 
d="M413 206h-248l-52 -146l90 -25v-35h-218v35l70 25l235 655h40l249 -655l70 -25v-35h-266v35l85 25zM182 256h213l-109 292zM311 910c13.333 0 26.5 -1.66602 39.5 -4.99902s24.5 -8.5 34.5 -15.5s18.167 -15.833 24.5 -26.5s9.5 -23.667 9.5 -39
c0 -17.333 -3.16699 -31.833 -9.5 -43.5s-14.5 -21.334 -24.5 -29.001s-21.5 -13.167 -34.5 -16.5s-26.167 -5 -39.5 -5c-16 0 -30.833 1.66699 -44.5 5s-25.5 8.66602 -35.5 15.999s-17.833 17 -23.5 29s-8.5 26.667 -8.5 44c0 14.667 3.16699 27.334 9.5 38.001
s14.833 19.5 25.5 26.5s22.667 12.333 36 16s27 5.5 41 5.5zM311 870.001c-16 0 -30.333 -3.33203 -43 -9.99902s-19 -18.667 -19 -36c0 -22 6.33301 -36.5 19 -43.5s27 -10.5 43 -10.5c16.667 0 30.5 4.16699 41.5 12.5s16.5 22.166 16.5 41.499
c0 10 -1.66699 18.167 -5 24.5s-7.83301 11 -13.5 14s-12 5 -19 6s-13.833 1.5 -20.5 1.5z" />
    <glyph glyph-name="AE" unicode="&#xc6;" horiz-adv-x="938" 
d="M128 60l86.001 -25v-35h-220v35l70 25l308 580l-90 25v35h605l17 -150h-50l-50 100h-260v-263h147l24 89h35v-228h-35l-25 89h-146v-287h270l60 110h50l-22 -160h-543v35l89 25v146h-249c0 0.666992 1.33301 3.66699 4 9s5.66699 11 9 17
c3.33301 7.33301 7.66602 15.333 12.999 24h223v394h-7z" />
    <glyph glyph-name="Ccedilla" unicode="&#xc7;" horiz-adv-x="641" 
d="M389 -10c-44.667 0 -87.1709 7.00293 -127.504 21.0029s-75.833 35.5 -106.5 64.5s-55 65.833 -73 110.5s-27 98 -27 160c0 55.333 9.66699 105.5 29 150.5s45.333 83.333 78 115s69.834 56 111.501 73s85.167 25.5 130.5 25.5c18 0 36.333 -1 55 -3s36 -4.83301 52 -8.5
s30.5 -7.5 43.5 -11.5s23.167 -8 30.5 -12v-150h-50l-50 120c-17.333 5.33301 -34.833 9.16602 -52.5 11.499s-32.167 3.5 -43.5 3.5c-30 0 -59 -6.33301 -87 -19s-52.667 -31.667 -74 -57s-38.333 -57 -51 -95s-19 -82.333 -19 -133c0 -44 6.83301 -85.333 20.5 -124
s31.834 -72.167 54.501 -100.5s48.5 -50.666 77.5 -66.999s58.5 -24.5 88.5 -24.5c19.333 0 34.833 1.16699 46.5 3.5s24.834 6.16602 39.501 11.499l50 130h50v-150c-13.333 -8.66699 -29.666 -15.834 -48.999 -21.501s-38.5 -10.334 -57.5 -14.001
s-36.667 -6.16699 -53 -7.5s-28.5 -2 -36.5 -2zM325.996 13.0029l35 -0.000976562l-14 -72c15.333 -3.33301 29.666 -11 42.999 -23s20 -27.667 20 -47c0 -14 -3.5 -26.667 -10.5 -38s-16.167 -21.5 -27.5 -30.5s-24.333 -16.167 -39 -21.5s-29.667 -9 -45 -11l-13 27
c20 3.33301 33.333 12 40 26s10 28.667 10 44c0 14.667 -5.16699 26.834 -15.5 36.501s-23.166 16.167 -38.499 19.5z" />
    <glyph glyph-name="Egrave" unicode="&#xc8;" horiz-adv-x="638" 
d="M371 337h-146v-287h270l60 110h50l-22 -160h-548v35l90 25v580l-90 25v35h533l17 -150h-50l-50 100h-260v-263h147l24 89h35v-228h-35zM209 870l120 30l90 -160l-44 -20z" />
    <glyph glyph-name="Eacute" unicode="&#xc9;" horiz-adv-x="638" 
d="M371 337h-146v-287h270l60 110h50l-22 -160h-548v35l90 25v580l-90 25v35h533l17 -150h-50l-50 100h-260v-263h147l24 89h35v-228h-35zM258 720l-44 20l90 160l120 -30z" />
    <glyph glyph-name="Ecircumflex" unicode="&#xca;" horiz-adv-x="638" 
d="M371 337h-146v-287h270l60 110h50l-22 -160h-548v35l90 25v580l-90 25v35h533l17 -150h-50l-50 100h-260v-263h147l24 89h35v-228h-35zM357 900l114 -136l-47 -30l-110 90l-107 -84l-40 31l106 129h84z" />
    <glyph glyph-name="Edieresis" unicode="&#xcb;" horiz-adv-x="638" 
d="M371 337h-146v-287h270l60 110h50l-22 -160h-548v35l90 25v580l-90 25v35h533l17 -150h-50l-50 100h-260v-263h147l24 89h35v-228h-35zM279 850v-70l-20 -20h-70l-20 20v70l20 20h70zM463 850v-70l-20 -20h-70l-20 20v70l20 20h70z" />
    <glyph glyph-name="Igrave" unicode="&#xcc;" horiz-adv-x="341" 
d="M121 640l-90 25v35h281v-35l-90 -25v-580l90 -25v-35h-281v35l90 25v580zM60 870l120 30l90 -160l-44 -20z" />
    <glyph glyph-name="Iacute" unicode="&#xcd;" horiz-adv-x="355" 
d="M121 640l-90 25v35h281v-35l-90 -25v-580l90 -25v-35h-281v35l90 25v580zM159 740l-44 20l90 160l120 -30z" />
    <glyph glyph-name="Icircumflex" unicode="&#xce;" horiz-adv-x="364" 
d="M131 640l-90 25v35h281v-35l-90 -25v-580l90 -25v-35h-281v35l90 25v580zM221 900l114 -136l-47 -30l-110 90l-107 -84l-40 31l106 129h84z" />
    <glyph glyph-name="Idieresis" unicode="&#xcf;" horiz-adv-x="354" 
d="M133 640l-90 25v35h281v-35l-90 -25v-580l90 -25v-35h-281v35l90 25v580zM140 860v-70l-20 -20h-70l-20 20v70l20 20h70zM324 860v-70l-20 -20h-70l-20 20v70l20 20h70z" />
    <glyph glyph-name="Eth" unicode="&#xd0;" horiz-adv-x="707" 
d="M14 392v50.0029h101v198l-90 25v35h324c52 0 97.833 -9.66699 137.5 -29s72.834 -44.833 99.501 -76.5s46.834 -67.834 60.501 -108.501s20.5 -82.334 20.5 -125.001c0 -43.333 -6.83301 -86.333 -20.5 -129s-33.834 -81.334 -60.501 -116.001
s-59.834 -62.667 -99.501 -84s-85.5 -32 -137.5 -32h-324v35l90 25v332h-101zM557 361.003c0 30 -2.83301 62 -8.5 96s-16.167 65.333 -31.5 94s-36.5 52.334 -63.5 71.001s-61.833 28 -104.5 28h-134v-208h99v-50h-99v-342h134c42.667 0 77.667 10.5 105 31.5
s48.5 47.167 63.5 78.5s25.333 65.166 31 101.499s8.5 69.5 8.5 99.5z" />
    <glyph glyph-name="Ntilde" unicode="&#xd1;" horiz-adv-x="731" 
d="M472 665v35h239v-35l-90 -25v-640h-47l-392 530v-470l90 -25v-35h-237v35l90 25v541l-30 39l-60 25v35h142l385 -520v460zM521 891c-0.666992 -12.667 -3.16699 -25.335 -7.5 -38.002s-10.5 -24.167 -18.5 -34.5s-18 -18.666 -30 -24.999s-26.333 -9.5 -43 -9.5
c-11.333 0 -22.333 2.16699 -33 6.5s-21 9.33301 -31 15s-19.833 10.667 -29.5 15s-19.5 6.5 -29.5 6.5c-13.333 0 -24.666 -4.16699 -33.999 -12.5s-15.333 -18.166 -18 -29.499l-37 12c2.66699 13.333 6.5 26.166 11.5 38.499s11.667 23.333 20 33
s18.333 17.334 30 23.001s25.167 8.5 40.5 8.5c14 0 26.167 -2.16699 36.5 -6.5s20.166 -9 29.499 -14l27 -14c8.66699 -4.33301 18.667 -6.5 30 -6.5c12 0 22.333 3.83301 31 11.5s14 17.167 16 28.5z" />
    <glyph glyph-name="Ograve" unicode="&#xd2;" horiz-adv-x="732" 
d="M366 710c51.333 0 96.333 -9.16895 135 -27.502s71 -43.666 97 -75.999s45.667 -70.333 59 -114s20 -90.5 20 -140.5c0 -49.333 -6.66699 -95.833 -20 -139.5s-33 -82 -59 -115s-58.5 -59.167 -97.5 -78.5s-83.833 -29 -134.5 -29c-52 0 -97.333 9.5 -136 28.5
s-71 44.833 -97 77.5s-45.5 71 -58.5 115s-19.5 91 -19.5 141c0 50.667 6.5 97.834 19.5 141.501s32.5 81.5 58.5 113.5s58.5 57.167 97.5 75.5s84.167 27.5 135.5 27.5zM366 659.998c-31.333 0 -59.668 -7.16797 -85.001 -21.501s-47 -34.666 -65 -60.999
s-31.833 -58.5 -41.5 -96.5s-14.5 -81 -14.5 -129s4.83301 -91.167 14.5 -129.5s23.334 -71 41.001 -98s39.167 -47.833 64.5 -62.5s54 -22 86 -22c31.333 0 59.5 7.33301 84.5 22s46.333 35.5 64 62.5s31.167 59.667 40.5 98s14 81.5 14 129.5
c0 47.333 -4.66699 90 -14 128s-22.833 70.333 -40.5 97s-39 47.167 -64 61.5s-53.167 21.5 -84.5 21.5zM255.998 869.997l120 30l90 -160l-44 -20z" />
    <glyph glyph-name="Oacute" unicode="&#xd3;" horiz-adv-x="732" 
d="M366 710c51.333 0 96.333 -9.16895 135 -27.502s71 -43.666 97 -75.999s45.667 -70.333 59 -114s20 -90.5 20 -140.5c0 -49.333 -6.66699 -95.833 -20 -139.5s-33 -82 -59 -115s-58.5 -59.167 -97.5 -78.5s-83.833 -29 -134.5 -29c-52 0 -97.333 9.5 -136 28.5
s-71 44.833 -97 77.5s-45.5 71 -58.5 115s-19.5 91 -19.5 141c0 50.667 6.5 97.834 19.5 141.501s32.5 81.5 58.5 113.5s58.5 57.167 97.5 75.5s84.167 27.5 135.5 27.5zM366 659.998c-31.333 0 -59.668 -7.16797 -85.001 -21.501s-47 -34.666 -65 -60.999
s-31.833 -58.5 -41.5 -96.5s-14.5 -81 -14.5 -129s4.83301 -91.167 14.5 -129.5s23.334 -71 41.001 -98s39.167 -47.833 64.5 -62.5s54 -22 86 -22c31.333 0 59.5 7.33301 84.5 22s46.333 35.5 64 62.5s31.167 59.667 40.5 98s14 81.5 14 129.5
c0 47.333 -4.66699 90 -14 128s-22.833 70.333 -40.5 97s-39 47.167 -64 61.5s-53.167 21.5 -84.5 21.5zM337.998 739.997l-44 20l90 160l120 -30z" />
    <glyph glyph-name="Ocircumflex" unicode="&#xd4;" horiz-adv-x="732" 
d="M366 710c51.333 0 96.333 -9.16895 135 -27.502s71 -43.666 97 -75.999s45.667 -70.333 59 -114s20 -90.5 20 -140.5c0 -49.333 -6.66699 -95.833 -20 -139.5s-33 -82 -59 -115s-58.5 -59.167 -97.5 -78.5s-83.833 -29 -134.5 -29c-52 0 -97.333 9.5 -136 28.5
s-71 44.833 -97 77.5s-45.5 71 -58.5 115s-19.5 91 -19.5 141c0 50.667 6.5 97.834 19.5 141.501s32.5 81.5 58.5 113.5s58.5 57.167 97.5 75.5s84.167 27.5 135.5 27.5zM366 659.998c-31.333 0 -59.668 -7.16797 -85.001 -21.501s-47 -34.666 -65 -60.999
s-31.833 -58.5 -41.5 -96.5s-14.5 -81 -14.5 -129s4.83301 -91.167 14.5 -129.5s23.334 -71 41.001 -98s39.167 -47.833 64.5 -62.5s54 -22 86 -22c31.333 0 59.5 7.33301 84.5 22s46.333 35.5 64 62.5s31.167 59.667 40.5 98s14 81.5 14 129.5
c0 47.333 -4.66699 90 -14 128s-22.833 70.333 -40.5 97s-39 47.167 -64 61.5s-53.167 21.5 -84.5 21.5zM415.998 899.997l114 -136l-47 -30l-110 90l-107 -84l-40 31l106 129h84z" />
    <glyph glyph-name="Otilde" unicode="&#xd5;" horiz-adv-x="732" 
d="M366 710c51.333 0 96.333 -9.16895 135 -27.502s71 -43.666 97 -75.999s45.667 -70.333 59 -114s20 -90.5 20 -140.5c0 -49.333 -6.66699 -95.833 -20 -139.5s-33 -82 -59 -115s-58.5 -59.167 -97.5 -78.5s-83.833 -29 -134.5 -29c-52 0 -97.333 9.5 -136 28.5
s-71 44.833 -97 77.5s-45.5 71 -58.5 115s-19.5 91 -19.5 141c0 50.667 6.5 97.834 19.5 141.501s32.5 81.5 58.5 113.5s58.5 57.167 97.5 75.5s84.167 27.5 135.5 27.5zM366 659.998c-31.333 0 -59.668 -7.16797 -85.001 -21.501s-47 -34.666 -65 -60.999
s-31.833 -58.5 -41.5 -96.5s-14.5 -81 -14.5 -129s4.83301 -91.167 14.5 -129.5s23.334 -71 41.001 -98s39.167 -47.833 64.5 -62.5s54 -22 86 -22c31.333 0 59.5 7.33301 84.5 22s46.333 35.5 64 62.5s31.167 59.667 40.5 98s14 81.5 14 129.5
c0 47.333 -4.66699 90 -14 128s-22.833 70.333 -40.5 97s-39 47.167 -64 61.5s-53.167 21.5 -84.5 21.5zM530.998 890.997c-0.666992 -12.667 -3.16699 -25.335 -7.5 -38.002s-10.5 -24.167 -18.5 -34.5s-18 -18.666 -30 -24.999s-26.333 -9.5 -43 -9.5
c-11.333 0 -22.333 2.16699 -33 6.5s-21 9.33301 -31 15s-19.833 10.667 -29.5 15s-19.5 6.5 -29.5 6.5c-13.333 0 -24.666 -4.16699 -33.999 -12.5s-15.333 -18.166 -18 -29.499l-37 12c2.66699 13.333 6.5 26.166 11.5 38.499s11.667 23.333 20 33
s18.333 17.334 30 23.001s25.167 8.5 40.5 8.5c14 0 26.167 -2.16699 36.5 -6.5s20.166 -9 29.499 -14l27 -14c8.66699 -4.33301 18.667 -6.5 30 -6.5c12 0 22.333 3.83301 31 11.5s14 17.167 16 28.5z" />
    <glyph glyph-name="Odieresis" unicode="&#xd6;" horiz-adv-x="732" 
d="M366 710c51.333 0 96.333 -9.16895 135 -27.502s71 -43.666 97 -75.999s45.667 -70.333 59 -114s20 -90.5 20 -140.5c0 -49.333 -6.66699 -95.833 -20 -139.5s-33 -82 -59 -115s-58.5 -59.167 -97.5 -78.5s-83.833 -29 -134.5 -29c-52 0 -97.333 9.5 -136 28.5
s-71 44.833 -97 77.5s-45.5 71 -58.5 115s-19.5 91 -19.5 141c0 50.667 6.5 97.834 19.5 141.501s32.5 81.5 58.5 113.5s58.5 57.167 97.5 75.5s84.167 27.5 135.5 27.5zM366 659.998c-31.333 0 -59.668 -7.16797 -85.001 -21.501s-47 -34.666 -65 -60.999
s-31.833 -58.5 -41.5 -96.5s-14.5 -81 -14.5 -129s4.83301 -91.167 14.5 -129.5s23.334 -71 41.001 -98s39.167 -47.833 64.5 -62.5s54 -22 86 -22c31.333 0 59.5 7.33301 84.5 22s46.333 35.5 64 62.5s31.167 59.667 40.5 98s14 81.5 14 129.5
c0 47.333 -4.66699 90 -14 128s-22.833 70.333 -40.5 97s-39 47.167 -64 61.5s-53.167 21.5 -84.5 21.5zM315.998 859.997v-70l-20 -20h-70l-20 20v70l20 20h70zM499.998 859.997v-70l-20 -20h-70l-20 20v70l20 20h70z" />
    <glyph glyph-name="multiply" unicode="&#xd7;" horiz-adv-x="570" 
d="M491 140l-48 -48l-168 169l-168 -169l-48 49l169 167l-173 171l50 46l170 -170l162 164l53 -45l-169 -166z" />
    <glyph glyph-name="Oslash" unicode="&#xd8;" horiz-adv-x="732" 
d="M366 710c51.333 0 96.333 -9.16895 135 -27.502s71 -43.666 97 -75.999s45.667 -70.333 59 -114s20 -90.5 20 -140.5c0 -49.333 -6.66699 -95.833 -20 -139.5s-33 -82 -59 -115s-58.5 -59.167 -97.5 -78.5s-83.833 -29 -134.5 -29c-52 0 -97.333 9.5 -136 28.5
s-71 44.833 -97 77.5s-45.5 71 -58.5 115s-19.5 91 -19.5 141c0 50.667 6.5 97.834 19.5 141.501s32.5 81.5 58.5 113.5s58.5 57.167 97.5 75.5s84.167 27.5 135.5 27.5zM366 659.998c-31.333 0 -59.668 -7.16797 -85.001 -21.501s-47 -34.666 -65 -60.999
s-31.833 -58.5 -41.5 -96.5s-14.5 -81 -14.5 -129s4.83301 -91.167 14.5 -129.5s23.334 -71 41.001 -98s39.167 -47.833 64.5 -62.5s54 -22 86 -22c31.333 0 59.5 7.33301 84.5 22s46.333 35.5 64 62.5s31.167 59.667 40.5 98s14 81.5 14 129.5
c0 47.333 -4.66699 90 -14 128s-22.833 70.333 -40.5 97s-39 47.167 -64 61.5s-53.167 21.5 -84.5 21.5zM505.998 749.997h60l-360 -800l-60 -1z" />
    <glyph glyph-name="Ugrave" unicode="&#xd9;" horiz-adv-x="675" 
d="M590 236c0 -37.333 -5.66602 -70.998 -16.999 -100.998s-27.5 -55.833 -48.5 -77.5s-46.667 -38.334 -77 -50.001s-64.5 -17.5 -102.5 -17.5c-37.333 0 -71.333 6 -102 18s-57 28.833 -79 50.5s-39 47.667 -51 78s-18 63.5 -18 99.5v404l-90 26v35h280v-35l-90 -26v-404
c0 -26.667 2.83301 -51.834 8.5 -75.501s15 -44.5 28 -62.5s30 -32.167 51 -42.5s47.167 -15.5 78.5 -15.5c28.667 0 54 5.5 76 16.5s40.167 25.5 54.5 43.5s25.166 38.833 32.499 62.5s11 48.167 11 73.5v404l-90 25v35h235v-35l-90 -25v-404zM227.001 870.002l120 30
l90 -160l-44 -20z" />
    <glyph glyph-name="Uacute" unicode="&#xda;" horiz-adv-x="675" 
d="M590 236c0 -37.333 -5.66602 -70.998 -16.999 -100.998s-27.5 -55.833 -48.5 -77.5s-46.667 -38.334 -77 -50.001s-64.5 -17.5 -102.5 -17.5c-37.333 0 -71.333 6 -102 18s-57 28.833 -79 50.5s-39 47.667 -51 78s-18 63.5 -18 99.5v404l-90 26v35h280v-35l-90 -26v-404
c0 -26.667 2.83301 -51.834 8.5 -75.501s15 -44.5 28 -62.5s30 -32.167 51 -42.5s47.167 -15.5 78.5 -15.5c28.667 0 54 5.5 76 16.5s40.167 25.5 54.5 43.5s25.166 38.833 32.499 62.5s11 48.167 11 73.5v404l-90 25v35h235v-35l-90 -25v-404zM326.001 740.002l-44 20
l90 160l120 -30z" />
    <glyph glyph-name="Ucircumflex" unicode="&#xdb;" horiz-adv-x="675" 
d="M590 236c0 -37.333 -5.66602 -70.998 -16.999 -100.998s-27.5 -55.833 -48.5 -77.5s-46.667 -38.334 -77 -50.001s-64.5 -17.5 -102.5 -17.5c-37.333 0 -71.333 6 -102 18s-57 28.833 -79 50.5s-39 47.667 -51 78s-18 63.5 -18 99.5v404l-90 26v35h280v-35l-90 -26v-404
c0 -26.667 2.83301 -51.834 8.5 -75.501s15 -44.5 28 -62.5s30 -32.167 51 -42.5s47.167 -15.5 78.5 -15.5c28.667 0 54 5.5 76 16.5s40.167 25.5 54.5 43.5s25.166 38.833 32.499 62.5s11 48.167 11 73.5v404l-90 25v35h235v-35l-90 -25v-404zM375.001 900.002l114 -136
l-47 -30l-110 90l-107 -84l-40 31l106 129h84z" />
    <glyph glyph-name="Udieresis" unicode="&#xdc;" horiz-adv-x="675" 
d="M590 236c0 -37.333 -5.66602 -70.998 -16.999 -100.998s-27.5 -55.833 -48.5 -77.5s-46.667 -38.334 -77 -50.001s-64.5 -17.5 -102.5 -17.5c-37.333 0 -71.333 6 -102 18s-57 28.833 -79 50.5s-39 47.667 -51 78s-18 63.5 -18 99.5v404l-90 26v35h280v-35l-90 -26v-404
c0 -26.667 2.83301 -51.834 8.5 -75.501s15 -44.5 28 -62.5s30 -32.167 51 -42.5s47.167 -15.5 78.5 -15.5c28.667 0 54 5.5 76 16.5s40.167 25.5 54.5 43.5s25.166 38.833 32.499 62.5s11 48.167 11 73.5v404l-90 25v35h235v-35l-90 -25v-404zM322.001 860.002v-70l-20 -20
h-70l-20 20v70l20 20h70zM506.001 860.002v-70l-20 -20h-70l-20 20v70l20 20h70z" />
    <glyph glyph-name="Yacute" unicode="&#xdd;" horiz-adv-x="588" 
d="M352 346l145 294l-70 25v35h196v-35l-70 -25l-172 -347v-233l70 -25v-35h-239v35l70 25v226l-222 354l-70 25v35h249v-35l-70 -25zM303 740l-44 20l90 160l120 -30z" />
    <glyph glyph-name="germandbls" unicode="&#xdf;" horiz-adv-x="628" 
d="M98 470c0 93.333 19.001 161.668 57.001 205.001s95.333 65 172 65c20 0 41 -2 63 -6s42.167 -10.833 60.5 -20.5s33.5 -22.667 45.5 -39s18 -36.833 18 -61.5c0 -22 -5.5 -42 -16.5 -60s-23 -35.333 -36 -52l-36 -47.5c-11 -15 -16.5 -30.5 -16.5 -46.5
c0 -15.333 4.66699 -29 14 -41s21.166 -23.5 35.499 -34.5s29.666 -22.167 45.999 -33.5s31.666 -24 45.999 -38s26.166 -30 35.499 -48s14 -39.333 14 -64c0 -26.667 -5.33301 -49.834 -16 -69.501s-24.667 -36 -42 -49s-37.166 -22.833 -59.499 -29.5
s-44.833 -10 -67.5 -10c-26.667 0 -52 2.16699 -76 6.5s-46.667 12.5 -68 24.5l1 112l50 1l20 -70c12 -8 25 -14 39 -18s28 -6 42 -6c13.333 0 25.333 2.66699 36 8s19.834 12.5 27.501 21.5s13.5 19.5 17.5 31.5s6 24.333 6 37c0 20 -4.66699 37.5 -14 52.5
s-21 28.667 -35 41s-29 24 -45 35s-31 22.667 -45 35s-25.667 25.833 -35 40.5s-14 32 -14 52c0 22 5.66699 42.5 17 61.5s23.666 37 36.999 54l37 49c11.333 15.667 17 31.167 17 46.5c0 14 -3.16699 26.333 -9.5 37s-14.666 19.5 -24.999 26.5s-21.833 12.333 -34.5 16
s-25 5.5 -37 5.5c-28 0 -51 -5 -69 -15s-32.167 -24.5 -42.5 -43.5s-17.666 -42.167 -21.999 -69.5s-6.5 -58 -6.5 -92v-470h-165l1 25l77 39z" />
    <glyph glyph-name="agrave" unicode="&#xe0;" horiz-adv-x="502" 
d="M206 460c-6 0 -14.4971 -1.16797 -25.4971 -3.50098s-24.5 -6.16602 -40.5 -11.499l-35 -85h-50v115c14.667 6 30.5 11.167 47.5 15.5s33.667 8 50 11s31.5 5.16699 45.5 6.5s25.333 2 34 2c52.667 0 95.167 -11.833 127.5 -35.5s48.5 -60.834 48.5 -111.501v-293l70 -15
v-35l-140 -30l-20 60c-26.667 -21.333 -52.834 -36.666 -78.501 -45.999s-48.167 -14 -67.5 -14c-23.333 0 -44.333 3.33301 -63 10s-34.5 16 -47.5 28s-23 26 -30 42s-10.5 33.667 -10.5 53c0 18 4.16699 36.333 12.5 55s23.666 35.5 45.999 50.5s52.666 27.333 90.999 37
s87.5 14.5 147.5 14.5v71c0 40 -9.16699 68.167 -27.5 84.5s-46.5 24.5 -84.5 24.5zM318.003 234.999c-38.667 0 -71.167 -2.66797 -97.5 -8.00098s-47.5 -12.833 -63.5 -22.5s-27.333 -21.5 -34 -35.5s-10 -29.333 -10 -46s3.66699 -30.167 11 -40.5
s15.833 -18.166 25.5 -23.499s19.5 -9 29.5 -11s17.667 -3 23 -3c19.333 0 39.5 6 60.5 18s39.5 27.667 55.5 47v125zM117.003 719.998l120 30l90 -160l-44 -20z" />
    <glyph glyph-name="aacute" unicode="&#xe1;" horiz-adv-x="502" 
d="M206 460c-6 0 -14.4971 -1.16797 -25.4971 -3.50098s-24.5 -6.16602 -40.5 -11.499l-35 -85h-50v115c14.667 6 30.5 11.167 47.5 15.5s33.667 8 50 11s31.5 5.16699 45.5 6.5s25.333 2 34 2c52.667 0 95.167 -11.833 127.5 -35.5s48.5 -60.834 48.5 -111.501v-293l70 -15
v-35l-140 -30l-20 60c-26.667 -21.333 -52.834 -36.666 -78.501 -45.999s-48.167 -14 -67.5 -14c-23.333 0 -44.333 3.33301 -63 10s-34.5 16 -47.5 28s-23 26 -30 42s-10.5 33.667 -10.5 53c0 18 4.16699 36.333 12.5 55s23.666 35.5 45.999 50.5s52.666 27.333 90.999 37
s87.5 14.5 147.5 14.5v71c0 40 -9.16699 68.167 -27.5 84.5s-46.5 24.5 -84.5 24.5zM318.003 234.999c-38.667 0 -71.167 -2.66797 -97.5 -8.00098s-47.5 -12.833 -63.5 -22.5s-27.333 -21.5 -34 -35.5s-10 -29.333 -10 -46s3.66699 -30.167 11 -40.5
s15.833 -18.166 25.5 -23.499s19.5 -9 29.5 -11s17.667 -3 23 -3c19.333 0 39.5 6 60.5 18s39.5 27.667 55.5 47v125zM255.003 569.998l-44 20l90 160l120 -30z" />
    <glyph glyph-name="acircumflex" unicode="&#xe2;" horiz-adv-x="502" 
d="M206 460c-6 0 -14.4971 -1.16797 -25.4971 -3.50098s-24.5 -6.16602 -40.5 -11.499l-35 -85h-50v115c14.667 6 30.5 11.167 47.5 15.5s33.667 8 50 11s31.5 5.16699 45.5 6.5s25.333 2 34 2c52.667 0 95.167 -11.833 127.5 -35.5s48.5 -60.834 48.5 -111.501v-293l70 -15
v-35l-140 -30l-20 60c-26.667 -21.333 -52.834 -36.666 -78.501 -45.999s-48.167 -14 -67.5 -14c-23.333 0 -44.333 3.33301 -63 10s-34.5 16 -47.5 28s-23 26 -30 42s-10.5 33.667 -10.5 53c0 18 4.16699 36.333 12.5 55s23.666 35.5 45.999 50.5s52.666 27.333 90.999 37
s87.5 14.5 147.5 14.5v71c0 40 -9.16699 68.167 -27.5 84.5s-46.5 24.5 -84.5 24.5zM318.003 234.999c-38.667 0 -71.167 -2.66797 -97.5 -8.00098s-47.5 -12.833 -63.5 -22.5s-27.333 -21.5 -34 -35.5s-10 -29.333 -10 -46s3.66699 -30.167 11 -40.5
s15.833 -18.166 25.5 -23.499s19.5 -9 29.5 -11s17.667 -3 23 -3c19.333 0 39.5 6 60.5 18s39.5 27.667 55.5 47v125zM289.003 749.998l114 -136l-47 -30l-110 90l-107 -84l-40 31l106 129h84z" />
    <glyph glyph-name="atilde" unicode="&#xe3;" horiz-adv-x="502" 
d="M206 460c-6 0 -14.4971 -1.16797 -25.4971 -3.50098s-24.5 -6.16602 -40.5 -11.499l-35 -85h-50v115c14.667 6 30.5 11.167 47.5 15.5s33.667 8 50 11s31.5 5.16699 45.5 6.5s25.333 2 34 2c52.667 0 95.167 -11.833 127.5 -35.5s48.5 -60.834 48.5 -111.501v-293l70 -15
v-35l-140 -30l-20 60c-26.667 -21.333 -52.834 -36.666 -78.501 -45.999s-48.167 -14 -67.5 -14c-23.333 0 -44.333 3.33301 -63 10s-34.5 16 -47.5 28s-23 26 -30 42s-10.5 33.667 -10.5 53c0 18 4.16699 36.333 12.5 55s23.666 35.5 45.999 50.5s52.666 27.333 90.999 37
s87.5 14.5 147.5 14.5v71c0 40 -9.16699 68.167 -27.5 84.5s-46.5 24.5 -84.5 24.5zM318.003 234.999c-38.667 0 -71.167 -2.66797 -97.5 -8.00098s-47.5 -12.833 -63.5 -22.5s-27.333 -21.5 -34 -35.5s-10 -29.333 -10 -46s3.66699 -30.167 11 -40.5
s15.833 -18.166 25.5 -23.499s19.5 -9 29.5 -11s17.667 -3 23 -3c19.333 0 39.5 6 60.5 18s39.5 27.667 55.5 47v125zM406.003 740.998c-0.666992 -12.667 -3.16699 -25.335 -7.5 -38.002s-10.5 -24.167 -18.5 -34.5s-18 -18.666 -30 -24.999s-26.333 -9.5 -43 -9.5
c-11.333 0 -22.333 2.16699 -33 6.5s-21 9.33301 -31 15s-19.833 10.667 -29.5 15s-19.5 6.5 -29.5 6.5c-13.333 0 -24.666 -4.16699 -33.999 -12.5s-15.333 -18.166 -18 -29.499l-37 12c2.66699 13.333 6.5 26.166 11.5 38.499s11.667 23.333 20 33
s18.333 17.334 30 23.001s25.167 8.5 40.5 8.5c14 0 26.167 -2.16699 36.5 -6.5s20.166 -9 29.499 -14l27 -14c8.66699 -4.33301 18.667 -6.5 30 -6.5c12 0 22.333 3.83301 31 11.5s14 17.167 16 28.5z" />
    <glyph glyph-name="adieresis" unicode="&#xe4;" horiz-adv-x="502" 
d="M206 460c-6 0 -14.4971 -1.16797 -25.4971 -3.50098s-24.5 -6.16602 -40.5 -11.499l-35 -85h-50v115c14.667 6 30.5 11.167 47.5 15.5s33.667 8 50 11s31.5 5.16699 45.5 6.5s25.333 2 34 2c52.667 0 95.167 -11.833 127.5 -35.5s48.5 -60.834 48.5 -111.501v-293l70 -15
v-35l-140 -30l-20 60c-26.667 -21.333 -52.834 -36.666 -78.501 -45.999s-48.167 -14 -67.5 -14c-23.333 0 -44.333 3.33301 -63 10s-34.5 16 -47.5 28s-23 26 -30 42s-10.5 33.667 -10.5 53c0 18 4.16699 36.333 12.5 55s23.666 35.5 45.999 50.5s52.666 27.333 90.999 37
s87.5 14.5 147.5 14.5v71c0 40 -9.16699 68.167 -27.5 84.5s-46.5 24.5 -84.5 24.5zM318.003 234.999c-38.667 0 -71.167 -2.66797 -97.5 -8.00098s-47.5 -12.833 -63.5 -22.5s-27.333 -21.5 -34 -35.5s-10 -29.333 -10 -46s3.66699 -30.167 11 -40.5
s15.833 -18.166 25.5 -23.499s19.5 -9 29.5 -11s17.667 -3 23 -3c19.333 0 39.5 6 60.5 18s39.5 27.667 55.5 47v125zM183.003 679.998v-70l-20 -20h-70l-20 20v70l20 20h70zM367.003 679.998v-70l-20 -20h-70l-20 20v70l20 20h70z" />
    <glyph glyph-name="aring" unicode="&#xe5;" horiz-adv-x="502" 
d="M206 460c-6 0 -14.4971 -1.16797 -25.4971 -3.50098s-24.5 -6.16602 -40.5 -11.499l-35 -85h-50v115c14.667 6 30.5 11.167 47.5 15.5s33.667 8 50 11s31.5 5.16699 45.5 6.5s25.333 2 34 2c52.667 0 95.167 -11.833 127.5 -35.5s48.5 -60.834 48.5 -111.501v-293l70 -15
v-35l-140 -30l-20 60c-26.667 -21.333 -52.834 -36.666 -78.501 -45.999s-48.167 -14 -67.5 -14c-23.333 0 -44.333 3.33301 -63 10s-34.5 16 -47.5 28s-23 26 -30 42s-10.5 33.667 -10.5 53c0 18 4.16699 36.333 12.5 55s23.666 35.5 45.999 50.5s52.666 27.333 90.999 37
s87.5 14.5 147.5 14.5v71c0 40 -9.16699 68.167 -27.5 84.5s-46.5 24.5 -84.5 24.5zM318.003 234.999c-38.667 0 -71.167 -2.66797 -97.5 -8.00098s-47.5 -12.833 -63.5 -22.5s-27.333 -21.5 -34 -35.5s-10 -29.333 -10 -46s3.66699 -30.167 11 -40.5
s15.833 -18.166 25.5 -23.499s19.5 -9 29.5 -11s17.667 -3 23 -3c19.333 0 39.5 6 60.5 18s39.5 27.667 55.5 47v125zM233.003 739.998c13.333 0 26.5 -1.66602 39.5 -4.99902s24.5 -8.5 34.5 -15.5s18.167 -15.833 24.5 -26.5s9.5 -23.667 9.5 -39
c0 -17.333 -3.16699 -31.833 -9.5 -43.5s-14.5 -21.334 -24.5 -29.001s-21.5 -13.167 -34.5 -16.5s-26.167 -5 -39.5 -5c-16 0 -30.833 1.66699 -44.5 5s-25.5 8.66602 -35.5 15.999s-17.833 17 -23.5 29s-8.5 26.667 -8.5 44c0 14.667 3.16699 27.334 9.5 38.001
s14.833 19.5 25.5 26.5s22.667 12.333 36 16s27 5.5 41 5.5zM233.003 699.999c-16 0 -30.333 -3.33203 -43 -9.99902s-19 -18.667 -19 -36c0 -22 6.33301 -36.5 19 -43.5s27 -10.5 43 -10.5c16.667 0 30.5 4.16699 41.5 12.5s16.5 22.166 16.5 41.499
c0 10 -1.66699 18.167 -5 24.5s-7.83301 11 -13.5 14s-12 5 -19 6s-13.833 1.5 -20.5 1.5z" />
    <glyph glyph-name="ae" unicode="&#xe6;" horiz-adv-x="827" 
d="M407 443c17.333 20.667 39.1689 36.999 65.502 48.999s56.833 18 91.5 18c65.333 0 116.333 -20.5 153 -61.5s54.334 -104.5 53.001 -190.5h-370v50h280c0 48 -10.167 85.333 -30.5 112s-48.833 40 -85.5 40c-27.333 0 -49.833 -5.33301 -67.5 -16
s-31.667 -24.5 -42 -41.5s-17.5 -36.333 -21.5 -58s-6 -43.167 -6 -64.5c0 -71.333 13 -127.5 39 -168.5s68.667 -61.5 128 -61.5c30 0 58 4.16699 84 12.5s48.667 17.833 68 28.5l17 -31c-18.667 -14 -35.5 -25.5 -50.5 -34.5s-30 -16.167 -45 -21.5s-30.833 -9 -47.5 -11
s-35.334 -3 -56.001 -3c-42 0 -78.833 8.33301 -110.5 25s-57.167 40 -76.5 70c-30 -35.333 -61 -60 -93 -74s-63 -21 -93 -21c-23.333 0 -44.333 3.33301 -63 10s-34.5 16 -47.5 28s-23 26 -30 42s-10.5 33.667 -10.5 53c0 18 4.16699 36.333 12.5 55
s23.666 35.5 45.999 50.5s52.666 27.333 90.999 37s87.5 14.5 147.5 14.5v71c0 40 -9.16699 68.167 -27.5 84.5s-46.5 24.5 -84.5 24.5c-6 0 -14.5 -1.16699 -25.5 -3.5s-24.5 -6.16602 -40.5 -11.499l-35 -85h-50v115c14.667 6 30.5 11.167 47.5 15.5s33.667 8 50 11
s31.5 5.16699 45.5 6.5s25.333 2 34 2c36 0 67.5 -5.33301 94.5 -16s47.5 -27.667 61.5 -51zM355.003 127.999c-7.33301 17.333 -12.166 34.167 -14.499 50.5s-3.5 35.166 -3.5 56.499c-38.667 0 -71.167 -2.66699 -97.5 -8s-47.5 -12.833 -63.5 -22.5
s-27.333 -21.5 -34 -35.5s-10 -29.333 -10 -46s3.66699 -30.167 11 -40.5s15.833 -18.166 25.5 -23.499s19.5 -9 29.5 -11s17.667 -3 23 -3c10 0 21 2.5 33 7.5s24.167 11.5 36.5 19.5s24.166 16.833 35.499 26.5s21 19.5 29 29.5z" />
    <glyph glyph-name="ccedilla" unicode="&#xe7;" horiz-adv-x="445" 
d="M346 445c-12.667 6.66699 -26.5029 10.833 -41.5029 12.5s-25.167 2.5 -30.5 2.5c-18 0 -36 -4.5 -54 -13.5s-34.167 -22 -48.5 -39s-26 -37.833 -35 -62.5s-13.5 -52.334 -13.5 -83.001c0 -34 5.16699 -64.167 15.5 -90.5s23.833 -48.5 40.5 -66.5
s35.334 -31.667 56.001 -41s41.334 -14 62.001 -14c24.667 0 48 3.5 70 10.5s37.667 12.833 47 17.5l17 -31c-28 -19.333 -56.167 -33.333 -84.5 -42s-55.833 -13 -82.5 -13c-38 0 -71.667 6.5 -101 19.5s-53.666 31 -72.999 54s-34 50.5 -44 82.5s-15 66.667 -15 104
c0 34.667 6.5 67.667 19.5 99s30.833 58.833 53.5 82.5s49.5 42.334 80.5 56.001s64.167 20.5 99.5 20.5c10.667 0 22.5 -1 35.5 -3s26.333 -4.5 40 -7.5s26.667 -6.66699 39 -11s22.833 -8.83301 31.5 -13.5v-115h-50zM259.997 12.999l35 -0.000976562l-14 -72
c15.333 -3.33301 29.666 -11 42.999 -23s20 -27.667 20 -47c0 -14 -3.5 -26.667 -10.5 -38s-16.167 -21.5 -27.5 -30.5s-24.333 -16.167 -39 -21.5s-29.667 -9 -45 -11l-13 27c20 3.33301 33.333 12 40 26s10 28.667 10 44c0 14.667 -5.16699 26.834 -15.5 36.501
s-23.166 16.167 -38.499 19.5z" />
    <glyph glyph-name="egrave" unicode="&#xe8;" horiz-adv-x="522" 
d="M111 308l280 0.00292969c0 48 -10.167 85.333 -30.5 112s-48.833 40 -85.5 40c-27.333 0 -49.833 -5.33301 -67.5 -16s-31.667 -24.5 -42 -41.5s-17.5 -36.333 -21.5 -58s-6 -43.167 -6 -64.5c0 -71.333 13 -127.5 39 -168.5s68.667 -61.5 128 -61.5
c30 0 58 4.16699 84 12.5s48.667 17.833 68 28.5l17 -31c-18.667 -14 -35.5 -25.5 -50.5 -34.5s-30 -16.167 -45 -21.5s-30.833 -9 -47.5 -11s-35.334 -3 -56.001 -3c-35.333 0 -67.166 6.16699 -95.499 18.5s-52.5 29.666 -72.5 51.999s-35.333 49 -46 80
s-16 65.167 -16 102.5c0 36 5.33301 70.167 16 102.5s26 60.666 46 84.999s44.167 43.666 72.5 57.999s60.166 21.5 95.499 21.5c65.333 0 116.333 -20.5 153 -61.5s54.334 -104.5 53.001 -190.5h-370v50zM127 720.003l120 30l90 -160l-44 -20z" />
    <glyph glyph-name="eacute" unicode="&#xe9;" horiz-adv-x="522" 
d="M111 308l280 0.00292969c0 48 -10.167 85.333 -30.5 112s-48.833 40 -85.5 40c-27.333 0 -49.833 -5.33301 -67.5 -16s-31.667 -24.5 -42 -41.5s-17.5 -36.333 -21.5 -58s-6 -43.167 -6 -64.5c0 -71.333 13 -127.5 39 -168.5s68.667 -61.5 128 -61.5
c30 0 58 4.16699 84 12.5s48.667 17.833 68 28.5l17 -31c-18.667 -14 -35.5 -25.5 -50.5 -34.5s-30 -16.167 -45 -21.5s-30.833 -9 -47.5 -11s-35.334 -3 -56.001 -3c-35.333 0 -67.166 6.16699 -95.499 18.5s-52.5 29.666 -72.5 51.999s-35.333 49 -46 80
s-16 65.167 -16 102.5c0 36 5.33301 70.167 16 102.5s26 60.666 46 84.999s44.167 43.666 72.5 57.999s60.166 21.5 95.499 21.5c65.333 0 116.333 -20.5 153 -61.5s54.334 -104.5 53.001 -190.5h-370v50zM285 570.003l-44 20l90 160l120 -30z" />
    <glyph glyph-name="ecircumflex" unicode="&#xea;" horiz-adv-x="522" 
d="M111 308l280 0.00292969c0 48 -10.167 85.333 -30.5 112s-48.833 40 -85.5 40c-27.333 0 -49.833 -5.33301 -67.5 -16s-31.667 -24.5 -42 -41.5s-17.5 -36.333 -21.5 -58s-6 -43.167 -6 -64.5c0 -71.333 13 -127.5 39 -168.5s68.667 -61.5 128 -61.5
c30 0 58 4.16699 84 12.5s48.667 17.833 68 28.5l17 -31c-18.667 -14 -35.5 -25.5 -50.5 -34.5s-30 -16.167 -45 -21.5s-30.833 -9 -47.5 -11s-35.334 -3 -56.001 -3c-35.333 0 -67.166 6.16699 -95.499 18.5s-52.5 29.666 -72.5 51.999s-35.333 49 -46 80
s-16 65.167 -16 102.5c0 36 5.33301 70.167 16 102.5s26 60.666 46 84.999s44.167 43.666 72.5 57.999s60.166 21.5 95.499 21.5c65.333 0 116.333 -20.5 153 -61.5s54.334 -104.5 53.001 -190.5h-370v50zM319 750.003l114 -136l-47 -30l-110 90l-107 -84l-40 31l106 129h84
z" />
    <glyph glyph-name="edieresis" unicode="&#xeb;" horiz-adv-x="522" 
d="M95 308l280 0.00292969c0 48 -10.167 85.333 -30.5 112s-48.833 40 -85.5 40c-27.333 0 -49.833 -5.33301 -67.5 -16s-31.667 -24.5 -42 -41.5s-17.5 -36.333 -21.5 -58s-6 -43.167 -6 -64.5c0 -71.333 13 -127.5 39 -168.5s68.667 -61.5 128 -61.5
c30 0 58 4.16699 84 12.5s48.667 17.833 68 28.5l17 -31c-18.667 -14 -35.5 -25.5 -50.5 -34.5s-30 -16.167 -45 -21.5s-30.833 -9 -47.5 -11s-35.334 -3 -56.001 -3c-35.333 0 -67.166 6.16699 -95.499 18.5s-52.5 29.666 -72.5 51.999s-35.333 49 -46 80
s-16 65.167 -16 102.5c0 36 5.33301 70.167 16 102.5s26 60.666 46 84.999s44.167 43.666 72.5 57.999s60.166 21.5 95.499 21.5c65.333 0 116.333 -20.5 153 -61.5s54.334 -104.5 53.001 -190.5h-370v50zM226 680.003v-70l-20 -20h-70l-20 20v70l20 20h70zM410 680.003v-70
l-20 -20h-70l-20 20v70l20 20h70z" />
    <glyph glyph-name="igrave" unicode="&#xec;" horiz-adv-x="279" 
d="M264 35v-35h-229v35l70 25v375l-70 15v35l160 30v-455zM17 720l120 30l90 -160l-44 -20z" />
    <glyph glyph-name="iacute" unicode="&#xed;" horiz-adv-x="274" 
d="M250 35v-35h-229v35l70 25v375l-70 15v35l160 30v-455zM88 570l-44 20l90 160l120 -30z" />
    <glyph glyph-name="icircumflex" unicode="&#xee;" horiz-adv-x="344" 
d="M275 35v-35h-229v35l70 25v375l-70 15v35l160 30v-455zM211 741l114 -136l-47 -30l-110 90l-107 -84l-40 31l106 129h84z" />
    <glyph glyph-name="idieresis" unicode="&#xef;" horiz-adv-x="334" 
d="M285 35v-35h-229v35l70 25v375l-70 15v35l160 30v-455zM130 680v-70l-20 -20h-70l-20 20v70l20 20h70zM314 680v-70l-20 -20h-70l-20 20v70l20 20h70z" />
    <glyph glyph-name="eth" unicode="&#xf0;" horiz-adv-x="559" 
d="M335 701c18.667 -14.667 37.998 -31.6689 57.998 -51.002s38.333 -43.5 55 -72.5s30.334 -64.167 41.001 -105.5s16 -91.333 16 -150c0 -52.667 -5 -99.834 -15 -141.501s-25 -77 -45 -106s-45 -51.167 -75 -66.5s-65.333 -23 -106 -23c-35.333 0 -67 6.16699 -95 18.5
s-52 29.833 -72 52.5s-35.333 49.834 -46 81.501s-16 66.5 -16 104.5c0 36 5.16699 70.333 15.5 103s25.333 61.5 45 86.5s43.667 45 72 60s60.5 22.5 96.5 22.5c32 0 58.333 -3.66699 79 -11s36.667 -14.666 48 -21.999l3 3c-7.33301 26.667 -16.666 49.667 -27.999 69
s-23.5 36 -36.5 50s-26.333 26.167 -40 36.5l-39.5 29.5c-11.333 8.66699 -21.666 15.834 -30.999 21.501s-18.5 10.5 -27.5 14.5s-18.5 7.66699 -28.5 11l-33 11l16 43c32 -4.66699 64.667 -12 98 -22s63.666 -25.667 90.999 -47zM385.998 806.998l39 -40l-253 -195l-40 43
zM284.998 453.998c-24 0 -44.832 -5.83301 -62.499 -17.5s-32.5 -27 -44.5 -46s-21 -41 -27 -66s-9 -50.5 -9 -76.5c0 -30 2.66699 -58 8 -84s13.166 -48.5 23.499 -67.5s23.166 -34 38.499 -45s33 -16.5 53 -16.5c24.667 0 45.834 7.16699 63.501 21.5s32 33.666 43 57.999
s19 52.833 24 85.5s7.5 67.334 7.5 104.001l-1 105c-16.667 14 -34.167 25 -52.5 33s-39.833 12 -64.5 12z" />
    <glyph glyph-name="ntilde" unicode="&#xf1;" horiz-adv-x="603" 
d="M30 450l-0.00390625 35.001l148 30l10 -65c36.667 19.333 68.834 34.166 96.501 44.499s50.834 15.5 69.501 15.5c30.667 0 56.5 -4.16699 77.5 -12.5s37.833 -20 50.5 -35s21.834 -32.667 27.501 -53s8.5 -42.5 8.5 -66.5v-283l70 -25v-35h-230v35l70 25v275
c0 34 -8.66699 60.167 -26 78.5s-49.333 27.5 -96 27.5c-35.333 0 -74.666 -10.333 -117.999 -31v-350l70 -25v-35h-228v35l70 25v375zM476.996 712.001c-0.666992 -12.667 -3.16699 -25.335 -7.5 -38.002s-10.5 -24.167 -18.5 -34.5s-18 -18.666 -30 -24.999
s-26.333 -9.5 -43 -9.5c-11.333 0 -22.333 2.16699 -33 6.5s-21 9.33301 -31 15s-19.833 10.667 -29.5 15s-19.5 6.5 -29.5 6.5c-13.333 0 -24.666 -4.16699 -33.999 -12.5s-15.333 -18.166 -18 -29.499l-37 12c2.66699 13.333 6.5 26.166 11.5 38.499s11.667 23.333 20 33
s18.333 17.334 30 23.001s25.167 8.5 40.5 8.5c14 0 26.167 -2.16699 36.5 -6.5s20.166 -9 29.499 -14l27 -14c8.66699 -4.33301 18.667 -6.5 30 -6.5c12 0 22.333 3.83301 31 11.5s14 17.167 16 28.5z" />
    <glyph glyph-name="ograve" unicode="&#xf2;" horiz-adv-x="570" 
d="M290 -10c-40.667 0 -76.334 7.83301 -107.001 23.5s-56.167 35.834 -76.5 60.501s-35.666 52.5 -45.999 83.5s-15.5 61.833 -15.5 92.5s5.16699 61.334 15.5 92.001s25.666 58.5 45.999 83.5s45.833 45.333 76.5 61s66.334 23.5 107.001 23.5
s76.334 -7.83301 107.001 -23.5s56.167 -36 76.5 -61s35.666 -52.833 45.999 -83.5s15.5 -61.334 15.5 -92.001s-5.16699 -61.5 -15.5 -92.5s-25.666 -58.833 -45.999 -83.5s-45.833 -44.834 -76.5 -60.501s-66.334 -23.5 -107.001 -23.5zM290 40c26 0 48.167 5.5 66.5 16.5
s33.333 26 45 45s20.167 41.167 25.5 66.5s8 52.666 8 81.999c0 28.667 -2.66699 55.834 -8 81.501s-13.833 48 -25.5 67s-26.667 34 -45 45s-40.5 16.5 -66.5 16.5s-48.167 -5.5 -66.5 -16.5s-33.333 -26 -45 -45s-20.167 -41.333 -25.5 -67s-8 -52.834 -8 -81.501
c0 -29.333 2.66699 -56.666 8 -81.999s13.833 -47.5 25.5 -66.5s26.667 -34 45 -45s40.5 -16.5 66.5 -16.5zM141 720l120 30l90 -160l-44 -20z" />
    <glyph glyph-name="oacute" unicode="&#xf3;" horiz-adv-x="570" 
d="M290 -10c-40.667 0 -76.334 7.83301 -107.001 23.5s-56.167 35.834 -76.5 60.501s-35.666 52.5 -45.999 83.5s-15.5 61.833 -15.5 92.5s5.16699 61.334 15.5 92.001s25.666 58.5 45.999 83.5s45.833 45.333 76.5 61s66.334 23.5 107.001 23.5
s76.334 -7.83301 107.001 -23.5s56.167 -36 76.5 -61s35.666 -52.833 45.999 -83.5s15.5 -61.334 15.5 -92.001s-5.16699 -61.5 -15.5 -92.5s-25.666 -58.833 -45.999 -83.5s-45.833 -44.834 -76.5 -60.501s-66.334 -23.5 -107.001 -23.5zM290 40c26 0 48.167 5.5 66.5 16.5
s33.333 26 45 45s20.167 41.167 25.5 66.5s8 52.666 8 81.999c0 28.667 -2.66699 55.834 -8 81.501s-13.833 48 -25.5 67s-26.667 34 -45 45s-40.5 16.5 -66.5 16.5s-48.167 -5.5 -66.5 -16.5s-33.333 -26 -45 -45s-20.167 -41.333 -25.5 -67s-8 -52.834 -8 -81.501
c0 -29.333 2.66699 -56.666 8 -81.999s13.833 -47.5 25.5 -66.5s26.667 -34 45 -45s40.5 -16.5 66.5 -16.5zM259 570l-44 20l90 160l120 -30z" />
    <glyph glyph-name="ocircumflex" unicode="&#xf4;" horiz-adv-x="570" 
d="M290 -10c-40.667 0 -76.334 7.83301 -107.001 23.5s-56.167 35.834 -76.5 60.501s-35.666 52.5 -45.999 83.5s-15.5 61.833 -15.5 92.5s5.16699 61.334 15.5 92.001s25.666 58.5 45.999 83.5s45.833 45.333 76.5 61s66.334 23.5 107.001 23.5
s76.334 -7.83301 107.001 -23.5s56.167 -36 76.5 -61s35.666 -52.833 45.999 -83.5s15.5 -61.334 15.5 -92.001s-5.16699 -61.5 -15.5 -92.5s-25.666 -58.833 -45.999 -83.5s-45.833 -44.834 -76.5 -60.501s-66.334 -23.5 -107.001 -23.5zM290 40c26 0 48.167 5.5 66.5 16.5
s33.333 26 45 45s20.167 41.167 25.5 66.5s8 52.666 8 81.999c0 28.667 -2.66699 55.834 -8 81.501s-13.833 48 -25.5 67s-26.667 34 -45 45s-40.5 16.5 -66.5 16.5s-48.167 -5.5 -66.5 -16.5s-33.333 -26 -45 -45s-20.167 -41.333 -25.5 -67s-8 -52.834 -8 -81.501
c0 -29.333 2.66699 -56.666 8 -81.999s13.833 -47.5 25.5 -66.5s26.667 -34 45 -45s40.5 -16.5 66.5 -16.5zM333 750l114 -136l-47 -30l-110 90l-107 -84l-40 31l106 129h84z" />
    <glyph glyph-name="otilde" unicode="&#xf5;" horiz-adv-x="570" 
d="M290 -10c-40.667 0 -76.334 7.83301 -107.001 23.5s-56.167 35.834 -76.5 60.501s-35.666 52.5 -45.999 83.5s-15.5 61.833 -15.5 92.5s5.16699 61.334 15.5 92.001s25.666 58.5 45.999 83.5s45.833 45.333 76.5 61s66.334 23.5 107.001 23.5
s76.334 -7.83301 107.001 -23.5s56.167 -36 76.5 -61s35.666 -52.833 45.999 -83.5s15.5 -61.334 15.5 -92.001s-5.16699 -61.5 -15.5 -92.5s-25.666 -58.833 -45.999 -83.5s-45.833 -44.834 -76.5 -60.501s-66.334 -23.5 -107.001 -23.5zM290 40c26 0 48.167 5.5 66.5 16.5
s33.333 26 45 45s20.167 41.167 25.5 66.5s8 52.666 8 81.999c0 28.667 -2.66699 55.834 -8 81.501s-13.833 48 -25.5 67s-26.667 34 -45 45s-40.5 16.5 -66.5 16.5s-48.167 -5.5 -66.5 -16.5s-33.333 -26 -45 -45s-20.167 -41.333 -25.5 -67s-8 -52.834 -8 -81.501
c0 -29.333 2.66699 -56.666 8 -81.999s13.833 -47.5 25.5 -66.5s26.667 -34 45 -45s40.5 -16.5 66.5 -16.5zM450 741c-0.666992 -12.667 -3.16699 -25.335 -7.5 -38.002s-10.5 -24.167 -18.5 -34.5s-18 -18.666 -30 -24.999s-26.333 -9.5 -43 -9.5
c-11.333 0 -22.333 2.16699 -33 6.5s-21 9.33301 -31 15s-19.833 10.667 -29.5 15s-19.5 6.5 -29.5 6.5c-13.333 0 -24.666 -4.16699 -33.999 -12.5s-15.333 -18.166 -18 -29.499l-37 12c2.66699 13.333 6.5 26.166 11.5 38.499s11.667 23.333 20 33
s18.333 17.334 30 23.001s25.167 8.5 40.5 8.5c14 0 26.167 -2.16699 36.5 -6.5s20.166 -9 29.499 -14l27 -14c8.66699 -4.33301 18.667 -6.5 30 -6.5c12 0 22.333 3.83301 31 11.5s14 17.167 16 28.5z" />
    <glyph glyph-name="odieresis" unicode="&#xf6;" horiz-adv-x="570" 
d="M281 -10c-40.667 0 -76.334 7.83301 -107.001 23.5s-56.167 35.834 -76.5 60.501s-35.666 52.5 -45.999 83.5s-15.5 61.833 -15.5 92.5s5.16699 61.334 15.5 92.001s25.666 58.5 45.999 83.5s45.833 45.333 76.5 61s66.334 23.5 107.001 23.5
s76.334 -7.83301 107.001 -23.5s56.167 -36 76.5 -61s35.666 -52.833 45.999 -83.5s15.5 -61.334 15.5 -92.001s-5.16699 -61.5 -15.5 -92.5s-25.666 -58.833 -45.999 -83.5s-45.833 -44.834 -76.5 -60.501s-66.334 -23.5 -107.001 -23.5zM281 40c26 0 48.167 5.5 66.5 16.5
s33.333 26 45 45s20.167 41.167 25.5 66.5s8 52.666 8 81.999c0 28.667 -2.66699 55.834 -8 81.501s-13.833 48 -25.5 67s-26.667 34 -45 45s-40.5 16.5 -66.5 16.5s-48.167 -5.5 -66.5 -16.5s-33.333 -26 -45 -45s-20.167 -41.333 -25.5 -67s-8 -52.834 -8 -81.501
c0 -29.333 2.66699 -56.666 8 -81.999s13.833 -47.5 25.5 -66.5s26.667 -34 45 -45s40.5 -16.5 66.5 -16.5zM243 680v-70l-20 -20h-70l-20 20v70l20 20h70zM427 680v-70l-20 -20h-70l-20 20v70l20 20h70z" />
    <glyph glyph-name="divide" unicode="&#xf7;" horiz-adv-x="602" 
d="M30 292v77h515v-77h-515zM350 181v-70l-25 -20h-65l-20 20v70l20 20h70zM350 550v-70l-25 -20h-65l-20 20v70l20 20h70z" />
    <glyph glyph-name="oslash" unicode="&#xf8;" horiz-adv-x="570" 
d="M394 569h60l-290 -641l-60 -1zM290 -10c-40.667 0 -76.334 7.83301 -107.001 23.5s-56.167 35.834 -76.5 60.501s-35.666 52.5 -45.999 83.5s-15.5 61.833 -15.5 92.5s5.16699 61.334 15.5 92.001s25.666 58.5 45.999 83.5s45.833 45.333 76.5 61
s66.334 23.5 107.001 23.5s76.334 -7.83301 107.001 -23.5s56.167 -36 76.5 -61s35.666 -52.833 45.999 -83.5s15.5 -61.334 15.5 -92.001s-5.16699 -61.5 -15.5 -92.5s-25.666 -58.833 -45.999 -83.5s-45.833 -44.834 -76.5 -60.501s-66.334 -23.5 -107.001 -23.5zM290 40
c26 0 48.167 5.5 66.5 16.5s33.333 26 45 45s20.167 41.167 25.5 66.5s8 52.666 8 81.999c0 28.667 -2.66699 55.834 -8 81.501s-13.833 48 -25.5 67s-26.667 34 -45 45s-40.5 16.5 -66.5 16.5s-48.167 -5.5 -66.5 -16.5s-33.333 -26 -45 -45s-20.167 -41.333 -25.5 -67
s-8 -52.834 -8 -81.501c0 -29.333 2.66699 -56.666 8 -81.999s13.833 -47.5 25.5 -66.5s26.667 -34 45 -45s40.5 -16.5 66.5 -16.5z" />
    <glyph glyph-name="ugrave" unicode="&#xf9;" horiz-adv-x="597" 
d="M302 45c6.66699 0 14.999 1.33301 24.999 4s20.333 6.66699 31 12s21.167 12 31.5 20s19.5 17.667 27.5 29v325l-70 15v35l158 30v-445l72 -15v-35l-140 -30l-20 60c-16 -13.333 -31 -24 -45 -32s-27.5 -14 -40.5 -18s-25.833 -6.66699 -38.5 -8s-25.667 -2 -39 -2
c-20.667 0 -41.167 3 -61.5 9s-38.5 14.667 -54.5 26s-29 25.5 -39 42.5s-15 36.5 -15 58.5v309l-69 15v35l158 30v-351c0 -34 9.83301 -62.333 29.5 -85s52.834 -34 99.501 -34zM174.999 720l120 30l90 -160l-44 -20z" />
    <glyph glyph-name="uacute" unicode="&#xfa;" horiz-adv-x="597" 
d="M302 45c6.66699 0 14.999 1.33301 24.999 4s20.333 6.66699 31 12s21.167 12 31.5 20s19.5 17.667 27.5 29v325l-70 15v35l158 30v-445l72 -15v-35l-140 -30l-20 60c-16 -13.333 -31 -24 -45 -32s-27.5 -14 -40.5 -18s-25.833 -6.66699 -38.5 -8s-25.667 -2 -39 -2
c-20.667 0 -41.167 3 -61.5 9s-38.5 14.667 -54.5 26s-29 25.5 -39 42.5s-15 36.5 -15 58.5v309l-69 15v35l158 30v-351c0 -34 9.83301 -62.333 29.5 -85s52.834 -34 99.501 -34zM231.999 570l-44 20l90 160l120 -30z" />
    <glyph glyph-name="ucircumflex" unicode="&#xfb;" horiz-adv-x="597" 
d="M302 45c6.66699 0 14.999 1.33301 24.999 4s20.333 6.66699 31 12s21.167 12 31.5 20s19.5 17.667 27.5 29v325l-70 15v35l158 30v-445l72 -15v-35l-140 -30l-20 60c-16 -13.333 -31 -24 -45 -32s-27.5 -14 -40.5 -18s-25.833 -6.66699 -38.5 -8s-25.667 -2 -39 -2
c-20.667 0 -41.167 3 -61.5 9s-38.5 14.667 -54.5 26s-29 25.5 -39 42.5s-15 36.5 -15 58.5v309l-69 15v35l158 30v-351c0 -34 9.83301 -62.333 29.5 -85s52.834 -34 99.501 -34zM335.999 750l114 -136l-47 -30l-110 90l-107 -84l-40 31l106 129h84z" />
    <glyph glyph-name="udieresis" unicode="&#xfc;" horiz-adv-x="597" 
d="M302 45c6.66699 0 14.999 1.33301 24.999 4s20.333 6.66699 31 12s21.167 12 31.5 20s19.5 17.667 27.5 29v325l-70 15v35l158 30v-445l72 -15v-35l-140 -30l-20 60c-16 -13.333 -31 -24 -45 -32s-27.5 -14 -40.5 -18s-25.833 -6.66699 -38.5 -8s-25.667 -2 -39 -2
c-20.667 0 -41.167 3 -61.5 9s-38.5 14.667 -54.5 26s-29 25.5 -39 42.5s-15 36.5 -15 58.5v309l-69 15v35l158 30v-351c0 -34 9.83301 -62.333 29.5 -85s52.834 -34 99.501 -34zM247.999 680v-70l-20 -20h-70l-20 20v70l20 20h70zM431.999 680v-70l-20 -20h-70l-20 20v70
l20 20h70z" />
    <glyph glyph-name="yacute" unicode="&#xfd;" horiz-adv-x="582" 
d="M198 -270l-94 49l137 211v10l-181 440l-70 25v35h237v-35l-70 -25l114 -297v-49l6 1l131 345l-70 25v35h199v-35l-70 -25zM260 570l-44 20l90 160l120 -30z" />
    <glyph glyph-name="ydieresis" unicode="&#xff;" horiz-adv-x="582" 
d="M215 -270l-94 49l137 211v10l-181 440l-70 25v35h237v-35l-70 -25l114 -297v-49l6 1l131 345l-70 25v35h199v-35l-70 -25zM261 680v-70l-20 -20h-70l-20 20v70l20 20h70zM445 680v-70l-20 -20h-70l-20 20v70l20 20h70z" />
    <glyph glyph-name="Amacron" unicode="&#x100;" horiz-adv-x="644" 
d="M413 206h-248l-52 -146l90 -25v-35h-218v35l70 25l235 655h40l249 -655l70 -25v-35h-266v35l85 25zM182 256h213l-109 292zM192 801v65h259v-65h-259z" />
    <glyph glyph-name="amacron" unicode="&#x101;" horiz-adv-x="517" 
d="M206 460c-6 0 -14.4971 -1.16797 -25.4971 -3.50098s-24.5 -6.16602 -40.5 -11.499l-35 -85h-50v115c14.667 6 30.5 11.167 47.5 15.5s33.667 8 50 11s31.5 5.16699 45.5 6.5s25.333 2 34 2c52.667 0 95.167 -11.833 127.5 -35.5s48.5 -60.834 48.5 -111.501v-293l70 -15
v-35l-140 -30l-20 60c-26.667 -21.333 -52.834 -36.666 -78.501 -45.999s-48.167 -14 -67.5 -14c-23.333 0 -44.333 3.33301 -63 10s-34.5 16 -47.5 28s-23 26 -30 42s-10.5 33.667 -10.5 53c0 18 4.16699 36.333 12.5 55s23.666 35.5 45.999 50.5s52.666 27.333 90.999 37
s87.5 14.5 147.5 14.5v71c0 40 -9.16699 68.167 -27.5 84.5s-46.5 24.5 -84.5 24.5zM318.003 234.999c-38.667 0 -71.167 -2.66797 -97.5 -8.00098s-47.5 -12.833 -63.5 -22.5s-27.333 -21.5 -34 -35.5s-10 -29.333 -10 -46s3.66699 -30.167 11 -40.5
s15.833 -18.166 25.5 -23.499s19.5 -9 29.5 -11s17.667 -3 23 -3c19.333 0 39.5 6 60.5 18s39.5 27.667 55.5 47v125zM109.003 664.998v65h259v-65h-259z" />
    <glyph glyph-name="Abreve" unicode="&#x102;" horiz-adv-x="639" 
d="M413 206h-248l-52 -146l90 -25v-35h-218v35l70 25l235 655h40l249 -655l70 -25v-35h-266v35l85 25zM182 256h213l-109 292zM221 920c2.66699 -16 7.50488 -29.168 14.5049 -39.501s15 -18.5 24 -24.5s18.5 -10.167 28.5 -12.5s19.667 -3.5 29 -3.5
s19.166 1.33301 29.499 4s20.166 7.16699 29.499 13.5s17.666 14.666 24.999 24.999s12.666 22.833 15.999 37.5l49 -15c-2.66699 -21.333 -8.33398 -40.333 -17.001 -57s-19.5 -30.667 -32.5 -42s-28 -20.166 -45 -26.499s-35.167 -9.5 -54.5 -9.5
c-38 0 -70 11.833 -96 35.5s-42.333 56.834 -49 99.501z" />
    <glyph glyph-name="abreve" unicode="&#x103;" horiz-adv-x="502" 
d="M206 460c-6 0 -14.4971 -1.16797 -25.4971 -3.50098s-24.5 -6.16602 -40.5 -11.499l-35 -85h-50v115c14.667 6 30.5 11.167 47.5 15.5s33.667 8 50 11s31.5 5.16699 45.5 6.5s25.333 2 34 2c52.667 0 95.167 -11.833 127.5 -35.5s48.5 -60.834 48.5 -111.501v-293l70 -15
v-35l-140 -30l-20 60c-26.667 -21.333 -52.834 -36.666 -78.501 -45.999s-48.167 -14 -67.5 -14c-23.333 0 -44.333 3.33301 -63 10s-34.5 16 -47.5 28s-23 26 -30 42s-10.5 33.667 -10.5 53c0 18 4.16699 36.333 12.5 55s23.666 35.5 45.999 50.5s52.666 27.333 90.999 37
s87.5 14.5 147.5 14.5v71c0 40 -9.16699 68.167 -27.5 84.5s-46.5 24.5 -84.5 24.5zM318.003 234.999c-38.667 0 -71.167 -2.66797 -97.5 -8.00098s-47.5 -12.833 -63.5 -22.5s-27.333 -21.5 -34 -35.5s-10 -29.333 -10 -46s3.66699 -30.167 11 -40.5
s15.833 -18.166 25.5 -23.499s19.5 -9 29.5 -11s17.667 -3 23 -3c19.333 0 39.5 6 60.5 18s39.5 27.667 55.5 47v125zM133.003 749.998c2.66699 -16 7.50488 -29.168 14.5049 -39.501s15 -18.5 24 -24.5s18.5 -10.167 28.5 -12.5s19.667 -3.5 29 -3.5
s19.166 1.33301 29.499 4s20.166 7.16699 29.499 13.5s17.666 14.666 24.999 24.999s12.666 22.833 15.999 37.5l49 -15c-2.66699 -21.333 -8.33398 -40.333 -17.001 -57s-19.5 -30.667 -32.5 -42s-28 -20.166 -45 -26.499s-35.167 -9.5 -54.5 -9.5
c-38 0 -70 11.833 -96 35.5s-42.333 56.834 -49 99.501z" />
    <glyph glyph-name="Aogonek" unicode="&#x104;" horiz-adv-x="644" 
d="M413 206h-248l-52 -146l90 -25v-35h-218v35l70 25l235 655h40l249 -655l70 -25v-35h-266v35l85 25zM182 256h213l-109 292zM589 -203c-7.33301 -3.33301 -16.5 -5.66699 -27.5 -7s-20.833 -2 -29.5 -2c-15.333 0 -30 2.16699 -44 6.5s-26.5 10.833 -37.5 19.5
s-19.833 19.5 -26.5 32.5s-10 28.167 -10 45.5c0 9.33301 2 19.666 6 30.999s10.333 22.5 19 33.5s19.667 21.167 33 30.5s29.333 17 48 23h54c-54.667 -33.333 -82 -68.666 -82 -105.999c0 -21.333 6 -38.333 18 -51s25.667 -19 41 -19c4.66699 0 9.5 0.333008 14.5 1
s9.16699 1.66699 12.5 3z" />
    <glyph glyph-name="aogonek" unicode="&#x105;" horiz-adv-x="517" 
d="M206 460c-6 0 -14.4971 -1.16797 -25.4971 -3.50098s-24.5 -6.16602 -40.5 -11.499l-35 -85h-50v115c14.667 6 30.5 11.167 47.5 15.5s33.667 8 50 11s31.5 5.16699 45.5 6.5s25.333 2 34 2c52.667 0 95.167 -11.833 127.5 -35.5s48.5 -60.834 48.5 -111.501v-293l70 -15
v-35l-140 -30l-20 60c-26.667 -21.333 -52.834 -36.666 -78.501 -45.999s-48.167 -14 -67.5 -14c-23.333 0 -44.333 3.33301 -63 10s-34.5 16 -47.5 28s-23 26 -30 42s-10.5 33.667 -10.5 53c0 18 4.16699 36.333 12.5 55s23.666 35.5 45.999 50.5s52.666 27.333 90.999 37
s87.5 14.5 147.5 14.5v71c0 40 -9.16699 68.167 -27.5 84.5s-46.5 24.5 -84.5 24.5zM318.003 234.999c-38.667 0 -71.167 -2.66797 -97.5 -8.00098s-47.5 -12.833 -63.5 -22.5s-27.333 -21.5 -34 -35.5s-10 -29.333 -10 -46s3.66699 -30.167 11 -40.5
s15.833 -18.166 25.5 -23.499s19.5 -9 29.5 -11s17.667 -3 23 -3c19.333 0 39.5 6 60.5 18s39.5 27.667 55.5 47v125zM467.003 -203.002c-7.33301 -3.33301 -16.5 -5.66699 -27.5 -7s-20.833 -2 -29.5 -2c-15.333 0 -30 2.16699 -44 6.5s-26.5 10.833 -37.5 19.5
s-19.833 19.5 -26.5 32.5s-10 28.167 -10 45.5c0 9.33301 2 19.666 6 30.999s10.333 22.5 19 33.5s19.667 21.167 33 30.5s29.333 17 48 23h54c-54.667 -33.333 -82 -68.666 -82 -105.999c0 -21.333 6 -38.333 18 -51s25.667 -19 41 -19c4.66699 0 9.5 0.333008 14.5 1
s9.16699 1.66699 12.5 3z" />
    <glyph glyph-name="Cacute" unicode="&#x106;" horiz-adv-x="630" 
d="M389 -10c-44.667 0 -87.1709 7.00293 -127.504 21.0029s-75.833 35.5 -106.5 64.5s-55 65.833 -73 110.5s-27 98 -27 160c0 55.333 9.66699 105.5 29 150.5s45.333 83.333 78 115s69.834 56 111.501 73s85.167 25.5 130.5 25.5c18 0 36.333 -1 55 -3s36 -4.83301 52 -8.5
s30.5 -7.5 43.5 -11.5s23.167 -8 30.5 -12v-150h-50l-50 120c-17.333 5.33301 -34.833 9.16602 -52.5 11.499s-32.167 3.5 -43.5 3.5c-30 0 -59 -6.33301 -87 -19s-52.667 -31.667 -74 -57s-38.333 -57 -51 -95s-19 -82.333 -19 -133c0 -44 6.83301 -85.333 20.5 -124
s31.834 -72.167 54.501 -100.5s48.5 -50.666 77.5 -66.999s58.5 -24.5 88.5 -24.5c19.333 0 34.833 1.16699 46.5 3.5s24.834 6.16602 39.501 11.499l50 130h50v-150c-13.333 -8.66699 -29.666 -15.834 -48.999 -21.501s-38.5 -10.334 -57.5 -14.001
s-36.667 -6.16699 -53 -7.5s-28.5 -2 -36.5 -2zM323.996 740.003l-44 20l90 160l120 -30z" />
    <glyph glyph-name="cacute" unicode="&#x107;" horiz-adv-x="480" 
d="M360 445c-12.667 6.66699 -26.5029 10.833 -41.5029 12.5s-25.167 2.5 -30.5 2.5c-18 0 -36 -4.5 -54 -13.5s-34.167 -22 -48.5 -39s-26 -37.833 -35 -62.5s-13.5 -52.334 -13.5 -83.001c0 -34 5.16699 -64.167 15.5 -90.5s23.833 -48.5 40.5 -66.5
s35.334 -31.667 56.001 -41s41.334 -14 62.001 -14c24.667 0 48 3.5 70 10.5s37.667 12.833 47 17.5l17 -31c-28 -19.333 -56.167 -33.333 -84.5 -42s-55.833 -13 -82.5 -13c-38 0 -71.667 6.5 -101 19.5s-53.666 31 -72.999 54s-34 50.5 -44 82.5s-15 66.667 -15 104
c0 34.667 6.5 67.667 19.5 99s30.833 58.833 53.5 82.5s49.5 42.334 80.5 56.001s64.167 20.5 99.5 20.5c10.667 0 22.5 -1 35.5 -3s26.333 -4.5 40 -7.5s26.667 -6.66699 39 -11s22.833 -8.83301 31.5 -13.5v-115h-50zM278.997 569.999l-44 20l90 160l120 -30z" />
    <glyph glyph-name="Ccaron" unicode="&#x10c;" horiz-adv-x="630" 
d="M389 -10c-44.667 0 -87.1709 7.00293 -127.504 21.0029s-75.833 35.5 -106.5 64.5s-55 65.833 -73 110.5s-27 98 -27 160c0 55.333 9.66699 105.5 29 150.5s45.333 83.333 78 115s69.834 56 111.501 73s85.167 25.5 130.5 25.5c18 0 36.333 -1 55 -3s36 -4.83301 52 -8.5
s30.5 -7.5 43.5 -11.5s23.167 -8 30.5 -12v-150h-50l-50 120c-17.333 5.33301 -34.833 9.16602 -52.5 11.499s-32.167 3.5 -43.5 3.5c-30 0 -59 -6.33301 -87 -19s-52.667 -31.667 -74 -57s-38.333 -57 -51 -95s-19 -82.333 -19 -133c0 -44 6.83301 -85.333 20.5 -124
s31.834 -72.167 54.501 -100.5s48.5 -50.666 77.5 -66.999s58.5 -24.5 88.5 -24.5c19.333 0 34.833 1.16699 46.5 3.5s24.834 6.16602 39.501 11.499l50 130h50v-150c-13.333 -8.66699 -29.666 -15.834 -48.999 -21.501s-38.5 -10.334 -57.5 -14.001
s-36.667 -6.16699 -53 -7.5s-28.5 -2 -36.5 -2zM321.996 748.003l-119 148l56 22l115 -101l111 103l42 -26l-120 -146h-85z" />
    <glyph glyph-name="ccaron" unicode="&#x10d;" horiz-adv-x="480" 
d="M360 445c-12.667 6.66699 -26.5029 10.833 -41.5029 12.5s-25.167 2.5 -30.5 2.5c-18 0 -36 -4.5 -54 -13.5s-34.167 -22 -48.5 -39s-26 -37.833 -35 -62.5s-13.5 -52.334 -13.5 -83.001c0 -34 5.16699 -64.167 15.5 -90.5s23.833 -48.5 40.5 -66.5
s35.334 -31.667 56.001 -41s41.334 -14 62.001 -14c24.667 0 48 3.5 70 10.5s37.667 12.833 47 17.5l17 -31c-28 -19.333 -56.167 -33.333 -84.5 -42s-55.833 -13 -82.5 -13c-38 0 -71.667 6.5 -101 19.5s-53.666 31 -72.999 54s-34 50.5 -44 82.5s-15 66.667 -15 104
c0 34.667 6.5 67.667 19.5 99s30.833 58.833 53.5 82.5s49.5 42.334 80.5 56.001s64.167 20.5 99.5 20.5c10.667 0 22.5 -1 35.5 -3s26.333 -4.5 40 -7.5s26.667 -6.66699 39 -11s22.833 -8.83301 31.5 -13.5v-115h-50zM236.997 577.999l-119 148l56 22l115 -101l111 103
l42 -26l-120 -146h-85z" />
    <glyph glyph-name="Dcaron" unicode="&#x10e;" horiz-adv-x="727" 
d="M567 361c0 30 -2.83301 62 -8.5 96s-16.167 65.333 -31.5 94s-36.5 52.334 -63.5 71.001s-61.833 28 -104.5 28h-134v-600h134c42.667 0 77.667 10.5 105 31.5s48.5 47.167 63.5 78.5s25.333 65.166 31 101.499s8.5 69.5 8.5 99.5zM125 640l-90 25.0029v35h324
c52 0 97.833 -9.66699 137.5 -29s72.834 -44.833 99.501 -76.5s46.834 -67.834 60.501 -108.501s20.5 -82.334 20.5 -125.001c0 -43.333 -6.83301 -86.333 -20.5 -129s-33.834 -81.334 -60.501 -116.001s-59.834 -62.667 -99.501 -84s-85.5 -32 -137.5 -32h-324v35l90 25
v580zM270 748.003l-119 148l56 22l115 -101l111 103l42 -26l-120 -146h-85z" />
    <glyph glyph-name="dcaron" unicode="&#x10f;" horiz-adv-x="703" 
d="M280 50c24 0 46 5.16797 66 15.501s39 25.166 57 44.499v292c-18 23.333 -38 38.833 -60 46.5s-43 11.5 -63 11.5c-23.333 0 -43.833 -5.5 -61.5 -16.5s-32.5 -26 -44.5 -45s-21 -41.333 -27 -67s-9 -52.834 -9 -81.501c0 -29.333 2.5 -56.166 7.5 -80.499
s13.167 -45.333 24.5 -63s26 -31.5 44 -41.5s40 -15 66 -15zM403 50.001l-24 -17.002c-9.33301 -6.66699 -20.166 -13.167 -32.499 -19.5s-26.5 -11.833 -42.5 -16.5s-34 -7 -54 -7c-36 0 -66.833 6.16699 -92.5 18.5s-46.834 29 -63.501 50s-29 45.333 -37 73
s-12 57.167 -12 88.5c0 32.667 4.16699 66.167 12.5 100.5s22.5 65.5 42.5 93.5s46.333 51 79 69s73 27 121 27c4.66699 0 11.167 -0.666992 19.5 -2s17.333 -3.16602 27 -5.49902s19.5 -5.16602 29.5 -8.49902s19 -7.33301 27 -12v178l-70 15v35l158 30v-670l72 -15v-35
l-140 -30zM593 589.999l-19.998 20.001v70l20 20h70l20 -20v-36c0 -12 -1 -26 -3 -42s-7.33301 -32.333 -16 -49s-21.334 -33.167 -38.001 -49.5s-39.334 -30.833 -68.001 -43.5l-15 20c8 5.33301 16.167 12.166 24.5 20.499s15.833 17.5 22.5 27.5s12.167 20.333 16.5 31
s6.5 21 6.5 31h-20z" />
    <glyph glyph-name="Emacron" unicode="&#x112;" 
d="M371 337h-146v-287h270l60 110h50l-22 -160h-548v35l90 25v580l-90 25v35h533l17 -150h-50l-50 100h-260v-263h147l24 89h35v-228h-35zM200 801v65h259v-65h-259z" />
    <glyph glyph-name="emacron" unicode="&#x113;" horiz-adv-x="533" 
d="M111 308l280 0.00292969c0 48 -10.167 85.333 -30.5 112s-48.833 40 -85.5 40c-27.333 0 -49.833 -5.33301 -67.5 -16s-31.667 -24.5 -42 -41.5s-17.5 -36.333 -21.5 -58s-6 -43.167 -6 -64.5c0 -71.333 13 -127.5 39 -168.5s68.667 -61.5 128 -61.5
c30 0 58 4.16699 84 12.5s48.667 17.833 68 28.5l17 -31c-18.667 -14 -35.5 -25.5 -50.5 -34.5s-30 -16.167 -45 -21.5s-30.833 -9 -47.5 -11s-35.334 -3 -56.001 -3c-35.333 0 -67.166 6.16699 -95.499 18.5s-52.5 29.666 -72.5 51.999s-35.333 49 -46 80
s-16 65.167 -16 102.5c0 36 5.33301 70.167 16 102.5s26 60.666 46 84.999s44.167 43.666 72.5 57.999s60.166 21.5 95.499 21.5c65.333 0 116.333 -20.5 153 -61.5s54.334 -104.5 53.001 -190.5h-370v50zM147 636.003v65h259v-65h-259z" />
    <glyph glyph-name="Edotaccent" unicode="&#x116;" 
d="M371 337h-146v-287h270l60 110h50l-22 -160h-548v35l90 25v580l-90 25v35h533l17 -150h-50l-50 100h-260v-263h147l24 89h35v-228h-35zM385 880v-70l-20 -20h-70l-20 20v70l20 20h70z" />
    <glyph glyph-name="edotaccent" unicode="&#x117;" horiz-adv-x="533" 
d="M111 308l280 0.00292969c0 48 -10.167 85.333 -30.5 112s-48.833 40 -85.5 40c-27.333 0 -49.833 -5.33301 -67.5 -16s-31.667 -24.5 -42 -41.5s-17.5 -36.333 -21.5 -58s-6 -43.167 -6 -64.5c0 -71.333 13 -127.5 39 -168.5s68.667 -61.5 128 -61.5
c30 0 58 4.16699 84 12.5s48.667 17.833 68 28.5l17 -31c-18.667 -14 -35.5 -25.5 -50.5 -34.5s-30 -16.167 -45 -21.5s-30.833 -9 -47.5 -11s-35.334 -3 -56.001 -3c-35.333 0 -67.166 6.16699 -95.499 18.5s-52.5 29.666 -72.5 51.999s-35.333 49 -46 80
s-16 65.167 -16 102.5c0 36 5.33301 70.167 16 102.5s26 60.666 46 84.999s44.167 43.666 72.5 57.999s60.166 21.5 95.499 21.5c65.333 0 116.333 -20.5 153 -61.5s54.334 -104.5 53.001 -190.5h-370v50zM331 720.003v-70l-20 -20h-70l-20 20v70l20 20h70z" />
    <glyph glyph-name="Eogonek" unicode="&#x118;" 
d="M371 337h-146v-287h270l60 110h50l-22 -160h-548v35l90 25v580l-90 25v35h533l17 -150h-50l-50 100h-260v-263h147l24 89h35v-228h-35zM395 -203c-7.33301 -3.33301 -16.5 -5.66699 -27.5 -7s-20.833 -2 -29.5 -2c-15.333 0 -30 2.16699 -44 6.5s-26.5 10.833 -37.5 19.5
s-19.833 19.5 -26.5 32.5s-10 28.167 -10 45.5c0 9.33301 2 19.666 6 30.999s10.333 22.5 19 33.5s19.667 21.167 33 30.5s29.333 17 48 23h54c-54.667 -33.333 -82 -68.666 -82 -105.999c0 -21.333 6 -38.333 18 -51s25.667 -19 41 -19c4.66699 0 9.5 0.333008 14.5 1
s9.16699 1.66699 12.5 3z" />
    <glyph glyph-name="eogonek" unicode="&#x119;" horiz-adv-x="533" 
d="M111 308l280 0.00292969c0 48 -10.167 85.333 -30.5 112s-48.833 40 -85.5 40c-27.333 0 -49.833 -5.33301 -67.5 -16s-31.667 -24.5 -42 -41.5s-17.5 -36.333 -21.5 -58s-6 -43.167 -6 -64.5c0 -71.333 13 -127.5 39 -168.5s68.667 -61.5 128 -61.5
c30 0 58 4.16699 84 12.5s48.667 17.833 68 28.5l17 -31c-18.667 -14 -35.5 -25.5 -50.5 -34.5s-30 -16.167 -45 -21.5s-30.833 -9 -47.5 -11s-35.334 -3 -56.001 -3c-35.333 0 -67.166 6.16699 -95.499 18.5s-52.5 29.666 -72.5 51.999s-35.333 49 -46 80
s-16 65.167 -16 102.5c0 36 5.33301 70.167 16 102.5s26 60.666 46 84.999s44.167 43.666 72.5 57.999s60.166 21.5 95.499 21.5c65.333 0 116.333 -20.5 153 -61.5s54.334 -104.5 53.001 -190.5h-370v50zM344 -202.997c-7.33301 -3.33301 -16.5 -5.66699 -27.5 -7
s-20.833 -2 -29.5 -2c-15.333 0 -30 2.16699 -44 6.5s-26.5 10.833 -37.5 19.5s-19.833 19.5 -26.5 32.5s-10 28.167 -10 45.5c0 9.33301 2 19.666 6 30.999s10.333 22.5 19 33.5s19.667 21.167 33 30.5s29.333 17 48 23h54c-54.667 -33.333 -82 -68.666 -82 -105.999
c0 -21.333 6 -38.333 18 -51s25.667 -19 41 -19c4.66699 0 9.5 0.333008 14.5 1s9.16699 1.66699 12.5 3z" />
    <glyph glyph-name="Ecaron" unicode="&#x11a;" 
d="M371 337h-146v-287h270l60 110h50l-22 -160h-548v35l90 25v580l-90 25v35h533l17 -150h-50l-50 100h-260v-263h147l24 89h35v-228h-35zM287 728l-119 148l56 22l115 -101l111 103l42 -26l-120 -146h-85z" />
    <glyph glyph-name="ecaron" unicode="&#x11b;" horiz-adv-x="533" 
d="M111 308l280 0.00292969c0 48 -10.167 85.333 -30.5 112s-48.833 40 -85.5 40c-27.333 0 -49.833 -5.33301 -67.5 -16s-31.667 -24.5 -42 -41.5s-17.5 -36.333 -21.5 -58s-6 -43.167 -6 -64.5c0 -71.333 13 -127.5 39 -168.5s68.667 -61.5 128 -61.5
c30 0 58 4.16699 84 12.5s48.667 17.833 68 28.5l17 -31c-18.667 -14 -35.5 -25.5 -50.5 -34.5s-30 -16.167 -45 -21.5s-30.833 -9 -47.5 -11s-35.334 -3 -56.001 -3c-35.333 0 -67.166 6.16699 -95.499 18.5s-52.5 29.666 -72.5 51.999s-35.333 49 -46 80
s-16 65.167 -16 102.5c0 36 5.33301 70.167 16 102.5s26 60.666 46 84.999s44.167 43.666 72.5 57.999s60.166 21.5 95.499 21.5c65.333 0 116.333 -20.5 153 -61.5s54.334 -104.5 53.001 -190.5h-370v50zM233 578.003l-119 148l56 22l115 -101l111 103l42 -26l-120 -146
h-85z" />
    <glyph glyph-name="uni0122" unicode="&#x122;" horiz-adv-x="706" 
d="M359 -179l-19.998 20.001v70l20 20h70l20 -20v-36c0 -12 -1 -26 -3 -42s-7.33301 -32.333 -16 -49s-21.334 -33.167 -38.001 -49.5s-39.334 -30.833 -68.001 -43.5l-15 20c8 5.33301 16.167 12.166 24.5 20.499s15.833 17.5 22.5 27.5s12.167 20.333 16.5 31
s6.5 21 6.5 31h-20zM496.002 237.001l-109.998 24.9971v35h280v-35l-70 -25v-178c-18 -17.333 -38 -30.5 -60 -39.5s-43.5 -15.833 -64.5 -20.5s-39.833 -7.33398 -56.5 -8.00098s-29 -1 -37 -1c-39.333 0 -78.5 6.83301 -117.5 20.5s-74.167 34.834 -105.5 63.501
s-56.666 65.334 -75.999 110.001s-29 98 -29 160c0 52.667 9.66699 101.334 29 146.001s45.666 83.334 78.999 116.001s72 58.167 116 76.5s90.667 27.5 140 27.5c25.333 0 53 -2.66699 83 -8s63 -14.333 99 -27v-140h-50l-51 110
c-8.66699 2.66699 -17.834 4.83398 -27.501 6.50098s-19 3.16699 -28 4.5s-17 2.33301 -24 3s-12.5 1 -16.5 1c-30 0 -59.5 -6.33301 -88.5 -19s-54.833 -31.667 -77.5 -57s-40.834 -57 -54.501 -95s-20.5 -82.333 -20.5 -133c0 -42 6.83301 -82 20.5 -120
s32.167 -71.5 55.5 -100.5s50 -52.167 80 -69.5s61.667 -26 95 -26c13.333 0 27.833 1.16699 43.5 3.5s30.167 6.16602 43.5 11.499v182z" />
    <glyph glyph-name="uni0123" unicode="&#x123;" horiz-adv-x="519" 
d="M24 -108c0 14.667 2.99805 28.832 8.99805 42.499s13.333 26.5 22 38.5s18.167 22.5 28.5 31.5s19.833 16.167 28.5 21.5l35 -20c-13.333 -15.333 -23 -29.5 -29 -42.5s-9.66699 -28.833 -11 -47.5c-0.666992 -12.667 1.83301 -25 7.5 -37s14.834 -22.5 27.501 -31.5
s29.167 -16.333 49.5 -22s44.833 -8.5 73.5 -8.5c10.667 0 24.334 1.16699 41.001 3.5s32.667 7 48 14s28.5 16.833 39.5 29.5s16.5 29 16.5 49c0 12 -2.16699 21.667 -6.5 29s-10 13.333 -17 18s-14.667 8.16699 -23 10.5s-16.5 4.16602 -24.5 5.49902
c-16.667 2.66699 -36.667 5 -60 7s-43 4 -59 6c-15.333 2 -30.666 4.33301 -45.999 7s-29.5 6.83398 -42.5 12.501s-23.5 13.5 -31.5 23.5s-12 23.333 -12 40c0 6.66699 2.66699 15.334 8 26.001s11.666 21.5 18.999 32.5l21.5 31.5c7 10 12.167 17.667 15.5 23l41 -14
c-3.33301 -9.33301 -6.5 -17.666 -9.5 -24.999s-5.83301 -14.666 -8.5 -21.999c-4 -12 -4.66699 -21.5 -2 -28.5s7.33398 -12.5 14.001 -16.5s14.667 -6.83301 24 -8.5s18.333 -2.83398 27 -3.50098l99 -10c20 -2 39.333 -5 58 -9s35.167 -10.5 49.5 -19.5
s25.833 -20.833 34.5 -35.5s13 -33.334 13 -56.001c0 -26 -6.5 -49.5 -19.5 -70.5s-30.333 -38.833 -52 -53.5s-46.834 -26 -75.501 -34s-59 -12 -91 -12c-29.333 0 -57.833 2.66699 -85.5 8s-52.167 13.166 -73.5 23.499s-38.5 23.333 -51.5 39s-19.5 33.834 -19.5 54.501z
M235.998 162.998c-25.333 0 -49.668 3.33203 -73.001 9.99902s-43.833 17 -61.5 31s-31.834 31.833 -42.501 53.5s-16 47.5 -16 77.5c0 24.667 4.5 47.667 13.5 69s21.833 39.833 38.5 55.5s36.834 28 60.501 37s50.5 13.5 80.5 13.5c2.66699 0 8.66699 -0.333008 18 -1
s20.5 -2.16699 33.5 -4.5s26.833 -5.5 41.5 -9.5s28.334 -9.33301 41.001 -16l148 30v-91l-125 39l-2 -5c14 -20.667 23.833 -40.167 29.5 -58.5s8.5 -39.833 8.5 -64.5c0 -26 -5.33301 -49.333 -16 -70s-25 -38.167 -43 -52.5s-38.667 -25.166 -62 -32.499
s-47.333 -11 -72 -11zM238.996 212.997c34 0 60.332 9.5 78.999 28.5s28 51.167 28 96.5c0 40 -11 71 -33 93s-49 33 -81 33c-34 0 -60.333 -11 -79 -33s-28 -53 -28 -93s10.833 -70.833 32.5 -92.5s48.834 -32.5 81.501 -32.5zM269.003 658.997l19.999 -19.998v-69.9951
l-19.999 -19.999h-69.9961l-19.998 19.999v35.9971c0 11.999 1 25.998 3 41.9971c1.99902 15.999 7.33203 32.3311 15.999 48.9971c8.66602 16.665 21.332 33.1641 37.9971 49.4971c16.666 16.332 39.3311 30.8311 67.9961 43.4971l14.999 -19.999
c-7.99902 -5.33301 -16.165 -12.166 -24.498 -20.499s-15.833 -17.499 -22.499 -27.498s-12.166 -20.332 -16.499 -30.998s-6.5 -20.999 -6.5 -30.998h19.999z" />
    <glyph glyph-name="Imacron" unicode="&#x12a;" horiz-adv-x="351" 
d="M125 640l-90 25v35h281v-35l-90 -25v-580l90 -25v-35h-281v35l90 25v580zM47 801v65h259v-65h-259z" />
    <glyph glyph-name="imacron" unicode="&#x12b;" horiz-adv-x="289" 
d="M264 35v-35h-229v35l70 25v375l-70 15v35l160 30v-455zM16 665v65h259v-65h-259z" />
    <glyph glyph-name="Iogonek" unicode="&#x12e;" horiz-adv-x="351" 
d="M125 640l-90 25v35h281v-35l-90 -25v-580l90 -25v-35h-281v35l90 25v580zM267 -203c-7.33301 -3.33301 -16.5 -5.66699 -27.5 -7s-20.833 -2 -29.5 -2c-15.333 0 -30 2.16699 -44 6.5s-26.5 10.833 -37.5 19.5s-19.833 19.5 -26.5 32.5s-10 28.167 -10 45.5
c0 9.33301 2 19.666 6 30.999s10.333 22.5 19 33.5s19.667 21.167 33 30.5s29.333 17 48 23h54c-54.667 -33.333 -82 -68.666 -82 -105.999c0 -21.333 6 -38.333 18 -51s25.667 -19 41 -19c4.66699 0 9.5 0.333008 14.5 1s9.16699 1.66699 12.5 3z" />
    <glyph glyph-name="iogonek" unicode="&#x12f;" horiz-adv-x="289" 
d="M264 35v-35h-229v35l70 25v375l-70 15v35l160 30v-455zM210 720v-70l-20 -20h-70l-20 20v70l20 20h70zM233 -203c-7.33301 -3.33301 -16.5 -5.66699 -27.5 -7s-20.833 -2 -29.5 -2c-15.333 0 -30 2.16699 -44 6.5s-26.5 10.833 -37.5 19.5s-19.833 19.5 -26.5 32.5
s-10 28.167 -10 45.5c0 9.33301 2 19.666 6 30.999s10.333 22.5 19 33.5s19.667 21.167 33 30.5s29.333 17 48 23h54c-54.667 -33.333 -82 -68.666 -82 -105.999c0 -21.333 6 -38.333 18 -51s25.667 -19 41 -19c4.66699 0 9.5 0.333008 14.5 1s9.16699 1.66699 12.5 3z" />
    <glyph glyph-name="dotlessi" unicode="&#x131;" horiz-adv-x="289" 
d="M264 35v-35h-229v35l70 25v375l-70 15v35l160 30v-455z" />
    <glyph glyph-name="uni0136" unicode="&#x136;" horiz-adv-x="684" 
d="M396 355l193 -295l90 -25v-35h-165l-216 330h-73v-270l90 -25v-35h-280v35l90 25v580l-90 25v35h280v-35l-90 -25v-260h119l143 260l-70 25v35h226v-35l-90 -25zM350 -179l-19.998 20.001v70l20 20h70l20 -20v-36c0 -12 -1 -26 -3 -42s-7.33301 -32.333 -16 -49
s-21.334 -33.167 -38.001 -49.5s-39.334 -30.833 -68.001 -43.5l-15 20c8 5.33301 16.167 12.166 24.5 20.499s15.833 17.5 22.5 27.5s12.167 20.333 16.5 31s6.5 21 6.5 31h-20z" />
    <glyph glyph-name="uni0137" unicode="&#x137;" horiz-adv-x="626" 
d="M300 -179l-19.998 20.001v70l20 20h70l20 -20v-36c0 -12 -1 -26 -3 -42s-7.33301 -32.333 -16 -49s-21.334 -33.167 -38.001 -49.5s-39.334 -30.833 -68.001 -43.5l-15 20c8 5.33301 16.167 12.166 24.5 20.499s15.833 17.5 22.5 27.5s12.167 20.333 16.5 31
s6.5 21 6.5 31h-20zM35.002 0.000976562v35l70 25v600l-70 15v35l158 30v-447h96l103 147l-70 25v35h208v-35l-70 -25l-120 -170l166 -210l70 -25v-35h-132l-195 243h-56v-183l70 -25v-35h-228z" />
    <glyph glyph-name="Lacute" unicode="&#x139;" horiz-adv-x="575" 
d="M115 60v580l-80 25v35h291v-35l-110 -25v-590h234l60 131h50l-22 -181h-503v35zM226 720l-44 20l90 160l120 -30z" />
    <glyph glyph-name="lacute" unicode="&#x13a;" horiz-adv-x="283" 
d="M263 35v-35h-228v35l70 25v600l-70 15v35l158 30v-680zM80 740l-44 20l90 160l120 -30z" />
    <glyph glyph-name="uni013B" unicode="&#x13b;" horiz-adv-x="597" 
d="M115 60v580l-80 25v35h291v-35l-110 -25v-590h234l60 131h50l-22 -181h-503v35zM300 -179l-19.998 20.001v70l20 20h70l20 -20v-36c0 -12 -1 -26 -3 -42s-7.33301 -32.333 -16 -49s-21.334 -33.167 -38.001 -49.5s-39.334 -30.833 -68.001 -43.5l-15 20
c8 5.33301 16.167 12.166 24.5 20.499s15.833 17.5 22.5 27.5s12.167 20.333 16.5 31s6.5 21 6.5 31h-20z" />
    <glyph glyph-name="uni013C" unicode="&#x13c;" horiz-adv-x="308" 
d="M268 35v-35h-228v35l70 25v600l-70 15v35l158 30v-680zM116 -179l-19.998 20.001v70l20 20h70l20 -20v-36c0 -12 -1 -26 -3 -42s-7.33301 -32.333 -16 -49s-21.334 -33.167 -38.001 -49.5s-39.334 -30.833 -68.001 -43.5l-15 20c8 5.33301 16.167 12.166 24.5 20.499
s15.833 17.5 22.5 27.5s12.167 20.333 16.5 31s6.5 21 6.5 31h-20z" />
    <glyph glyph-name="Lcaron" unicode="&#x13d;" horiz-adv-x="575" 
d="M115 60v580l-80 25v35h291v-35l-110 -25v-590h234l60 131h50l-22 -181h-503v35zM397 590l-19.998 20.001v70l20 20h70l20 -20v-36c0 -12 -1 -26 -3 -42s-7.33301 -32.333 -16 -49s-21.334 -33.167 -38.001 -49.5s-39.334 -30.833 -68.001 -43.5l-15 20
c8 5.33301 16.167 12.166 24.5 20.499s15.833 17.5 22.5 27.5s12.167 20.333 16.5 31s6.5 21 6.5 31h-20z" />
    <glyph glyph-name="lcaron" unicode="&#x13e;" horiz-adv-x="443" 
d="M263 35v-35h-228v35l70 25v600l-70 15v35l158 30v-680zM313 590l-19.998 20.001v70l20 20h70l20 -20v-36c0 -12 -1 -26 -3 -42s-7.33301 -32.333 -16 -49s-21.334 -33.167 -38.001 -49.5s-39.334 -30.833 -68.001 -43.5l-15 20c8 5.33301 16.167 12.166 24.5 20.499
s15.833 17.5 22.5 27.5s12.167 20.333 16.5 31s6.5 21 6.5 31h-20z" />
    <glyph glyph-name="Lslash" unicode="&#x141;" horiz-adv-x="583" 
d="M16 367l295 147v-50l-295 -147v50zM115 60v580l-80 25v35h291v-35l-110 -25v-590h234l60 131h50l-22 -181h-503v35z" />
    <glyph glyph-name="lslash" unicode="&#x142;" horiz-adv-x="273" 
d="M30 364l295 147v-50l-295 -147v50zM293 35v-35h-228v35l70 25v600l-70 15v35l158 30v-680z" />
    <glyph glyph-name="Nacute" unicode="&#x143;" horiz-adv-x="731" 
d="M472 665v35h239v-35l-90 -25v-640h-47l-392 530v-470l90 -25v-35h-237v35l90 25v541l-30 39l-60 25v35h142l385 -520v460zM304 720l-44 20l90 160l120 -30z" />
    <glyph glyph-name="nacute" unicode="&#x144;" horiz-adv-x="608" 
d="M30 450l-0.00390625 35.001l148 30l10 -65c36.667 19.333 68.834 34.166 96.501 44.499s50.834 15.5 69.501 15.5c30.667 0 56.5 -4.16699 77.5 -12.5s37.833 -20 50.5 -35s21.834 -32.667 27.501 -53s8.5 -42.5 8.5 -66.5v-283l70 -25v-35h-230v35l70 25v275
c0 34 -8.66699 60.167 -26 78.5s-49.333 27.5 -96 27.5c-35.333 0 -74.666 -10.333 -117.999 -31v-350l70 -25v-35h-228v35l70 25v375zM242.996 570.001l-44 20l90 160l120 -30z" />
    <glyph glyph-name="uni0145" unicode="&#x145;" horiz-adv-x="751" 
d="M350 -179l-19.998 20.001v70l20 20h70l20 -20v-36c0 -12 -1 -26 -3 -42s-7.33301 -32.333 -16 -49s-21.334 -33.167 -38.001 -49.5s-39.334 -30.833 -68.001 -43.5l-15 20c8 5.33301 16.167 12.166 24.5 20.499s15.833 17.5 22.5 27.5s12.167 20.333 16.5 31
s6.5 21 6.5 31h-20zM472.002 665.001v35h239v-35l-90 -25v-640h-47l-392 530v-470l90 -25v-35h-237v35l90 25v541l-30 39l-60 25v35h142l385 -520v460z" />
    <glyph glyph-name="uni0146" unicode="&#x146;" horiz-adv-x="618" 
d="M290 -179l-19.998 20.001v70l20 20h70l20 -20v-36c0 -12 -1 -26 -3 -42s-7.33301 -32.333 -16 -49s-21.334 -33.167 -38.001 -49.5s-39.334 -30.833 -68.001 -43.5l-15 20c8 5.33301 16.167 12.166 24.5 20.499s15.833 17.5 22.5 27.5s12.167 20.333 16.5 31
s6.5 21 6.5 31h-20zM30.002 450.001l-0.00390625 35.001l148 30l10 -65c36.667 19.333 68.834 34.166 96.501 44.499s50.834 15.5 69.501 15.5c30.667 0 56.5 -4.16699 77.5 -12.5s37.833 -20 50.5 -35s21.834 -32.667 27.501 -53s8.5 -42.5 8.5 -66.5v-283l70 -25v-35h-230
v35l70 25v275c0 34 -8.66699 60.167 -26 78.5s-49.333 27.5 -96 27.5c-35.333 0 -74.666 -10.333 -117.999 -31v-350l70 -25v-35h-228v35l70 25v375z" />
    <glyph glyph-name="Ncaron" unicode="&#x147;" horiz-adv-x="731" 
d="M472 665v35h239v-35l-90 -25v-640h-47l-392 530v-470l90 -25v-35h-237v35l90 25v541l-30 39l-60 25v35h142l385 -520v460zM322 728l-119 148l56 22l115 -101l111 103l42 -26l-120 -146h-85z" />
    <glyph glyph-name="ncaron" unicode="&#x148;" horiz-adv-x="608" 
d="M30 450l-0.00390625 35.001l148 30l10 -65c36.667 19.333 68.834 34.166 96.501 44.499s50.834 15.5 69.501 15.5c30.667 0 56.5 -4.16699 77.5 -12.5s37.833 -20 50.5 -35s21.834 -32.667 27.501 -53s8.5 -42.5 8.5 -66.5v-283l70 -25v-35h-230v35l70 25v275
c0 34 -8.66699 60.167 -26 78.5s-49.333 27.5 -96 27.5c-35.333 0 -74.666 -10.333 -117.999 -31v-350l70 -25v-35h-228v35l70 25v375zM260.996 578.001l-119 148l56 22l115 -101l111 103l42 -26l-120 -146h-85z" />
    <glyph glyph-name="Omacron" unicode="&#x14c;" horiz-adv-x="732" 
d="M366 710c51.333 0 96.333 -9.16895 135 -27.502s71 -43.666 97 -75.999s45.667 -70.333 59 -114s20 -90.5 20 -140.5c0 -49.333 -6.66699 -95.833 -20 -139.5s-33 -82 -59 -115s-58.5 -59.167 -97.5 -78.5s-83.833 -29 -134.5 -29c-52 0 -97.333 9.5 -136 28.5
s-71 44.833 -97 77.5s-45.5 71 -58.5 115s-19.5 91 -19.5 141c0 50.667 6.5 97.834 19.5 141.501s32.5 81.5 58.5 113.5s58.5 57.167 97.5 75.5s84.167 27.5 135.5 27.5zM366 659.998c-31.333 0 -59.668 -7.16797 -85.001 -21.501s-47 -34.666 -65 -60.999
s-31.833 -58.5 -41.5 -96.5s-14.5 -81 -14.5 -129s4.83301 -91.167 14.5 -129.5s23.334 -71 41.001 -98s39.167 -47.833 64.5 -62.5s54 -22 86 -22c31.333 0 59.5 7.33301 84.5 22s46.333 35.5 64 62.5s31.167 59.667 40.5 98s14 81.5 14 129.5
c0 47.333 -4.66699 90 -14 128s-22.833 70.333 -40.5 97s-39 47.167 -64 61.5s-53.167 21.5 -84.5 21.5zM235.998 799.997v65h259v-65h-259z" />
    <glyph glyph-name="omacron" unicode="&#x14d;" horiz-adv-x="580" 
d="M290 -10c-40.667 0 -76.334 7.83301 -107.001 23.5s-56.167 35.834 -76.5 60.501s-35.666 52.5 -45.999 83.5s-15.5 61.833 -15.5 92.5s5.16699 61.334 15.5 92.001s25.666 58.5 45.999 83.5s45.833 45.333 76.5 61s66.334 23.5 107.001 23.5
s76.334 -7.83301 107.001 -23.5s56.167 -36 76.5 -61s35.666 -52.833 45.999 -83.5s15.5 -61.334 15.5 -92.001s-5.16699 -61.5 -15.5 -92.5s-25.666 -58.833 -45.999 -83.5s-45.833 -44.834 -76.5 -60.501s-66.334 -23.5 -107.001 -23.5zM290 40c26 0 48.167 5.5 66.5 16.5
s33.333 26 45 45s20.167 41.167 25.5 66.5s8 52.666 8 81.999c0 28.667 -2.66699 55.834 -8 81.501s-13.833 48 -25.5 67s-26.667 34 -45 45s-40.5 16.5 -66.5 16.5s-48.167 -5.5 -66.5 -16.5s-33.333 -26 -45 -45s-20.167 -41.333 -25.5 -67s-8 -52.834 -8 -81.501
c0 -29.333 2.66699 -56.666 8 -81.999s13.833 -47.5 25.5 -66.5s26.667 -34 45 -45s40.5 -16.5 66.5 -16.5zM160 636v65h259v-65h-259z" />
    <glyph glyph-name="Ohungarumlaut" unicode="&#x150;" horiz-adv-x="732" 
d="M366 710c51.333 0 96.333 -9.16895 135 -27.502s71 -43.666 97 -75.999s45.667 -70.333 59 -114s20 -90.5 20 -140.5c0 -49.333 -6.66699 -95.833 -20 -139.5s-33 -82 -59 -115s-58.5 -59.167 -97.5 -78.5s-83.833 -29 -134.5 -29c-52 0 -97.333 9.5 -136 28.5
s-71 44.833 -97 77.5s-45.5 71 -58.5 115s-19.5 91 -19.5 141c0 50.667 6.5 97.834 19.5 141.501s32.5 81.5 58.5 113.5s58.5 57.167 97.5 75.5s84.167 27.5 135.5 27.5zM366 659.998c-31.333 0 -59.668 -7.16797 -85.001 -21.501s-47 -34.666 -65 -60.999
s-31.833 -58.5 -41.5 -96.5s-14.5 -81 -14.5 -129s4.83301 -91.167 14.5 -129.5s23.334 -71 41.001 -98s39.167 -47.833 64.5 -62.5s54 -22 86 -22c31.333 0 59.5 7.33301 84.5 22s46.333 35.5 64 62.5s31.167 59.667 40.5 98s14 81.5 14 129.5
c0 47.333 -4.66699 90 -14 128s-22.833 70.333 -40.5 97s-39 47.167 -64 61.5s-53.167 21.5 -84.5 21.5zM279.998 739.997l-44 20l90 160l120 -30zM449.998 739.997l-44 20l90 160l120 -30z" />
    <glyph glyph-name="ohungarumlaut" unicode="&#x151;" horiz-adv-x="580" 
d="M290 -10c-40.667 0 -76.334 7.83301 -107.001 23.5s-56.167 35.834 -76.5 60.501s-35.666 52.5 -45.999 83.5s-15.5 61.833 -15.5 92.5s5.16699 61.334 15.5 92.001s25.666 58.5 45.999 83.5s45.833 45.333 76.5 61s66.334 23.5 107.001 23.5
s76.334 -7.83301 107.001 -23.5s56.167 -36 76.5 -61s35.666 -52.833 45.999 -83.5s15.5 -61.334 15.5 -92.001s-5.16699 -61.5 -15.5 -92.5s-25.666 -58.833 -45.999 -83.5s-45.833 -44.834 -76.5 -60.501s-66.334 -23.5 -107.001 -23.5zM290 40c26 0 48.167 5.5 66.5 16.5
s33.333 26 45 45s20.167 41.167 25.5 66.5s8 52.666 8 81.999c0 28.667 -2.66699 55.834 -8 81.501s-13.833 48 -25.5 67s-26.667 34 -45 45s-40.5 16.5 -66.5 16.5s-48.167 -5.5 -66.5 -16.5s-33.333 -26 -45 -45s-20.167 -41.333 -25.5 -67s-8 -52.834 -8 -81.501
c0 -29.333 2.66699 -56.666 8 -81.999s13.833 -47.5 25.5 -66.5s26.667 -34 45 -45s40.5 -16.5 66.5 -16.5zM204 570l-44 20l90 160l120 -30zM374 570l-44 20l90 160l120 -30z" />
    <glyph glyph-name="OE" unicode="&#x152;" horiz-adv-x="994" 
d="M693 337l-145.998 -0.000976562v-287h270l60 110h50l-22 -160h-463c-13.333 -3.33301 -28.333 -5.83301 -45 -7.5s-32.334 -2.5 -47.001 -2.5c-52 0 -97.333 9.5 -136 28.5s-71 44.833 -97 77.5s-45.5 71 -58.5 115s-19.5 91 -19.5 141c0 50.667 6.5 97.834 19.5 141.501
s32.5 81.5 58.5 113.5s58.5 57.167 97.5 75.5s84.167 27.5 135.5 27.5c15.333 0 30.666 -0.833008 45.999 -2.5s28 -4.16699 38 -7.5h456l17 -150h-50l-50 100h-260v-263h147l24 89h35v-228h-35zM350.002 39.999c16.667 0 34.498 1.83203 53.498 5.49902
s35.167 8.5 48.5 14.5v580c-13.333 7.33301 -29.333 12.5 -48 15.5s-36.667 4.5 -54 4.5c-31.333 0 -59.666 -7.16699 -84.999 -21.5s-47 -34.666 -65 -60.999s-31.833 -58.5 -41.5 -96.5s-14.5 -81 -14.5 -129s4.83301 -91.167 14.5 -129.5s23.334 -71 41.001 -98
s39.167 -47.833 64.5 -62.5s54 -22 86 -22z" />
    <glyph glyph-name="oe" unicode="&#x153;" horiz-adv-x="900" 
d="M290 -10c-40.667 0 -76.335 7.8291 -107.002 23.4961s-56.167 35.834 -76.5 60.501s-35.666 52.5 -45.999 83.5s-15.5 61.833 -15.5 92.5s5.16699 61.334 15.5 92.001s25.666 58.5 45.999 83.5s45.833 45.333 76.5 61s66.334 23.5 107.001 23.5
c45.333 0 84.333 -9.5 117 -28.5s59 -43.167 79 -72.5c20 30.667 45.5 55.167 76.5 73.5s66.833 27.5 107.5 27.5c65.333 0 116.333 -20.5 153 -61.5s54.334 -104.5 53.001 -190.5h-370v50h280c0 48 -10.167 85.333 -30.5 112s-48.833 40 -85.5 40
c-27.333 0 -49.666 -5.16699 -66.999 -15.5s-31.333 -24 -42 -41s-18 -36.167 -22 -57.5s-6 -42.666 -6 -63.999c0.666992 -5.33301 1.16699 -10.666 1.5 -15.999s0.5 -10.666 0.5 -15.999v-14c4.66699 -58.667 20 -104.334 46 -137.001s65.667 -49 119 -49
c30 0 58 4.16699 84 12.5s48.667 17.833 68 28.5l17 -31c-18.667 -14 -35.5 -25.5 -50.5 -34.5s-30 -16.167 -45 -21.5s-30.833 -9 -47.5 -11s-35.334 -3 -56.001 -3c-42 0 -78.833 8.5 -110.5 25.5s-57.167 40.5 -76.5 70.5c-20.667 -28 -47 -51 -79 -69s-70 -27 -114 -27z
M289.999 39.9961c24 0 45.165 4.83105 63.498 14.498s33.666 23 45.999 40s21.833 36.833 28.5 59.5s10.667 47.334 12 74.001v37c-1.33301 27.333 -5.16602 52.833 -11.499 76.5s-15.666 44.334 -27.999 62.001s-27.666 31.5 -45.999 41.5s-39.833 15 -64.5 15
c-26 0 -48.333 -5.5 -67 -16.5s-34 -26 -46 -45s-20.833 -41.333 -26.5 -67s-8.5 -52.834 -8.5 -81.501c0 -29.333 2.83301 -56.666 8.5 -81.999s14.5 -47.5 26.5 -66.5s27.333 -34 46 -45s41 -16.5 67 -16.5z" />
    <glyph glyph-name="Racute" unicode="&#x154;" 
d="M315 35l-0.000976562 -35.002h-280v35l90 25v580l-90 25v35h303c30 0 58.333 -3.66699 85 -11s50 -18.666 70 -33.999s35.833 -34.666 47.5 -57.999s17.5 -51 17.5 -83c0 -24 -3.66699 -45.5 -11 -64.5s-17.166 -35.833 -29.499 -50.5s-27 -27.167 -44 -37.5
s-35.167 -18.833 -54.5 -25.5l156 -276l90 -25v-35h-169l-181 319c-4.66699 -0.666992 -8 -1 -10 -1h-10c-12 0 -23.833 0.333008 -35.5 1s-23.167 2 -34.5 4v-263zM457.999 513.998c0 22 -4 41.333 -12 58s-18.5 30.834 -31.5 42.501s-27.833 20.5 -44.5 26.5
s-33.667 9 -51 9h-94v-280c24.667 -2.66699 50.667 -3.16699 78 -1.5s52.5 7.66699 75.5 18s42 25.666 57 45.999s22.5 47.5 22.5 81.5zM268.999 739.998l-44 20l90 160l120 -30z" />
    <glyph glyph-name="racute" unicode="&#x155;" horiz-adv-x="453" 
d="M35 450l-0.000976562 35l149 30l9 -144l16 34c7.33301 15.333 17.333 30.833 30 46.5s28.5 29.334 47.5 41.001s41.5 17.5 67.5 17.5c8.66699 0 18.167 -1.83301 28.5 -5.5s20.5 -10.167 30.5 -19.5v-123h-49l-32 73h-19c-13.333 0 -26.166 -4.83301 -38.499 -14.5
s-24 -21.334 -35 -35.001s-20.5 -27.5 -28.5 -41.5s-14 -25.333 -18 -34v-250l90 -25v-35h-248v35l70 25v375zM224.999 570l-44 20l90 160l120 -30z" />
    <glyph glyph-name="uni0156" unicode="&#x156;" horiz-adv-x="685" 
d="M300 -179l-19.998 20.001v70l20 20h70l20 -20v-36c0 -12 -1 -26 -3 -42s-7.33301 -32.333 -16 -49s-21.334 -33.167 -38.001 -49.5s-39.334 -30.833 -68.001 -43.5l-15 20c8 5.33301 16.167 12.166 24.5 20.499s15.833 17.5 22.5 27.5s12.167 20.333 16.5 31
s6.5 21 6.5 31h-20zM315.002 35.001l-0.000976562 -35.002h-280v35l90 25v580l-90 25v35h303c30 0 58.333 -3.66699 85 -11s50 -18.666 70 -33.999s35.833 -34.666 47.5 -57.999s17.5 -51 17.5 -83c0 -24 -3.66699 -45.5 -11 -64.5s-17.166 -35.833 -29.499 -50.5
s-27 -27.167 -44 -37.5s-35.167 -18.833 -54.5 -25.5l156 -276l90 -25v-35h-169l-181 319c-4.66699 -0.666992 -8 -1 -10 -1h-10c-12 0 -23.833 0.333008 -35.5 1s-23.167 2 -34.5 4v-263zM458.001 513.999c0 22 -4 41.333 -12 58s-18.5 30.834 -31.5 42.501
s-27.833 20.5 -44.5 26.5s-33.667 9 -51 9h-94v-280c24.667 -2.66699 50.667 -3.16699 78 -1.5s52.5 7.66699 75.5 18s42 25.666 57 45.999s22.5 47.5 22.5 81.5z" />
    <glyph glyph-name="uni0157" unicode="&#x157;" horiz-adv-x="453" 
d="M117 -179l-19.998 20.001v70l20 20h70l20 -20v-36c0 -12 -1 -26 -3 -42s-7.33301 -32.333 -16 -49s-21.334 -33.167 -38.001 -49.5s-39.334 -30.833 -68.001 -43.5l-15 20c8 5.33301 16.167 12.166 24.5 20.499s15.833 17.5 22.5 27.5s12.167 20.333 16.5 31
s6.5 21 6.5 31h-20zM35.002 450.001l-0.000976562 35l149 30l9 -144l16 34c7.33301 15.333 17.333 30.833 30 46.5s28.5 29.334 47.5 41.001s41.5 17.5 67.5 17.5c8.66699 0 18.167 -1.83301 28.5 -5.5s20.5 -10.167 30.5 -19.5v-123h-49l-32 73h-19
c-13.333 0 -26.166 -4.83301 -38.499 -14.5s-24 -21.334 -35 -35.001s-20.5 -27.5 -28.5 -41.5s-14 -25.333 -18 -34v-250l90 -25v-35h-248v35l70 25v375z" />
    <glyph glyph-name="Rcaron" unicode="&#x158;" 
d="M315 35l-0.000976562 -35.002h-280v35l90 25v580l-90 25v35h303c30 0 58.333 -3.66699 85 -11s50 -18.666 70 -33.999s35.833 -34.666 47.5 -57.999s17.5 -51 17.5 -83c0 -24 -3.66699 -45.5 -11 -64.5s-17.166 -35.833 -29.499 -50.5s-27 -27.167 -44 -37.5
s-35.167 -18.833 -54.5 -25.5l156 -276l90 -25v-35h-169l-181 319c-4.66699 -0.666992 -8 -1 -10 -1h-10c-12 0 -23.833 0.333008 -35.5 1s-23.167 2 -34.5 4v-263zM457.999 513.998c0 22 -4 41.333 -12 58s-18.5 30.834 -31.5 42.501s-27.833 20.5 -44.5 26.5
s-33.667 9 -51 9h-94v-280c24.667 -2.66699 50.667 -3.16699 78 -1.5s52.5 7.66699 75.5 18s42 25.666 57 45.999s22.5 47.5 22.5 81.5zM266.999 747.998l-119 148l56 22l115 -101l111 103l42 -26l-120 -146h-85z" />
    <glyph glyph-name="rcaron" unicode="&#x159;" horiz-adv-x="453" 
d="M35 450l-0.000976562 35l149 30l9 -144l16 34c7.33301 15.333 17.333 30.833 30 46.5s28.5 29.334 47.5 41.001s41.5 17.5 67.5 17.5c8.66699 0 18.167 -1.83301 28.5 -5.5s20.5 -10.167 30.5 -19.5v-123h-49l-32 73h-19c-13.333 0 -26.166 -4.83301 -38.499 -14.5
s-24 -21.334 -35 -35.001s-20.5 -27.5 -28.5 -41.5s-14 -25.333 -18 -34v-250l90 -25v-35h-248v35l70 25v375zM174.999 578l-119 148l56 22l115 -101l111 103l42 -26l-120 -146h-85z" />
    <glyph glyph-name="Sacute" unicode="&#x15a;" horiz-adv-x="556" 
d="M55 182l49.001 0.00195312l49 -127c10 -4 20.5 -7 31.5 -9s22 -3.5 33 -4.5s21.333 -1.5 31 -1.5h23.5c21.333 0 40.333 3.33301 57 10s30.667 15.5 42 26.5s20 23.167 26 36.5s9 27 9 41c0 14.667 -2 28.5 -6 41.5s-11.5 25.833 -22.5 38.5s-26 25.334 -45 38.001
s-43.167 26 -72.5 40c-47.333 20 -84.166 39.5 -110.499 58.5s-45.833 37.333 -58.5 55s-20.334 34.667 -23.001 51s-4 31.5 -4 45.5c0 28.667 6.16699 54.667 18.5 78s29.333 43.166 51 59.499s47.334 28.833 77.001 37.5s61.834 13 96.501 13
c26.667 0 52.5 -2.5 77.5 -7.5s53.5 -14.167 85.5 -27.5l-1 -150h-50l-49 120c-12 5.33301 -24.833 9.16602 -38.5 11.499s-25.167 3.5 -34.5 3.5c-18.667 0 -36.334 -2.16699 -53.001 -6.5s-31.334 -10.666 -44.001 -18.999s-22.667 -18.5 -30 -30.5s-11 -25.667 -11 -41
c0 -18 2.33301 -34.333 7 -49s13.167 -28.5 25.5 -41.5s28.833 -25.833 49.5 -38.5s47 -26 79 -40c36 -16 65.833 -32.333 89.5 -49s42.667 -33.834 57 -51.501s24.5 -35.5 30.5 -53.5s9 -36 9 -54c0 -28 -5.5 -54 -16.5 -78s-26.833 -44.833 -47.5 -62.5
s-45.334 -31.334 -74.001 -41.001s-60.667 -14.5 -96 -14.5c-34.667 0 -68.5 3.5 -101.5 10.5s-71.5 16.833 -115.5 29.5v152zM239.001 740.002l-44 20l90 160l120 -30z" />
    <glyph glyph-name="sacute" unicode="&#x15b;" horiz-adv-x="442" 
d="M225 460c-11.333 0 -22.002 -1.99609 -32.002 -5.99609s-18.667 -9.5 -26 -16.5s-13.166 -14.833 -17.499 -23.5s-6.5 -17.334 -6.5 -26.001c0 -6 1.33301 -13 4 -21s8.16699 -16.333 16.5 -25s20.333 -17.334 36 -26.001s36.5 -17 62.5 -25
c30 -13.333 54.167 -27.166 72.5 -41.499s32.5 -28.333 42.5 -42s16.667 -26.5 20 -38.5s5 -21.667 5 -29c0 -19.333 -3.5 -38 -10.5 -56s-17.333 -34 -31 -48s-30.834 -25.167 -51.501 -33.5s-45 -12.5 -73 -12.5c-34.667 0 -68.334 4.66699 -101.001 14
s-61 19.666 -85 30.999v116h50l35 -86l26 -10.5c7.33301 -3 14.833 -5.5 22.5 -7.5s15.5 -3.66699 23.5 -5s17.667 -2 29 -2c22.667 0 41.167 7.33301 55.5 22s21.5 33.667 21.5 57c0 17.333 -9 34.833 -27 52.5s-43 32.5 -75 44.5c-29.333 10.667 -53.666 22 -72.999 34
s-34.833 24 -46.5 36s-20 24.167 -25 36.5s-7.5 24.166 -7.5 35.499c0 22.667 4.33301 43.334 13 62.001s20.5 34.667 35.5 48s32.5 23.666 52.5 30.999s41.667 11 65 11c4.66699 0 11.834 -0.333008 21.501 -1s20.834 -2.33398 33.501 -5.00098
s26.334 -6.33398 41.001 -11.001s29.334 -11 44.001 -19v-114h-51l-34 85c-5.33301 2 -10 3.83301 -14 5.5l-11.5 5c-3.66699 1.66699 -7.83398 2.83398 -12.501 3.50098s-10.334 1 -17.001 1zM184.998 570.004l-44 20l90 160l120 -30z" />
    <glyph glyph-name="Scaron" unicode="&#x160;" horiz-adv-x="611" 
d="M55 182l49.001 0.00195312l49 -127c10 -4 20.5 -7 31.5 -9s22 -3.5 33 -4.5s21.333 -1.5 31 -1.5h23.5c21.333 0 40.333 3.33301 57 10s30.667 15.5 42 26.5s20 23.167 26 36.5s9 27 9 41c0 14.667 -2 28.5 -6 41.5s-11.5 25.833 -22.5 38.5s-26 25.334 -45 38.001
s-43.167 26 -72.5 40c-47.333 20 -84.166 39.5 -110.499 58.5s-45.833 37.333 -58.5 55s-20.334 34.667 -23.001 51s-4 31.5 -4 45.5c0 28.667 6.16699 54.667 18.5 78s29.333 43.166 51 59.499s47.334 28.833 77.001 37.5s61.834 13 96.501 13
c26.667 0 52.5 -2.5 77.5 -7.5s53.5 -14.167 85.5 -27.5l-1 -150h-50l-49 120c-12 5.33301 -24.833 9.16602 -38.5 11.499s-25.167 3.5 -34.5 3.5c-18.667 0 -36.334 -2.16699 -53.001 -6.5s-31.334 -10.666 -44.001 -18.999s-22.667 -18.5 -30 -30.5s-11 -25.667 -11 -41
c0 -18 2.33301 -34.333 7 -49s13.167 -28.5 25.5 -41.5s28.833 -25.833 49.5 -38.5s47 -26 79 -40c36 -16 65.833 -32.333 89.5 -49s42.667 -33.834 57 -51.501s24.5 -35.5 30.5 -53.5s9 -36 9 -54c0 -28 -5.5 -54 -16.5 -78s-26.833 -44.833 -47.5 -62.5
s-45.334 -31.334 -74.001 -41.001s-60.667 -14.5 -96 -14.5c-34.667 0 -68.5 3.5 -101.5 10.5s-71.5 16.833 -115.5 29.5v152zM232.001 748.002l-119 148l56 22l115 -101l111 103l42 -26l-120 -146h-85z" />
    <glyph glyph-name="scaron" unicode="&#x161;" horiz-adv-x="443" 
d="M225 460c-11.333 0 -22.002 -1.99609 -32.002 -5.99609s-18.667 -9.5 -26 -16.5s-13.166 -14.833 -17.499 -23.5s-6.5 -17.334 -6.5 -26.001c0 -6 1.33301 -13 4 -21s8.16699 -16.333 16.5 -25s20.333 -17.334 36 -26.001s36.5 -17 62.5 -25
c30 -13.333 54.167 -27.166 72.5 -41.499s32.5 -28.333 42.5 -42s16.667 -26.5 20 -38.5s5 -21.667 5 -29c0 -19.333 -3.5 -38 -10.5 -56s-17.333 -34 -31 -48s-30.834 -25.167 -51.501 -33.5s-45 -12.5 -73 -12.5c-34.667 0 -68.334 4.66699 -101.001 14
s-61 19.666 -85 30.999v116h50l35 -86l26 -10.5c7.33301 -3 14.833 -5.5 22.5 -7.5s15.5 -3.66699 23.5 -5s17.667 -2 29 -2c22.667 0 41.167 7.33301 55.5 22s21.5 33.667 21.5 57c0 17.333 -9 34.833 -27 52.5s-43 32.5 -75 44.5c-29.333 10.667 -53.666 22 -72.999 34
s-34.833 24 -46.5 36s-20 24.167 -25 36.5s-7.5 24.166 -7.5 35.499c0 22.667 4.33301 43.334 13 62.001s20.5 34.667 35.5 48s32.5 23.666 52.5 30.999s41.667 11 65 11c4.66699 0 11.834 -0.333008 21.501 -1s20.834 -2.33398 33.501 -5.00098
s26.334 -6.33398 41.001 -11.001s29.334 -11 44.001 -19v-114h-51l-34 85c-5.33301 2 -10 3.83301 -14 5.5l-11.5 5c-3.66699 1.66699 -7.83398 2.83398 -12.501 3.50098s-10.334 1 -17.001 1zM197.998 588.004l-119 148l56 22l115 -101l111 103l42 -26l-120 -146h-85z" />
    <glyph glyph-name="Tcaron" unicode="&#x164;" horiz-adv-x="620" 
d="M110 650l-50 -99h-50l16 149h569l15 -149h-50l-50 99h-147v-590l90 -25v-35h-280v35l90 25v590h-153zM267 748l-119 148l56 22l115 -101l111 103l42 -26l-120 -146h-85z" />
    <glyph glyph-name="tcaron" unicode="&#x165;" horiz-adv-x="536" 
d="M345 450h-160v-313c0.666992 -13.333 1.5 -25.666 2.5 -36.999s3.5 -21.166 7.5 -29.499s10.5 -14.833 19.5 -19.5s21.833 -7 38.5 -7c19.333 0 36 3.16699 50 9.5s24 11.166 30 14.499l18 -31c-6 -4 -12.667 -8.83301 -20 -14.5s-16 -10.834 -26 -15.501
s-21.667 -8.66699 -35 -12s-29 -5 -47 -5c-38 0 -68.833 9.66699 -92.5 29s-35.5 47 -35.5 83v348h-70v30l70 20v1l40 124h50v-125h160v-50zM426 590l-19.998 20.001v70l20 20h70l20 -20v-36c0 -12 -1 -26 -3 -42s-7.33301 -32.333 -16 -49s-21.334 -33.167 -38.001 -49.5
s-39.334 -30.833 -68.001 -43.5l-15 20c8 5.33301 16.167 12.166 24.5 20.499s15.833 17.5 22.5 27.5s12.167 20.333 16.5 31s6.5 21 6.5 31h-20z" />
    <glyph glyph-name="Umacron" unicode="&#x16a;" horiz-adv-x="685" 
d="M590 236c0 -37.333 -5.66602 -70.998 -16.999 -100.998s-27.5 -55.833 -48.5 -77.5s-46.667 -38.334 -77 -50.001s-64.5 -17.5 -102.5 -17.5c-37.333 0 -71.333 6 -102 18s-57 28.833 -79 50.5s-39 47.667 -51 78s-18 63.5 -18 99.5v404l-90 26v35h280v-35l-90 -26v-404
c0 -26.667 2.83301 -51.834 8.5 -75.501s15 -44.5 28 -62.5s30 -32.167 51 -42.5s47.167 -15.5 78.5 -15.5c28.667 0 54 5.5 76 16.5s40.167 25.5 54.5 43.5s25.166 38.833 32.499 62.5s11 48.167 11 73.5v404l-90 25v35h235v-35l-90 -25v-404zM213.001 801.002v65h259v-65
h-259z" />
    <glyph glyph-name="umacron" unicode="&#x16b;" horiz-adv-x="602" 
d="M302 45c6.66699 0 14.999 1.33301 24.999 4s20.333 6.66699 31 12s21.167 12 31.5 20s19.5 17.667 27.5 29v325l-70 15v35l158 30v-445l72 -15v-35l-140 -30l-20 60c-16 -13.333 -31 -24 -45 -32s-27.5 -14 -40.5 -18s-25.833 -6.66699 -38.5 -8s-25.667 -2 -39 -2
c-20.667 0 -41.167 3 -61.5 9s-38.5 14.667 -54.5 26s-29 25.5 -39 42.5s-15 36.5 -15 58.5v309l-69 15v35l158 30v-351c0 -34 9.83301 -62.333 29.5 -85s52.834 -34 99.501 -34zM160.999 636v65h259v-65h-259z" />
    <glyph glyph-name="Uring" unicode="&#x16e;" horiz-adv-x="685" 
d="M590 236c0 -37.333 -5.66602 -70.998 -16.999 -100.998s-27.5 -55.833 -48.5 -77.5s-46.667 -38.334 -77 -50.001s-64.5 -17.5 -102.5 -17.5c-37.333 0 -71.333 6 -102 18s-57 28.833 -79 50.5s-39 47.667 -51 78s-18 63.5 -18 99.5v404l-90 26v35h280v-35l-90 -26v-404
c0 -26.667 2.83301 -51.834 8.5 -75.501s15 -44.5 28 -62.5s30 -32.167 51 -42.5s47.167 -15.5 78.5 -15.5c28.667 0 54 5.5 76 16.5s40.167 25.5 54.5 43.5s25.166 38.833 32.499 62.5s11 48.167 11 73.5v404l-90 25v35h235v-35l-90 -25v-404zM354.001 910.002
c13.333 0 26.5 -1.66602 39.5 -4.99902s24.5 -8.5 34.5 -15.5s18.167 -15.833 24.5 -26.5s9.5 -23.667 9.5 -39c0 -17.333 -3.16699 -31.833 -9.5 -43.5s-14.5 -21.334 -24.5 -29.001s-21.5 -13.167 -34.5 -16.5s-26.167 -5 -39.5 -5c-16 0 -30.833 1.66699 -44.5 5
s-25.5 8.66602 -35.5 15.999s-17.833 17 -23.5 29s-8.5 26.667 -8.5 44c0 14.667 3.16699 27.334 9.5 38.001s14.833 19.5 25.5 26.5s22.667 12.333 36 16s27 5.5 41 5.5zM354.001 870.003c-16 0 -30.333 -3.33203 -43 -9.99902s-19 -18.667 -19 -36
c0 -22 6.33301 -36.5 19 -43.5s27 -10.5 43 -10.5c16.667 0 30.5 4.16699 41.5 12.5s16.5 22.166 16.5 41.499c0 10 -1.66699 18.167 -5 24.5s-7.83301 11 -13.5 14s-12 5 -19 6s-13.833 1.5 -20.5 1.5z" />
    <glyph glyph-name="uring" unicode="&#x16f;" horiz-adv-x="602" 
d="M302 45c6.66699 0 14.999 1.33301 24.999 4s20.333 6.66699 31 12s21.167 12 31.5 20s19.5 17.667 27.5 29v325l-70 15v35l158 30v-445l72 -15v-35l-140 -30l-20 60c-16 -13.333 -31 -24 -45 -32s-27.5 -14 -40.5 -18s-25.833 -6.66699 -38.5 -8s-25.667 -2 -39 -2
c-20.667 0 -41.167 3 -61.5 9s-38.5 14.667 -54.5 26s-29 25.5 -39 42.5s-15 36.5 -15 58.5v309l-69 15v35l158 30v-351c0 -34 9.83301 -62.333 29.5 -85s52.834 -34 99.501 -34zM292.999 740c13.333 0 26.5 -1.66602 39.5 -4.99902s24.5 -8.5 34.5 -15.5
s18.167 -15.833 24.5 -26.5s9.5 -23.667 9.5 -39c0 -17.333 -3.16699 -31.833 -9.5 -43.5s-14.5 -21.334 -24.5 -29.001s-21.5 -13.167 -34.5 -16.5s-26.167 -5 -39.5 -5c-16 0 -30.833 1.66699 -44.5 5s-25.5 8.66602 -35.5 15.999s-17.833 17 -23.5 29
s-8.5 26.667 -8.5 44c0 14.667 3.16699 27.334 9.5 38.001s14.833 19.5 25.5 26.5s22.667 12.333 36 16s27 5.5 41 5.5zM292.999 700.001c-16 0 -30.333 -3.33203 -43 -9.99902s-19 -18.667 -19 -36c0 -22 6.33301 -36.5 19 -43.5s27 -10.5 43 -10.5
c16.667 0 30.5 4.16699 41.5 12.5s16.5 22.166 16.5 41.499c0 10 -1.66699 18.167 -5 24.5s-7.83301 11 -13.5 14s-12 5 -19 6s-13.833 1.5 -20.5 1.5z" />
    <glyph glyph-name="Uhungarumlaut" unicode="&#x170;" horiz-adv-x="685" 
d="M590 236c0 -37.333 -5.66602 -70.998 -16.999 -100.998s-27.5 -55.833 -48.5 -77.5s-46.667 -38.334 -77 -50.001s-64.5 -17.5 -102.5 -17.5c-37.333 0 -71.333 6 -102 18s-57 28.833 -79 50.5s-39 47.667 -51 78s-18 63.5 -18 99.5v404l-90 26v35h280v-35l-90 -26v-404
c0 -26.667 2.83301 -51.834 8.5 -75.501s15 -44.5 28 -62.5s30 -32.167 51 -42.5s47.167 -15.5 78.5 -15.5c28.667 0 54 5.5 76 16.5s40.167 25.5 54.5 43.5s25.166 38.833 32.499 62.5s11 48.167 11 73.5v404l-90 25v35h235v-35l-90 -25v-404zM266.001 740.002l-44 20
l90 160l120 -30zM436.001 740.002l-44 20l90 160l120 -30z" />
    <glyph glyph-name="uhungarumlaut" unicode="&#x171;" horiz-adv-x="602" 
d="M302 45c6.66699 0 14.999 1.33301 24.999 4s20.333 6.66699 31 12s21.167 12 31.5 20s19.5 17.667 27.5 29v325l-70 15v35l158 30v-445l72 -15v-35l-140 -30l-20 60c-16 -13.333 -31 -24 -45 -32s-27.5 -14 -40.5 -18s-25.833 -6.66699 -38.5 -8s-25.667 -2 -39 -2
c-20.667 0 -41.167 3 -61.5 9s-38.5 14.667 -54.5 26s-29 25.5 -39 42.5s-15 36.5 -15 58.5v309l-69 15v35l158 30v-351c0 -34 9.83301 -62.333 29.5 -85s52.834 -34 99.501 -34zM154.999 570l-44 20l90 160l120 -30zM324.999 570l-44 20l90 160l120 -30z" />
    <glyph glyph-name="Uogonek" unicode="&#x172;" horiz-adv-x="685" 
d="M590 236c0 -37.333 -5.66602 -70.998 -16.999 -100.998s-27.5 -55.833 -48.5 -77.5s-46.667 -38.334 -77 -50.001s-64.5 -17.5 -102.5 -17.5c-37.333 0 -71.333 6 -102 18s-57 28.833 -79 50.5s-39 47.667 -51 78s-18 63.5 -18 99.5v404l-90 26v35h280v-35l-90 -26v-404
c0 -26.667 2.83301 -51.834 8.5 -75.501s15 -44.5 28 -62.5s30 -32.167 51 -42.5s47.167 -15.5 78.5 -15.5c28.667 0 54 5.5 76 16.5s40.167 25.5 54.5 43.5s25.166 38.833 32.499 62.5s11 48.167 11 73.5v404l-90 25v35h235v-35l-90 -25v-404zM440.001 -202.998
c-7.33301 -3.33301 -16.5 -5.66699 -27.5 -7s-20.833 -2 -29.5 -2c-15.333 0 -30 2.16699 -44 6.5s-26.5 10.833 -37.5 19.5s-19.833 19.5 -26.5 32.5s-10 28.167 -10 45.5c0 9.33301 2 19.666 6 30.999s10.333 22.5 19 33.5s19.667 21.167 33 30.5s29.333 17 48 23h54
c-54.667 -33.333 -82 -68.666 -82 -105.999c0 -21.333 6 -38.333 18 -51s25.667 -19 41 -19c4.66699 0 9.5 0.333008 14.5 1s9.16699 1.66699 12.5 3z" />
    <glyph glyph-name="uogonek" unicode="&#x173;" horiz-adv-x="602" 
d="M302 45c6.66699 0 14.999 1.33301 24.999 4s20.333 6.66699 31 12s21.167 12 31.5 20s19.5 17.667 27.5 29v325l-70 15v35l158 30v-445l72 -15v-35l-140 -30l-20 60c-16 -13.333 -31 -24 -45 -32s-27.5 -14 -40.5 -18s-25.833 -6.66699 -38.5 -8s-25.667 -2 -39 -2
c-20.667 0 -41.167 3 -61.5 9s-38.5 14.667 -54.5 26s-29 25.5 -39 42.5s-15 36.5 -15 58.5v309l-69 15v35l158 30v-351c0 -34 9.83301 -62.333 29.5 -85s52.834 -34 99.501 -34zM545.999 -203c-7.33301 -3.33301 -16.5 -5.66699 -27.5 -7s-20.833 -2 -29.5 -2
c-15.333 0 -30 2.16699 -44 6.5s-26.5 10.833 -37.5 19.5s-19.833 19.5 -26.5 32.5s-10 28.167 -10 45.5c0 9.33301 2 19.666 6 30.999s10.333 22.5 19 33.5s19.667 21.167 33 30.5s29.333 17 48 23h54c-54.667 -33.333 -82 -68.666 -82 -105.999
c0 -21.333 6 -38.333 18 -51s25.667 -19 41 -19c4.66699 0 9.5 0.333008 14.5 1s9.16699 1.66699 12.5 3z" />
    <glyph glyph-name="Ydieresis" unicode="&#x178;" horiz-adv-x="588" 
d="M352 346l145 294l-70 25v35h196v-35l-70 -25l-172 -347v-233l70 -25v-35h-239v35l70 25v226l-222 354l-70 25v35h249v-35l-70 -25zM282 854v-70l-20 -20h-70l-20 20v70l20 20h70zM466 854v-70l-20 -20h-70l-20 20v70l20 20h70z" />
    <glyph glyph-name="Zacute" unicode="&#x179;" horiz-adv-x="601" 
d="M539 0h-489l-10 32l387 618h-263l-51 -99h-49l16 149h453l9 -38l-381 -612h290l60 100h50zM259 740l-44 20l90 160l120 -30z" />
    <glyph glyph-name="zacute" unicode="&#x17a;" horiz-adv-x="544" 
d="M50 38l316 412h-216l-36 -86h-50l15 136h396l10 -31l-320 -419h238l41 86h45l-15 -136h-414zM251 561l-44 20l90 160l120 -30z" />
    <glyph glyph-name="Zdotaccent" unicode="&#x17b;" horiz-adv-x="601" 
d="M539 0h-489l-10 32l387 618h-263l-51 -99h-49l16 149h453l9 -38l-381 -612h290l60 100h50zM355 870v-70l-20 -20h-70l-20 20v70l20 20h70z" />
    <glyph glyph-name="zdotaccent" unicode="&#x17c;" horiz-adv-x="544" 
d="M50 38l316 412h-216l-36 -86h-50l15 136h396l10 -31l-320 -419h238l41 86h45l-15 -136h-414zM327 720v-70l-20 -20h-70l-20 20v70l20 20h70z" />
    <glyph glyph-name="Zcaron" unicode="&#x17d;" horiz-adv-x="582" 
d="M539 0h-489l-10 32l387 618h-263l-51 -99h-49l16 149h453l9 -38l-381 -612h290l60 100h50zM248 748l-119 148l56 22l115 -101l111 103l42 -26l-120 -146h-85z" />
    <glyph glyph-name="zcaron" unicode="&#x17e;" horiz-adv-x="530" 
d="M50 38l316 412h-216l-36 -86h-50l15 136h396l10 -31l-320 -419h238l41 86h45l-15 -136h-414zM222 588l-119 148l56 22l115 -101l111 103l42 -26l-120 -146h-85z" />
    <glyph glyph-name="florin" unicode="&#x192;" horiz-adv-x="397" 
d="M96 47l53.0029 401.998h-92l8 51h91l8 55c2.66699 18 6.16699 35 10.5 51s10.333 31 18 45s17.5 26.667 29.5 38c44 40 100 60.667 168 62c13.333 0 26.833 -1.16699 40.5 -3.5s29.167 -6.16602 46.5 -11.499v-115h-49l-39 85c-7.33301 1.33301 -13 2 -17 2h-14
c-18 0 -33.333 -5.33301 -46 -16s-23.167 -23.334 -31.5 -38.001s-14.666 -30 -18.999 -46s-7.5 -30 -9.5 -42l-8 -66l121 1l-7 -50l-121 -1l-53 -402l-8 -52.5c-2.66699 -17 -6.16699 -33.5 -10.5 -49.5s-10.333 -31.167 -18 -45.5s-17.5 -27.166 -29.5 -38.499
c-44 -40 -99.333 -60.667 -166 -62c-13.333 0 -26.833 1.16699 -40.5 3.5s-29.167 6.16602 -46.5 11.499l-1 115h49l40 -84c7.33301 -1.33301 13 -2.16602 17 -2.49902s8.66699 -0.166016 14 0.500977c17.333 0 32.166 5.16699 44.499 15.5s22.666 22.833 30.999 37.5
s14.666 30 18.999 46s7.16602 30 8.49902 42z" />
    <glyph glyph-name="circumflex" unicode="&#x2c6;" horiz-adv-x="419" 
d="M261 750l114 -136l-47 -30l-110 90l-107 -84l-40 31l106 129h84z" />
    <glyph glyph-name="caron" unicode="&#x2c7;" horiz-adv-x="419" 
d="M179 578l-119 148l56 22l115 -101l111 103l42 -26l-120 -146h-85z" />
    <glyph glyph-name="breve" unicode="&#x2d8;" horiz-adv-x="419" 
d="M112 750c2.66699 -16 7.50488 -29.168 14.5049 -39.501s15 -18.5 24 -24.5s18.5 -10.167 28.5 -12.5s19.667 -3.5 29 -3.5s19.166 1.33301 29.499 4s20.166 7.16699 29.499 13.5s17.666 14.666 24.999 24.999s12.666 22.833 15.999 37.5l49 -15
c-2.66699 -21.333 -8.33398 -40.333 -17.001 -57s-19.5 -30.667 -32.5 -42s-28 -20.166 -45 -26.499s-35.167 -9.5 -54.5 -9.5c-38 0 -70 11.833 -96 35.5s-42.333 56.834 -49 99.501z" />
    <glyph glyph-name="dotaccent" unicode="&#x2d9;" horiz-adv-x="310" 
d="M210 720v-70l-20 -20h-70l-20 20v70l20 20h70z" />
    <glyph glyph-name="ring" unicode="&#x2da;" horiz-adv-x="419" 
d="M212 740c13.333 0 26.5 -1.66602 39.5 -4.99902s24.5 -8.5 34.5 -15.5s18.167 -15.833 24.5 -26.5s9.5 -23.667 9.5 -39c0 -17.333 -3.16699 -31.833 -9.5 -43.5s-14.5 -21.334 -24.5 -29.001s-21.5 -13.167 -34.5 -16.5s-26.167 -5 -39.5 -5
c-16 0 -30.833 1.66699 -44.5 5s-25.5 8.66602 -35.5 15.999s-17.833 17 -23.5 29s-8.5 26.667 -8.5 44c0 14.667 3.16699 27.334 9.5 38.001s14.833 19.5 25.5 26.5s22.667 12.333 36 16s27 5.5 41 5.5zM212 700.001c-16 0 -30.333 -3.33203 -43 -9.99902
s-19 -18.667 -19 -36c0 -22 6.33301 -36.5 19 -43.5s27 -10.5 43 -10.5c16.667 0 30.5 4.16699 41.5 12.5s16.5 22.166 16.5 41.499c0 10 -1.66699 18.167 -5 24.5s-7.83301 11 -13.5 14s-12 5 -19 6s-13.833 1.5 -20.5 1.5z" />
    <glyph glyph-name="ogonek" unicode="&#x2db;" horiz-adv-x="419" 
d="M277 -203c-7.33301 -3.33301 -16.5 -5.66699 -27.5 -7s-20.833 -2 -29.5 -2c-15.333 0 -30 2.16699 -44 6.5s-26.5 10.833 -37.5 19.5s-19.833 19.5 -26.5 32.5s-10 28.167 -10 45.5c0 9.33301 2 19.666 6 30.999s10.333 22.5 19 33.5s19.667 21.167 33 30.5
s29.333 17 48 23h54c-54.667 -33.333 -82 -68.666 -82 -105.999c0 -21.333 6 -38.333 18 -51s25.667 -19 41 -19c4.66699 0 9.5 0.333008 14.5 1s9.16699 1.66699 12.5 3z" />
    <glyph glyph-name="tilde" unicode="&#x2dc;" horiz-adv-x="419" 
d="M368 741c-0.666992 -12.667 -3.16699 -25.335 -7.5 -38.002s-10.5 -24.167 -18.5 -34.5s-18 -18.666 -30 -24.999s-26.333 -9.5 -43 -9.5c-11.333 0 -22.333 2.16699 -33 6.5s-21 9.33301 -31 15s-19.833 10.667 -29.5 15s-19.5 6.5 -29.5 6.5
c-13.333 0 -24.666 -4.16699 -33.999 -12.5s-15.333 -18.166 -18 -29.499l-37 12c2.66699 13.333 6.5 26.166 11.5 38.499s11.667 23.333 20 33s18.333 17.334 30 23.001s25.167 8.5 40.5 8.5c14 0 26.167 -2.16699 36.5 -6.5s20.166 -9 29.499 -14l27 -14
c8.66699 -4.33301 18.667 -6.5 30 -6.5c12 0 22.333 3.83301 31 11.5s14 17.167 16 28.5z" />
    <glyph glyph-name="hungarumlaut" unicode="&#x2dd;" horiz-adv-x="419" 
d="M79 570l-44 20l90 160l120 -30zM249 570l-44 20l90 160l120 -30z" />
    <glyph glyph-name="uni03A9" unicode="&#x3a9;" horiz-adv-x="833" 
d="M493 64c18.667 13.333 36.832 29.4941 54.499 48.4941s33.334 40.833 47.001 65.5s24.667 52.334 33 83.001s12.5 64.334 12.5 101.001c0 34.667 -4.16699 69.834 -12.5 105.501s-21.333 67.667 -39 96s-40.334 51.5 -68.001 69.5s-60.5 27 -98.5 27
c-37.333 0 -69.333 -8.66699 -96 -26s-48.5 -39.666 -65.5 -66.999s-29.667 -58.333 -38 -93s-12.5 -69.334 -12.5 -104.001c0 -35.333 3.66699 -68.666 11 -99.999s17.5 -60 30.5 -86s28.333 -49.167 46 -69.5s36.5 -37.166 56.5 -50.499v-64h-309v153l46 -1l22 -102h143
v38c-18.667 10.667 -36.834 24.834 -54.501 42.501s-33.167 38.5 -46.5 62.5s-24.166 51.167 -32.499 81.5s-12.5 63.833 -12.5 100.5c0 52 7.83301 98.667 23.5 140s37.334 76.5 65.001 105.5s60.5 51.167 98.5 66.5s79.667 23 125 23c46.667 0 89.5 -8 128.5 -24
s72.5 -38.667 100.5 -68s49.833 -64.333 65.5 -105s23.5 -86 23.5 -136c0 -38 -4.66699 -72.667 -14 -104s-21.333 -59 -36 -83s-31 -44.5 -49 -61.5s-35.333 -30.5 -52 -40.5v-38h150l21 107l47 -1v-156h-314v64z" />
    <glyph glyph-name="pi" unicode="&#x3c0;" horiz-adv-x="600" 
d="M472 425l0.000976562 -188.003c0 -34.667 0.333008 -63.834 1 -87.501s2.16699 -42.834 4.5 -57.501s5.83301 -25.167 10.5 -31.5s11 -9.5 19 -9.5c7.33301 0 14.666 0.833008 21.999 2.5s13.666 3.83398 18.999 6.50098l-12 -75
c-7.33301 -3.33301 -15.5 -6.16602 -24.5 -8.49902s-18.5 -3.5 -28.5 -3.5c-25.333 0 -44.666 5.66699 -57.999 17s-23.166 27.666 -29.499 48.999s-10 47.333 -11 78s-1.5 65 -1.5 103v210h-171v-201c0 -31.333 -0.333008 -58.333 -1 -81s-2 -43.5 -4 -62.5
s-5 -37.667 -9 -56s-9.66699 -39.166 -17 -62.499l-86 30c6.66699 22.667 12.5 40.834 17.5 54.501s9.16699 27.334 12.5 41.001s5.66602 29.834 6.99902 48.501s2 44 2 76l1 213c-26 0.666992 -47.333 -0.5 -64 -3.5s-31.334 -11.167 -44.001 -24.5l-20 28
c13.333 16.667 25.833 29.667 37.5 39s22.834 16.333 33.501 21s21 7.5 31 8.5s20.333 1.5 31 1.5h438l-20 -75h-86z" />
    <glyph glyph-name="uni0401" unicode="&#x401;" 
d="M371 337h-146v-287h270l60 110h50l-22 -160h-548v35l90 25v580l-90 25v35h533l17 -150h-50l-50 100h-260v-263h147l24 89h35v-228h-35zM299 860v-70l-20 -20h-70l-20 20v70l20 20h70zM483 860v-70l-20 -20h-70l-20 20v70l20 20h70z" />
    <glyph glyph-name="uni0402" unicode="&#x402;" horiz-adv-x="834" 
d="M537 412c37.333 0 70.501 -5.33105 99.501 -15.998s53.333 -25.167 73 -43.5s34.5 -39.333 44.5 -63s15 -48.5 15 -74.5c0 -36 -5.33301 -67.833 -16 -95.5s-24.834 -51.167 -42.501 -70.5s-38.167 -34 -61.5 -44s-47.333 -15 -72 -15c-6 0 -15.5 0.166992 -28.5 0.5
s-26.833 1.66602 -41.5 3.99902s-29 5.83301 -43 10.5s-25 11.334 -33 20.001v119h47l33 -94c10.667 -4 21.167 -6.66699 31.5 -8s16.166 -2 17.499 -2c22.667 0 40.667 5.33301 54 16s23.5 24.167 30.5 40.5s11.333 34.166 13 53.499s2.5 37.666 2.5 54.999
s-3 34.833 -9 52.5s-15 33.5 -27 47.5s-27 25.333 -45 34s-39 13 -63 13c-9.33301 0 -20.166 -0.166992 -32.499 -0.5s-25.5 -1 -39.5 -2s-28 -2.5 -42 -4.5s-27 -4.66699 -39 -8v-337h-180v35l80 25v590h-153l-50 -99h-50l16 149h569l15 -149h-50l-50 99h-147v-263
c30.667 7.33301 60.667 13.333 90 18s57.333 7 84 7z" />
    <glyph glyph-name="uni0403" unicode="&#x403;" horiz-adv-x="575" 
d="M550 700l15 -150h-49l-51 100h-240v-580l110 -35v-35h-300v35l90 35v560l-90 35v35h515zM295 740l-44 20l90 160l120 -30z" />
    <glyph glyph-name="uni0404" unicode="&#x404;" horiz-adv-x="630" 
d="M149 381l226 -1l21 70h35v-190h-35l-21 72h-227zM389 -10c-44.667 0 -87.1709 7.00293 -127.504 21.0029s-75.833 35.5 -106.5 64.5s-55 65.833 -73 110.5s-27 98 -27 160c0 55.333 9.66699 105.5 29 150.5s45.333 83.333 78 115s69.834 56 111.501 73
s85.167 25.5 130.5 25.5c18 0 36.333 -1 55 -3s36 -4.83301 52 -8.5s30.5 -7.5 43.5 -11.5s23.167 -8 30.5 -12v-150h-50l-50 120c-17.333 5.33301 -34.833 9.16602 -52.5 11.499s-32.167 3.5 -43.5 3.5c-30 0 -59 -6.33301 -87 -19s-52.667 -31.667 -74 -57
s-38.333 -57 -51 -95s-19 -82.333 -19 -133c0 -44 6.83301 -85.333 20.5 -124s31.834 -72.167 54.501 -100.5s48.5 -50.666 77.5 -66.999s58.5 -24.5 88.5 -24.5c19.333 0 34.833 1.16699 46.5 3.5s24.834 6.16602 39.501 11.499l50 130h50v-150
c-13.333 -8.66699 -29.666 -15.834 -48.999 -21.501s-38.5 -10.334 -57.5 -14.001s-36.667 -6.16699 -53 -7.5s-28.5 -2 -36.5 -2z" />
    <glyph glyph-name="uni0405" unicode="&#x405;" horiz-adv-x="601" 
d="M55 182l49.001 0.00195312l49 -127c10 -4 20.5 -7 31.5 -9s22 -3.5 33 -4.5s21.333 -1.5 31 -1.5h23.5c21.333 0 40.333 3.33301 57 10s30.667 15.5 42 26.5s20 23.167 26 36.5s9 27 9 41c0 14.667 -2 28.5 -6 41.5s-11.5 25.833 -22.5 38.5s-26 25.334 -45 38.001
s-43.167 26 -72.5 40c-47.333 20 -84.166 39.5 -110.499 58.5s-45.833 37.333 -58.5 55s-20.334 34.667 -23.001 51s-4 31.5 -4 45.5c0 28.667 6.16699 54.667 18.5 78s29.333 43.166 51 59.499s47.334 28.833 77.001 37.5s61.834 13 96.501 13
c26.667 0 52.5 -2.5 77.5 -7.5s53.5 -14.167 85.5 -27.5l-1 -150h-50l-49 120c-12 5.33301 -24.833 9.16602 -38.5 11.499s-25.167 3.5 -34.5 3.5c-18.667 0 -36.334 -2.16699 -53.001 -6.5s-31.334 -10.666 -44.001 -18.999s-22.667 -18.5 -30 -30.5s-11 -25.667 -11 -41
c0 -18 2.33301 -34.333 7 -49s13.167 -28.5 25.5 -41.5s28.833 -25.833 49.5 -38.5s47 -26 79 -40c36 -16 65.833 -32.333 89.5 -49s42.667 -33.834 57 -51.501s24.5 -35.5 30.5 -53.5s9 -36 9 -54c0 -28 -5.5 -54 -16.5 -78s-26.833 -44.833 -47.5 -62.5
s-45.334 -31.334 -74.001 -41.001s-60.667 -14.5 -96 -14.5c-34.667 0 -68.5 3.5 -101.5 10.5s-71.5 16.833 -115.5 29.5v152z" />
    <glyph glyph-name="uni0406" unicode="&#x406;" horiz-adv-x="401" 
d="M155 640l-90 25v35h281v-35l-90 -25v-580l90 -25v-35h-281v35l90 25v580z" />
    <glyph glyph-name="uni0407" unicode="&#x407;" horiz-adv-x="455" 
d="M175 640l-90 25v35h281v-35l-90 -25v-580l90 -25v-35h-281v35l90 25v580zM190 860v-70l-20 -20h-70l-20 20v70l20 20h70zM374 860v-70l-20 -20h-70l-20 20v70l20 20h70z" />
    <glyph glyph-name="uni0408" unicode="&#x408;" horiz-adv-x="265" 
d="M-59 30c28 0 49.999 7.66602 65.999 22.999s28 33.666 36 54.999s13 42.833 15 64.5s3 39.167 3 52.5v415l-110 25v35h300v-35l-90 -25v-370c0 -19.333 -0.333008 -39.666 -1 -60.999s-3 -42.5 -7 -63.5s-10.333 -40.833 -19 -59.5s-21.167 -35.167 -37.5 -49.5
s-37.166 -25.666 -62.499 -33.999s-56.333 -12.5 -93 -12.5v40z" />
    <glyph glyph-name="uni0409" unicode="&#x409;" horiz-adv-x="976" 
d="M569 640v-237h137c42.667 0 79.334 -6 110.001 -18s55.5 -27.833 74.5 -47.5s33 -41.667 42 -66s13.5 -48.5 13.5 -72.5c0 -34 -7.33301 -63.5 -22 -88.5s-34 -45.667 -58 -62s-51.667 -28.5 -83 -36.5s-63.666 -12 -96.999 -12h-291v35l70 25l1 590h-218v-75
c-0.666992 -66 -2.33398 -125.667 -5.00098 -179s-7.33398 -101.166 -14.001 -143.499s-15.667 -79.5 -27 -111.5s-26 -59.667 -44 -83c-8 -10.667 -17 -20 -27 -28s-20 -15.167 -30 -21.5s-19.5 -11.833 -28.5 -16.5l-22.5 -12l-50 113l131 42
c12.667 23.333 22.667 48.666 30 75.999s12.833 58.333 16.5 93s6 74.167 7 118.5s1.5 95.5 1.5 153.5v62l-95 25v37h566v-35zM843 199c0 24.667 -4.16699 46.667 -12.5 66s-19.666 35.5 -33.999 48.5s-30.833 22.833 -49.5 29.5s-38.334 10 -59.001 10h-119v-303h117
c20.667 0 40.5 2.83301 59.5 8.5s35.833 14.667 50.5 27s26.167 27.833 34.5 46.5s12.5 41 12.5 67z" />
    <glyph glyph-name="uni040A" unicode="&#x40a;" horiz-adv-x="1050" 
d="M550 60l-0.00195312 294h-333v-294l90 -25v-35h-272v35l90 25v580l-90 25v35h272v-35l-90 -25v-236h333v236l-90 25v35h272v-35l-89 -25v-237h137c42.667 0 79.334 -6 110.001 -18s55.5 -27.833 74.5 -47.5s33 -41.667 42 -66s13.5 -48.5 13.5 -72.5
c0 -34 -7.33301 -63.5 -22 -88.5s-34 -45.667 -58 -62s-51.667 -28.5 -83 -36.5s-63.666 -12 -96.999 -12h-291v35zM916.998 199c0 24.667 -4.16699 46.667 -12.5 66s-19.666 35.5 -33.999 48.5s-30.833 22.833 -49.5 29.5s-38.334 10 -59.001 10h-119v-303h117
c20.667 0 40.5 2.83301 59.5 8.5s35.833 14.667 50.5 27s26.167 27.833 34.5 46.5s12.5 41 12.5 67z" />
    <glyph glyph-name="uni040B" unicode="&#x40b;" horiz-adv-x="785" 
d="M364 350c36 19.333 67.498 34.168 94.498 44.501s49.833 15.5 68.5 15.5c30.667 0 56.5 -4.16699 77.5 -12.5s37.833 -20 50.5 -35s21.834 -32.667 27.501 -53s8.5 -42.5 8.5 -66.5v-183l69 -25v-35h-219v35l60 25v175c0 34 -8.66699 60 -26 78s-49.333 27 -96 27
c-16.667 0 -34.667 -2.33301 -54 -7s-39.666 -12.334 -60.999 -23.001l-1 -250l70 -25v-35h-250v35l80 25v590h-153l-50 -99h-50l16 149h569l15 -149h-50l-50 99h-147z" />
    <glyph glyph-name="uni040C" unicode="&#x40c;" horiz-adv-x="704" 
d="M396 355l193 -295l90 -25v-35h-165l-216 330h-73v-270l90 -25v-35h-280v35l90 25v580l-90 25v35h280v-35l-90 -25v-260h119l143 260l-70 25v35h226v-35l-90 -25zM315 740l-44 20l90 160l120 -30z" />
    <glyph glyph-name="uni040E" unicode="&#x40e;" horiz-adv-x="629" 
d="M415 929l84.9961 -23.001c-5.33301 -20.667 -13.666 -39 -24.999 -55s-24.5 -29.667 -39.5 -41s-31.5 -20 -49.5 -26s-36.333 -9 -55 -9c-37.333 0 -71.666 10.833 -102.999 32.5s-52.666 54.5 -63.999 98.5l40 14.5c10 3.66699 18 6.16699 24 7.5s10.333 2 13 2
s4.66699 -0.333008 6 -1v-76c12.667 -11.333 25.834 -18.833 39.501 -22.5s28.5 -5.5 44.5 -5.5s30.5 1.83301 43.5 5.5s26.5 10.834 40.5 21.501v77zM276.996 -35.001l-101 34l141 166l7 18l-254 457l-70 25v35h250v-35l-80 -25l191 -369l159 369l-80 25v35h204v-35
l-70 -25z" />
    <glyph glyph-name="uni040F" unicode="&#x40f;" horiz-adv-x="773" 
d="M318 5h120l-20 -190h-80zM738 0h-703v35l90 25v580l-90 25v35h280v-35l-90 -24v-591h322v590l-89 25v35h280v-35l-90 -25v-580l90 -25v-35z" />
    <glyph glyph-name="uni0410" unicode="&#x410;" horiz-adv-x="644" 
d="M409 206h-248l-52 -146l90 -25v-35h-218v35l70 25l235 655h40l249 -655l70 -25v-35h-266v35l85 25zM178 256h213l-109 292z" />
    <glyph glyph-name="uni0411" unicode="&#x411;" horiz-adv-x="670" 
d="M235 393l129.998 -0.000976562c45.333 0 83.333 -5.5 114 -16.5s55.334 -25.667 74.001 -44s32 -39.166 40 -62.499s12 -47 12 -71c0 -34 -7.33301 -63.5 -22 -88.5s-34 -45.667 -58 -62s-51.667 -28.5 -83 -36.5s-63.666 -12 -96.999 -12h-300v35l90 35v560l-90 35v35
h515l15 -150h-50l-50 100h-240v-257zM501.998 198.999c0 24.667 -4.16699 46 -12.5 64s-19.666 33 -33.999 45s-30.833 20.833 -49.5 26.5s-38.334 8.5 -59.001 8.5h-112v-293h110c20.667 0 40.5 2.83301 59.5 8.5s35.833 14.667 50.5 27s26.167 27.833 34.5 46.5
s12.5 41 12.5 67z" />
    <glyph glyph-name="uni0412" unicode="&#x412;" horiz-adv-x="651" 
d="M35 35l90 25.001v580l-90 25v35h314c70.667 0 123.5 -13.833 158.5 -41.5s52.5 -65.5 52.5 -113.5c0 -46 -14 -82.5 -42 -109.5s-65.333 -46.167 -112 -57.5c26.667 -5.33301 51.5 -13 74.5 -23s43 -22.5 60 -37.5s30.5 -32.333 40.5 -52s15 -41.834 15 -66.501
c0 -34 -6.83301 -63.5 -20.5 -88.5s-32 -45.667 -55 -62s-49.667 -28.5 -80 -36.5s-61.833 -12 -94.5 -12h-311v35zM456 545.001c0 16.667 -3.5 31.5 -10.5 44.5s-16.167 24 -27.5 33s-23.833 15.833 -37.5 20.5s-27.5 7 -41.5 7h-110v-255h72c46 0 83.333 13.5 112 40.5
s43 63.5 43 109.5zM493 199.001c0 26 -4.83105 48.165 -14.498 66.498s-22.334 33.333 -38.001 45s-33.834 20.334 -54.501 26.001s-42 8.83398 -64 9.50098h-93v-296h107c20.667 0 40.5 2.83301 59.5 8.5s35.833 14.667 50.5 27s26.167 27.833 34.5 46.5s12.5 41 12.5 67z
" />
    <glyph glyph-name="uni0413" unicode="&#x413;" horiz-adv-x="575" 
d="M550 700l15 -150h-49l-51 100h-240v-580l110 -35v-35h-300v35l90 35v560l-90 35v35h515z" />
    <glyph glyph-name="uni0414" unicode="&#x414;" horiz-adv-x="720" 
d="M68 50c22 24.667 40.667 53.833 56 87.5s27.833 74 37.5 121s16.667 101.667 21 164s6.5 134.833 6.5 217.5l-110 25v35h586v-35l-90 -25v-590h100v-220h-40l-60 170h-475l-50 -170h-40v220h58zM475 49.999l-0.00292969 600.002h-226c0 -80 -1.66699 -151.667 -5 -215
s-9.16602 -119.333 -17.499 -168s-19.666 -90.834 -33.999 -126.501s-32.166 -65.834 -53.499 -90.501h336z" />
    <glyph glyph-name="uni0415" unicode="&#x415;" 
d="M371 337h-146v-287h270l60 110h50l-22 -160h-548v35l90 25v580l-90 25v35h533l17 -150h-50l-50 100h-260v-263h147l24 89h35v-228h-35z" />
    <glyph glyph-name="uni0416" unicode="&#x416;" horiz-adv-x="942" 
d="M519 380h121l151 260l-70 25v35h206v-35l-70 -25l-167 -285l171 -295l60 -25v-35h-132l-196 330h-74v-270l70 -25v-35h-236v35l70 25v270h-74l-196 -330h-132v35l60 25l171 295l-167 285l-70 25v35h206v-35l-70 -25l152 -260h120v260l-70 25v35h236v-35l-70 -25v-260z
" />
    <glyph glyph-name="uni0417" unicode="&#x417;" horiz-adv-x="562" 
d="M270 710c70 0 122.665 -15.5049 157.998 -46.5049s53 -70.5 53 -118.5c0 -46 -14 -82.5 -42 -109.5s-65.333 -46.167 -112 -57.5c26.667 -5.33301 51.5 -13 74.5 -23s43 -22.5 60 -37.5s30.5 -32.333 40.5 -52s15 -41.834 15 -66.501c0 -34 -6.83301 -64 -20.5 -90
s-31.834 -47.833 -54.501 -65.5s-49.167 -31 -79.5 -40s-61.833 -13.5 -94.5 -13.5c-24 0 -45.5 0.666992 -64.5 2s-37 3.83301 -54 7.5s-33.667 8.33398 -50 14.001s-34.5 12.834 -54.5 21.501v150h50l50 -128c9.33301 -3.33301 18 -6 26 -8s16.333 -3.66699 25 -5
s17.834 -2.33301 27.501 -3s20.834 -1 33.501 -1c20 0 39.5 3.33301 58.5 10s35.833 16.834 50.5 30.501s26.334 30.334 35.001 50.001s13 42.5 13 68.5s-4.83301 48.167 -14.5 66.5s-22.334 33.333 -38.001 45s-33.834 20.334 -54.501 26.001s-42 8.83398 -64 9.50098h-52
v49h31c46 0 83.333 13.5 112 40.5s43 63.5 43 109.5c0 16.667 -3.5 32 -10.5 46s-16 26.167 -27 36.5s-23.333 18.333 -37 24s-27.5 8.5 -41.5 8.5c-19.333 0 -33.666 -0.5 -42.999 -1.5s-19.666 -4.83301 -30.999 -11.5l-52 -122h-50v150c28 9.33301 56.833 17.5 86.5 24.5
s62.5 10.5 98.5 10.5z" />
    <glyph glyph-name="uni0418" unicode="&#x418;" horiz-adv-x="783" 
d="M558 605v35l-90 25v35h280v-35l-90 -25v-580l90 -25v-35h-280v35l90 25v458l-333 -437v-21l90 -25v-35h-280v35l90 25v580l-90 25v35h280v-35l-90 -25v-468z" />
    <glyph glyph-name="uni0419" unicode="&#x419;" horiz-adv-x="783" 
d="M485 929l84.9961 -23.001c-5.33301 -20.667 -13.666 -39 -24.999 -55s-24.5 -29.667 -39.5 -41s-31.5 -20 -49.5 -26s-36.333 -9 -55 -9c-37.333 0 -71.666 10.833 -102.999 32.5s-52.666 54.5 -63.999 98.5l40 14.5c10 3.66699 18 6.16699 24 7.5s10.333 2 13 2
s4.66699 -0.333008 6 -1v-76c12.667 -11.333 25.834 -18.833 39.501 -22.5s28.5 -5.5 44.5 -5.5s30.5 1.83301 43.5 5.5s26.5 10.834 40.5 21.501v77zM557.996 604.999v35l-90 25v35h280v-35l-90 -25v-580l90 -25v-35h-280v35l90 25v458l-333 -437v-21l90 -25v-35h-280v35
l90 25v580l-90 25v35h280v-35l-90 -25v-468z" />
    <glyph glyph-name="uni041A" unicode="&#x41a;" horiz-adv-x="704" 
d="M396 355l193 -295l90 -25v-35h-165l-216 330h-73v-270l90 -25v-35h-280v35l90 25v580l-90 25v35h280v-35l-90 -25v-260h119l143 260l-70 25v35h226v-35l-90 -25z" />
    <glyph glyph-name="uni041B" unicode="&#x41b;" horiz-adv-x="692" 
d="M131 125c12.667 23.333 22.6689 48.666 30.002 75.999s12.833 58.333 16.5 93s6 74.167 7 118.5s1.5 95.5 1.5 153.5v72l-95 25v37h566v-35l-90 -25v-580l90 -25v-35h-280v35l90 25v590h-219v-85c-0.666992 -66 -2.33398 -125.667 -5.00098 -179
s-7.33398 -101.166 -14.001 -143.499s-15.667 -79.5 -27 -111.5s-26 -59.667 -44 -83c-8 -10.667 -17 -20 -27 -28s-20 -15.167 -30 -21.5s-19.5 -11.833 -28.5 -16.5l-22.5 -12l-50 113z" />
    <glyph glyph-name="uni041C" unicode="&#x41c;" horiz-adv-x="925" 
d="M810 60l90 -25v-35h-270v35l80 25l-15 493l-217 -552h-57l-207 554l-24 -495l80 -25v-35h-225v35l90 25l29 580l-90 25v35h186l212 -557l218 557h188v-35l-90 -25z" />
    <glyph glyph-name="uni041D" unicode="&#x41d;" horiz-adv-x="767" 
d="M550 391v249l-90 25v35h272v-35l-90 -25v-580l90 -25v-35h-272v35l90 25v281h-333v-281l90 -25v-35h-272v35l90 25v580l-90 25v35h272v-35l-90 -25v-249h333z" />
    <glyph glyph-name="uni041E" unicode="&#x41e;" horiz-adv-x="732" 
d="M366 710c51.333 0 96.333 -9.16895 135 -27.502s71 -43.666 97 -75.999s45.667 -70.333 59 -114s20 -90.5 20 -140.5c0 -49.333 -6.66699 -95.833 -20 -139.5s-33 -82 -59 -115s-58.5 -59.167 -97.5 -78.5s-83.833 -29 -134.5 -29c-52 0 -97.333 9.5 -136 28.5
s-71 44.833 -97 77.5s-45.5 71 -58.5 115s-19.5 91 -19.5 141c0 50.667 6.5 97.834 19.5 141.501s32.5 81.5 58.5 113.5s58.5 57.167 97.5 75.5s84.167 27.5 135.5 27.5zM366 659.998c-31.333 0 -59.668 -7.16797 -85.001 -21.501s-47 -34.666 -65 -60.999
s-31.833 -58.5 -41.5 -96.5s-14.5 -81 -14.5 -129s4.83301 -91.167 14.5 -129.5s23.334 -71 41.001 -98s39.167 -47.833 64.5 -62.5s54 -22 86 -22c31.333 0 59.5 7.33301 84.5 22s46.333 35.5 64 62.5s31.167 59.667 40.5 98s14 81.5 14 129.5
c0 47.333 -4.66699 90 -14 128s-22.833 70.333 -40.5 97s-39 47.167 -64 61.5s-53.167 21.5 -84.5 21.5z" />
    <glyph glyph-name="uni041F" unicode="&#x41f;" horiz-adv-x="773" 
d="M738 665l-90 -25v-580l90 -25v-35h-280v35l89 25v590h-322v-591l90 -24v-35h-280v35l90 25v580l-90 25v35h703v-35z" />
    <glyph glyph-name="uni0420" unicode="&#x420;" horiz-adv-x="583" 
d="M335 35l0.000976562 -35h-300v35l90 25v580l-90 25v35h303c30 0 58.333 -3.66699 85 -11s50 -18.666 70 -33.999s35.833 -34.666 47.5 -57.999s17.5 -51 17.5 -83c0 -36 -7.66699 -67.333 -23 -94s-35.333 -48.834 -60 -66.501s-52.834 -30.834 -84.501 -39.501
s-63.5 -13 -95.5 -13c-12 0 -23.833 0.333008 -35.5 1s-23.167 2 -34.5 4v-246zM458.001 514c0 22 -4 41.332 -12 57.999s-18.5 30.834 -31.5 42.501s-27.833 20.5 -44.5 26.5s-33.667 9 -51 9h-94v-297c24.667 -2.66699 50.667 -2.16699 78 1.5s52.5 11.5 75.5 23.5
s42 29.167 57 51.5s22.5 50.5 22.5 84.5z" />
    <glyph glyph-name="uni0421" unicode="&#x421;" horiz-adv-x="630" 
d="M389 -10c-44.667 0 -87.1709 7.00293 -127.504 21.0029s-75.833 35.5 -106.5 64.5s-55 65.833 -73 110.5s-27 98 -27 160c0 55.333 9.66699 105.5 29 150.5s45.333 83.333 78 115s69.834 56 111.501 73s85.167 25.5 130.5 25.5c18 0 36.333 -1 55 -3s36 -4.83301 52 -8.5
s30.5 -7.5 43.5 -11.5s23.167 -8 30.5 -12v-150h-50l-50 120c-17.333 5.33301 -34.833 9.16602 -52.5 11.499s-32.167 3.5 -43.5 3.5c-30 0 -59 -6.33301 -87 -19s-52.667 -31.667 -74 -57s-38.333 -57 -51 -95s-19 -82.333 -19 -133c0 -44 6.83301 -85.333 20.5 -124
s31.834 -72.167 54.501 -100.5s48.5 -50.666 77.5 -66.999s58.5 -24.5 88.5 -24.5c19.333 0 34.833 1.16699 46.5 3.5s24.834 6.16602 39.501 11.499l50 130h50v-150c-13.333 -8.66699 -29.666 -15.834 -48.999 -21.501s-38.5 -10.334 -57.5 -14.001
s-36.667 -6.16699 -53 -7.5s-28.5 -2 -36.5 -2z" />
    <glyph glyph-name="uni0422" unicode="&#x422;" horiz-adv-x="630" 
d="M115 650l-50 -99h-50l16 149h569l15 -149h-50l-50 99h-147v-590l90 -25v-35h-280v35l90 25v590h-153z" />
    <glyph glyph-name="uni0423" unicode="&#x423;" horiz-adv-x="629" 
d="M277 -35l-101 34l141 166l7 18l-254 457l-70 25v35h250v-35l-80 -25l191 -369l159 369l-80 25v35h204v-35l-70 -25z" />
    <glyph glyph-name="uni0424" unicode="&#x424;" horiz-adv-x="809" 
d="M356 105c-41.333 0 -80.668 4.66699 -118.001 14s-70.333 23.833 -99 43.5s-51.5 44.834 -68.5 75.501s-25.5 67.667 -25.5 111c0 44 8.33301 81.333 25 112s39.334 55.5 68.001 74.5s61.834 32.833 99.501 41.5s77.167 13 118.5 13v55l-90 20v35h276v-35l-90 -20v-55
c42 0 81.833 -4.33301 119.5 -13s70.667 -22.5 99 -41.5s51 -43.833 68 -74.5s25.5 -68 25.5 -112c0 -43.333 -8.5 -80.333 -25.5 -111s-39.833 -55.834 -68.5 -75.501s-61.834 -34.167 -99.501 -43.5s-77.167 -14 -118.5 -14v-50l90 -20v-35h-276v35l90 20v50zM451.998 543
v-391c66 0 118.167 16.667 156.5 50s57.5 82.333 57.5 147c0 64 -19.333 112.333 -58 145s-90.667 49 -156 49zM142.998 349c0 -64.667 19.499 -113.667 58.499 -147s90.5 -50 154.5 -50v391c-65.333 0 -117.166 -16.167 -155.499 -48.5s-57.5 -80.833 -57.5 -145.5z" />
    <glyph glyph-name="uni0425" unicode="&#x425;" horiz-adv-x="647" 
d="M642 35v-35h-248v35l70 25l-173 257l-152 -257l70 -25v-35h-204v35l70 25l187 298l-187 282l-70 25v35h248v-35l-70 -25l136 -219l136 219l-70 25v35h203v-35l-70 -25l-169 -263l223 -317z" />
    <glyph glyph-name="uni0426" unicode="&#x426;" horiz-adv-x="783" 
d="M745 50v-220h-42l-60 170h-608v35l90 35v570l-90 25v35h280v-35l-90 -25v-590h322l1 590l-90 25v35h280v-35l-90 -25v-590h97z" />
    <glyph glyph-name="uni0427" unicode="&#x427;" horiz-adv-x="712" 
d="M486 327c-32 -14 -63.166 -23.833 -93.499 -29.5s-58.166 -8.5 -83.499 -8.5c-32.667 0 -62.167 4.66699 -88.5 14s-48.666 22.333 -66.999 39s-32.5 36.334 -42.5 59.001s-15 47.667 -15 75l-1 164l-90 25v35h271v-35l-80 -25v-156c0 -15.333 1.16699 -31 3.5 -47
s8.16602 -30.667 17.499 -44s23.166 -24.333 41.499 -33s43.166 -13 74.499 -13c20 0 43.5 2.16699 70.5 6.5s54.5 10.166 82.5 17.499v269l-80 25v35h271v-35l-90 -25v-580l90 -25v-35h-301v35l110 25v267z" />
    <glyph glyph-name="uni0428" unicode="&#x428;" horiz-adv-x="1027" 
d="M801 50l1 590l-80 25v35h270v-35l-90 -25v-580l90 -25v-35h-957v35l90 25v580l-90 25v35h270v-35l-80 -25v-590h241l1 590l-80 25v35h260v-35l-80 -25v-590h234z" />
    <glyph glyph-name="uni0429" unicode="&#x429;" horiz-adv-x="1035" 
d="M1000 50v-220h-43l-62 170h-860v35l90 25v580l-90 25v35h270v-35l-80 -24v-591h240l1 590l-80 25v35h259v-35l-80 -25v-590h234l1 590l-80 25v35h270v-35l-90 -25v-590h100z" />
    <glyph glyph-name="uni042A" unicode="&#x42a;" horiz-adv-x="740" 
d="M607 199c0 24.667 -4.16699 46.667 -12.5 66s-19.666 35.5 -33.999 48.5s-30.833 22.833 -49.5 29.5s-38.334 10 -59.001 10h-119v-303h117c20.667 0 40.5 2.83301 59.5 8.5s35.833 14.667 50.5 27s26.167 27.833 34.5 46.5s12.5 41 12.5 67zM402 700l-0.00195312 -35
l-70 -25l1 -237h137c42.667 0 79.334 -6 110.001 -18s55.5 -27.833 74.5 -47.5s33 -41.667 42 -66s13.5 -48.5 13.5 -72.5c0 -34 -7.33301 -63.5 -22 -88.5s-34 -45.667 -58 -62s-51.667 -28.5 -83 -36.5s-63.666 -12 -96.999 -12h-291v35l70 25v590h-110l-49 -99h-50
l18 149h364z" />
    <glyph glyph-name="uni042B" unicode="&#x42b;" horiz-adv-x="951" 
d="M503 199c0 24.667 -4.16699 46.667 -12.5 66s-19.666 35.5 -33.999 48.5s-30.833 22.833 -49.5 29.5s-38.334 10 -59.001 10h-119v-303h117c20.667 0 40.5 2.83301 59.5 8.5s35.833 14.667 50.5 27s26.167 27.833 34.5 46.5s12.5 41 12.5 67zM319 665l-90.002 -25v-237
h137c42.667 0 79.334 -6 110.001 -18s55.5 -27.833 74.5 -47.5s33 -41.667 42 -66s13.5 -48.5 13.5 -72.5c0 -34 -7.33301 -63.5 -22 -88.5s-34 -45.667 -58 -62s-51.667 -28.5 -83 -36.5s-63.666 -12 -96.999 -12h-311v35l90 25v580l-90 25v35h284v-35zM724.998 640l-90 25
v35h281v-35l-90 -25v-580l90 -25v-35h-281v35l90 25v580z" />
    <glyph glyph-name="uni042C" unicode="&#x42c;" horiz-adv-x="636" 
d="M503 199c0 24.667 -4.16699 46.667 -12.5 66s-19.666 35.5 -33.999 48.5s-30.833 22.833 -49.5 29.5s-38.334 10 -59.001 10h-119v-303h117c20.667 0 40.5 2.83301 59.5 8.5s35.833 14.667 50.5 27s26.167 27.833 34.5 46.5s12.5 41 12.5 67zM319 665l-90.002 -25v-237
h137c42.667 0 79.334 -6 110.001 -18s55.5 -27.833 74.5 -47.5s33 -41.667 42 -66s13.5 -48.5 13.5 -72.5c0 -34 -7.33301 -63.5 -22 -88.5s-34 -45.667 -58 -62s-51.667 -28.5 -83 -36.5s-63.666 -12 -96.999 -12h-311v35l90 25v580l-90 25v35h284v-35z" />
    <glyph glyph-name="uni042D" unicode="&#x42d;" horiz-adv-x="631" 
d="M263 710c39.333 0 78.0039 -5.99707 116.004 -17.9971s72 -32 102 -60s54.167 -64.667 72.5 -110s27.5 -101.333 27.5 -168c0 -56.667 -10.5 -107.5 -31.5 -152.5s-48.667 -83.167 -83 -114.5s-73.333 -55.333 -117 -72s-87.834 -25 -132.501 -25
c-36.667 0 -68.167 4.5 -94.5 13.5s-47.166 18.833 -62.499 29.5v152h50l50 -132c9.33301 -4 19 -7 29 -9s19.5 -3.16699 28.5 -3.5s16.667 -0.5 23 -0.5h11.5c29.333 0 57.166 6 83.499 18s49.5 30.167 69.5 54.5s36 54.666 48 90.999s18.667 79.166 20 128.499h-216
l-21 -72h-35v190h35l21 -70h214c-3.33301 40 -11.333 77 -24 111s-28.834 63.5 -48.501 88.5s-42 44.667 -67 59s-51.5 21.5 -79.5 21.5h-23c-6.66699 0 -13.167 -0.166992 -19.5 -0.5s-12.833 -1.33301 -19.5 -3s-14 -3.83398 -22 -6.50098l-53 -125h-50v150
c19.333 10 38.666 17.333 57.999 22s37.666 8 54.999 10s33.333 3 48 3h37z" />
    <glyph glyph-name="uni042E" unicode="&#x42e;" horiz-adv-x="1006" 
d="M654 710c38 0 75.1689 -7.33398 111.502 -22.001s68.5 -37 96.5 -67c30.667 -32.667 54 -71.5 70 -116.5s24 -95.833 24 -152.5c0 -111.333 -31.667 -201.666 -95 -270.999c-26.667 -30 -58.334 -52.667 -95.001 -68s-74 -23 -112 -23s-75.833 7.66699 -113.5 23
s-69.834 38 -96.501 68c-28 32 -49.833 68.667 -65.5 110s-24.5 88 -26.5 140h-127v-271l90 -25v-35h-280v35l90 25v580l-90 25v35h280v-35l-90 -25v-258h128c5.33301 99.333 35.333 179 90 239c28 30 60.5 52.333 97.5 67s74.833 22 113.5 22zM654.002 659.999
c-31.333 0 -58.668 -7.16797 -82.001 -21.501s-43 -34.666 -59 -60.999s-28 -58.5 -36 -96.5s-12 -81 -12 -129s4 -91.167 12 -129.5s19.833 -71 35.5 -98s35.334 -47.833 59.001 -62.5s51.167 -22 82.5 -22c30.667 0 57.667 7.33301 81 22s42.833 35.5 58.5 62.5
s27.334 59.667 35.001 98s11.5 81.5 11.5 129.5c0 47.333 -3.83301 90 -11.5 128s-19.334 70.333 -35.001 97s-35.167 47.167 -58.5 61.5s-50.333 21.5 -81 21.5z" />
    <glyph glyph-name="uni042F" unicode="&#x42f;" horiz-adv-x="630" 
d="M415 60v251h-105l-148 -311h-167v35l90 25l133 269c-42 13.333 -76.833 35 -104.5 65s-41.5 70.667 -41.5 122c0 32 7 59.5 21 82.5s32.167 42 54.5 57s47.833 26.167 76.5 33.5s58 11 88 11h283v-35l-80 -25v-580l80 -25v-35h-270v35zM172 508
c0 -44 13.499 -79.501 40.499 -106.501s63.5 -40.5 109.5 -40.5h93v289h-103c-20 0 -38.5 -3.33301 -55.5 -10s-31.667 -16.167 -44 -28.5s-22.166 -27.166 -29.499 -44.499s-11 -37 -11 -59z" />
    <glyph glyph-name="uni0430" unicode="&#x430;" horiz-adv-x="522" 
d="M215 460c-6 0 -14.4971 -1.16797 -25.4971 -3.50098s-24.5 -6.16602 -40.5 -11.499l-35 -85h-50v115c14.667 6 30.5 11.167 47.5 15.5s33.667 8 50 11s31.5 5.16699 45.5 6.5s25.333 2 34 2c52.667 0 95.167 -11.833 127.5 -35.5s48.5 -60.834 48.5 -111.501v-293l70 -15
v-35l-140 -30l-20 60c-26.667 -21.333 -52.834 -36.666 -78.501 -45.999s-48.167 -14 -67.5 -14c-23.333 0 -44.333 3.33301 -63 10s-34.5 16 -47.5 28s-23 26 -30 42s-10.5 33.667 -10.5 53c0 18 4.16699 36.333 12.5 55s23.666 35.5 45.999 50.5s52.666 27.333 90.999 37
s87.5 14.5 147.5 14.5v71c0 40 -9.16699 68.167 -27.5 84.5s-46.5 24.5 -84.5 24.5zM327.003 234.999c-38.667 0 -71.167 -2.66797 -97.5 -8.00098s-47.5 -12.833 -63.5 -22.5s-27.333 -21.5 -34 -35.5s-10 -29.333 -10 -46s3.66699 -30.167 11 -40.5
s15.833 -18.166 25.5 -23.499s19.5 -9 29.5 -11s17.667 -3 23 -3c19.333 0 39.5 6 60.5 18s39.5 27.667 55.5 47v125z" />
    <glyph glyph-name="uni0431" unicode="&#x431;" horiz-adv-x="584" 
d="M139 370c12.667 27.333 26.0029 50.0059 40.0029 68.0059s28.833 32.333 44.5 43s32.667 18.167 51 22.5s38.166 6.5 59.499 6.5c38 0 70.167 -7.5 96.5 -22.5s47.5 -34.5 63.5 -58.5s27.5 -51 34.5 -81s10.5 -60.333 10.5 -91s-4.66699 -61.834 -14 -93.501
s-23.5 -60.334 -42.5 -86.001s-43.333 -46.667 -73 -63s-64.834 -24.5 -105.501 -24.5c-44 0 -81.667 9.16699 -113 27.5s-57 42.666 -77 72.999s-34.833 65.166 -44.5 104.499s-14.5 80 -14.5 122c0 41.333 4.5 82.666 13.5 123.999s21.833 79.5 38.5 114.5
s37 65.333 61 91s51 43.5 81 53.5c20 6.66699 40.333 12 61 16s40 7.16699 58 9.5s33.333 3.83301 46 4.5s21 1 25 1l62 46l22 -12l-52 -126c-10.667 0.666992 -21 1 -31 1h-29c-51.333 0 -94.5 -3.83301 -129.5 -11.5s-63.333 -21.5 -85 -41.5s-37.834 -47.333 -48.501 -82
s-17.667 -79.334 -21 -134.001zM314.003 40.0059c20.667 0 38.667 5.83301 54 17.5s28 27.334 38 47.001s17.5 42.667 22.5 69s7.5 54.166 7.5 83.499c0 28.667 -2.5 55.5 -7.5 80.5s-13.167 46.5 -24.5 64.5s-26 32.167 -44 42.5s-40 15.5 -66 15.5
c-20.667 0 -39.167 -5.16699 -55.5 -15.5s-30 -24.5 -41 -42.5s-19.5 -39.5 -25.5 -64.5s-9 -51.833 -9 -80.5c0 -29.333 3 -57.166 9 -83.499s15.167 -49.333 27.5 -69s28 -35.334 47 -47.001s41.5 -17.5 67.5 -17.5z" />
    <glyph glyph-name="uni0432" unicode="&#x432;" horiz-adv-x="528" 
d="M185 50l99.001 0.000976562c30 0 53.333 8.33301 70 25s25 42 25 76c0 18.667 -3 34 -9 46s-14 21.167 -24 27.5s-21.333 10.666 -34 12.999s-25.334 3.5 -38.001 3.5h-89v-191zM185.001 291.001l89.002 -0.000976562c16.667 0 30.5 3 41.5 9s19.5 13.333 25.5 22
s10.167 18 12.5 28s3.5 19 3.5 27c0 8.66699 -1.5 17.334 -4.5 26.001s-7.83301 16.5 -14.5 23.5s-15.334 12.667 -26.001 17s-23.334 6.5 -38.001 6.5h-89v-159zM343.003 275c49.333 -10.667 83.334 -26.5 102.001 -47.5s28 -45.5 28 -73.5
c0 -50 -17.5 -88.167 -52.5 -114.5s-83.833 -39.5 -146.5 -39.5h-244v35l70 25v380l-70 25v35h264c50 0 88.167 -10.333 114.5 -31s39.5 -48 39.5 -82c0 -24 -7.83301 -45.833 -23.5 -65.5s-42.834 -35.167 -81.501 -46.5z" />
    <glyph glyph-name="uni0433" unicode="&#x433;" horiz-adv-x="444" 
d="M419 500l15 -137h-45l-40 87h-160v-390l90 -25v-35h-249v35l70 25v380l-70 25v35h389z" />
    <glyph glyph-name="uni0434" unicode="&#x434;" horiz-adv-x="595" 
d="M33 50c22 20 40.333 45.001 55 75.001s26.5 62.5 35.5 97.5s15.333 71.167 19 108.5s5.5 73.666 5.5 108.999l-90 25v35h472v-35l-70 -25v-390h93v-200h-40l-55 150h-368l-55 -150h-40v200h38zM372 50.001v400h-164c0 -32.667 -1.5 -68 -4.5 -106
s-8.5 -75.5 -16.5 -112.5s-18.833 -71.5 -32.5 -103.5s-31.167 -58 -52.5 -78h270z" />
    <glyph glyph-name="uni0435" unicode="&#x435;" horiz-adv-x="533" 
d="M116 308l280 0.00292969c0 48 -10.167 85.333 -30.5 112s-48.833 40 -85.5 40c-27.333 0 -49.833 -5.33301 -67.5 -16s-31.667 -24.5 -42 -41.5s-17.5 -36.333 -21.5 -58s-6 -43.167 -6 -64.5c0 -71.333 13 -127.5 39 -168.5s68.667 -61.5 128 -61.5
c30 0 58 4.16699 84 12.5s48.667 17.833 68 28.5l17 -31c-18.667 -14 -35.5 -25.5 -50.5 -34.5s-30 -16.167 -45 -21.5s-30.833 -9 -47.5 -11s-35.334 -3 -56.001 -3c-35.333 0 -67.166 6.16699 -95.499 18.5s-52.5 29.666 -72.5 51.999s-35.333 49 -46 80
s-16 65.167 -16 102.5c0 36 5.33301 70.167 16 102.5s26 60.666 46 84.999s44.167 43.666 72.5 57.999s60.166 21.5 95.499 21.5c65.333 0 116.333 -20.5 153 -61.5s54.334 -104.5 53.001 -190.5h-370v50z" />
    <glyph glyph-name="uni0436" unicode="&#x436;" horiz-adv-x="792" 
d="M489 500v-35l-50 -25v-147h94l95 147l-50 25v35h188v-35l-68 -25l-112 -170l116 -210l70 -25v-35h-127l-135 243h-71v-183l60 -25v-35h-206v35l60 25v183h-71l-135 -243h-127v35l70 25l116 210l-113 170l-67 25v35h188v-35l-50 -25l95 -147h94v147l-50 25v35h186z" />
    <glyph glyph-name="uni0437" unicode="&#x437;" horiz-adv-x="461" 
d="M222 40c36 0 62.333 10.002 79 30.002s25 47 25 81c0 18.667 -3 34 -9 46s-14 21.167 -24 27.5s-21.333 10.666 -34 12.999s-25.334 3.5 -38.001 3.5h-77v50h77c16.667 0 30.334 3 41.001 9s18.834 13.333 24.501 22s9.5 18 11.5 28s3 19 3 27
c0 8.66699 -1.33301 17.834 -4 27.501s-7.16699 18.667 -13.5 27s-14.5 15.166 -24.5 20.499s-22.333 8 -37 8c-6.66699 0 -17.167 -1.33301 -31.5 -4s-28.5 -6.33398 -42.5 -11.001l-36 -84l-49 -1v115c22.667 10 50.5 18.167 83.5 24.5s64.833 9.83301 95.5 10.5
c50 0 88.167 -12 114.5 -36s39.5 -53 39.5 -87c0 -24 -7.83301 -45.833 -23.5 -65.5s-42.834 -35.167 -81.501 -46.5c49.333 -10.667 83.333 -26.5 102 -47.5s28 -45.5 28 -73.5c0 -50 -17.5 -89.833 -52.5 -119.5s-83.833 -44.5 -146.5 -44.5
c-34.667 0.666992 -68.167 5.16699 -100.5 13.5s-59.5 18.833 -81.5 31.5v115h50l36 -85c19.333 -10 37.833 -16.667 55.5 -20s31.167 -5 40.5 -5z" />
    <glyph glyph-name="uni0438" unicode="&#x438;" horiz-adv-x="610" 
d="M425 418v22l-78 25v35h233v-35l-70 -25v-380l70 -25v-35h-224v35l70 25v287l-241 -266v-21l70 -25v-35h-225v35l70 25v380l-70 25v35h224v-35l-70 -25v-290z" />
    <glyph glyph-name="uni0439" unicode="&#x439;" horiz-adv-x="662" 
d="M413 724l84.9961 -23.001c-5.33301 -20.667 -13.666 -39 -24.999 -55s-24.5 -29.667 -39.5 -41s-31.5 -20 -49.5 -26s-36.333 -9 -55 -9c-37.333 0 -71.666 10.833 -102.999 32.5s-52.666 54.5 -63.999 98.5l40 14.5c10 3.66699 18 6.16699 24 7.5s10.333 2 13 2
s4.66699 -0.333008 6 -1v-76c12.667 -11.333 25.834 -18.833 39.501 -22.5s28.5 -5.5 44.5 -5.5s30.5 1.83301 43.5 5.5s26.5 10.834 40.5 21.501v77zM455.996 417.999v12l-78 35v35h254v-35l-90 -35v-360l90 -35v-35h-254v35l79 35v277l-251 -266v-11l78 -35v-35h-254v35
l90 35v360l-90 35v35h254v-35l-79 -35v-280z" />
    <glyph glyph-name="uni043A" unicode="&#x43a;" horiz-adv-x="638" 
d="M205 293h101l108 147l-65 25v35h219v-35l-86 -25l-130 -170l166 -210l90 -25v-35h-152l-190 243h-61v-183l70 -25v-35h-245v35l90 25v380l-90 25v35h245v-35l-70 -25v-147z" />
    <glyph glyph-name="uni043B" unicode="&#x43b;" horiz-adv-x="545" 
d="M106 106c10 18 17.667 37.5 23 58.5s9.33301 42.667 12 65s4.33398 45 5.00098 68s1 45.833 1 68.5v74l-85 25v35h453v-35l-70 -25v-380l70 -25v-35h-229v35l70 25v390h-155v-83c0 -28 -0.833008 -57 -2.5 -87s-4.83398 -59.167 -9.50098 -87.5s-11.5 -55 -20.5 -80
s-20.833 -46.5 -35.5 -64.5c-8 -10 -15.5 -18.667 -22.5 -26s-14.167 -13.833 -21.5 -19.5s-15.333 -11 -24 -16l-30 -16.5l-45 90z" />
    <glyph glyph-name="uni043C" unicode="&#x43c;" horiz-adv-x="790" 
d="M161 60l70 -25v-35h-201v35l70 25l27 380l-69 25v35h189l151 -368l170 368h171v-35l-70 -25l21 -380l70 -25v-35h-222v35l70 25l-20 345l-197 -405h-30l-173 405z" />
    <glyph glyph-name="uni043D" unicode="&#x43d;" horiz-adv-x="607" 
d="M424 287v153l-70 25v35h223v-35l-70 -25v-380l70 -25v-35h-223v35l70 25v177h-240v-177l70 -25v-35h-224v35l70 25v380l-70 25v35h225v-35l-71 -25v-153h240z" />
    <glyph glyph-name="uni043E" unicode="&#x43e;" horiz-adv-x="580" 
d="M290 -10c-40.667 0 -76.334 7.83301 -107.001 23.5s-56.167 35.834 -76.5 60.501s-35.666 52.5 -45.999 83.5s-15.5 61.833 -15.5 92.5s5.16699 61.334 15.5 92.001s25.666 58.5 45.999 83.5s45.833 45.333 76.5 61s66.334 23.5 107.001 23.5
s76.334 -7.83301 107.001 -23.5s56.167 -36 76.5 -61s35.666 -52.833 45.999 -83.5s15.5 -61.334 15.5 -92.001s-5.16699 -61.5 -15.5 -92.5s-25.666 -58.833 -45.999 -83.5s-45.833 -44.834 -76.5 -60.501s-66.334 -23.5 -107.001 -23.5zM290 40c26 0 48.167 5.5 66.5 16.5
s33.333 26 45 45s20.167 41.167 25.5 66.5s8 52.666 8 81.999c0 28.667 -2.66699 55.834 -8 81.501s-13.833 48 -25.5 67s-26.667 34 -45 45s-40.5 16.5 -66.5 16.5s-48.167 -5.5 -66.5 -16.5s-33.333 -26 -45 -45s-20.167 -41.333 -25.5 -67s-8 -52.834 -8 -81.501
c0 -29.333 2.66699 -56.666 8 -81.999s13.833 -47.5 25.5 -66.5s26.667 -34 45 -45s40.5 -16.5 66.5 -16.5z" />
    <glyph glyph-name="uni043F" unicode="&#x43f;" horiz-adv-x="603" 
d="M573 500v-35l-70 -25v-380l70 -25v-35h-226v35l70 25v390h-230v-390l69 -25v-35h-226v35l70 25v380l-70 25v35h543z" />
    <glyph glyph-name="uni0440" unicode="&#x440;" horiz-adv-x="595" 
d="M189 88c12 -10.667 24.334 -19.168 37.001 -25.501s24.667 -11.166 36 -14.499s21.333 -5.5 30 -6.5s15 -1.5 19 -1.5c25.333 0 47.166 5.33301 65.499 16s33.5 25.5 45.5 44.5s20.833 41.167 26.5 66.5s8.5 52.666 8.5 81.999c0 28.667 -2.66699 55.334 -8 80.001
s-13.666 46 -24.999 64s-26.333 32 -45 42s-41.334 15 -68.001 15c-20 0 -41 -3.66699 -63 -11s-41.667 -15 -59 -23v-328zM190.001 455.999c22.667 14 46.167 26.502 70.5 37.502s47.833 16.5 70.5 16.5c42 0 77 -6.33301 105 -19s50.5 -29.5 67.5 -50.5s29 -45.333 36 -73
s10.5 -56.834 10.5 -87.501c0 -33.333 -3.66699 -67.166 -11 -101.499s-20.5 -65.5 -39.5 -93.5s-44.5 -50.833 -76.5 -68.5s-72.667 -26.5 -122 -26.5c-6.66699 0 -13.334 0.166992 -20.001 0.5s-14.167 1.16602 -22.5 2.49902s-18.166 3.16602 -29.499 5.49902
s-25 5.5 -41 9.5v-198l70 -25v-35h-228v35l70 25v625l-70 14v36l150 30z" />
    <glyph glyph-name="uni0441" unicode="&#x441;" horiz-adv-x="480" 
d="M375 445c-12.667 6.66699 -26.5029 10.833 -41.5029 12.5s-25.167 2.5 -30.5 2.5c-18 0 -36 -4.5 -54 -13.5s-34.167 -22 -48.5 -39s-26 -37.833 -35 -62.5s-13.5 -52.334 -13.5 -83.001c0 -34 5.16699 -64.167 15.5 -90.5s23.833 -48.5 40.5 -66.5
s35.334 -31.667 56.001 -41s41.334 -14 62.001 -14c24.667 0 48 3.5 70 10.5s37.667 12.833 47 17.5l17 -31c-28 -19.333 -56.167 -33.333 -84.5 -42s-55.833 -13 -82.5 -13c-38 0 -71.667 6.5 -101 19.5s-53.666 31 -72.999 54s-34 50.5 -44 82.5s-15 66.667 -15 104
c0 34.667 6.5 67.667 19.5 99s30.833 58.833 53.5 82.5s49.5 42.334 80.5 56.001s64.167 20.5 99.5 20.5c10.667 0 22.5 -1 35.5 -3s26.333 -4.5 40 -7.5s26.667 -6.66699 39 -11s22.833 -8.83301 31.5 -13.5v-115h-50z" />
    <glyph glyph-name="uni0442" unicode="&#x442;" horiz-adv-x="516" 
d="M302 60l88 -25v-35h-266v35l90 25v390h-106l-42 -87h-46l16 137h443l17 -137h-45l-43 87h-106v-390z" />
    <glyph glyph-name="uni0443" unicode="&#x443;" horiz-adv-x="562" 
d="M198 -270l-94 49l137 211v10l-181 440l-70 25v35h237v-35l-70 -25l114 -297v-49l6 1l131 345l-70 25v35h199v-35l-70 -25z" />
    <glyph glyph-name="uni0444" unicode="&#x444;" horiz-adv-x="706" 
d="M304 450c-23.333 0 -46.333 -2.83398 -69 -8.50098s-43 -15.5 -61 -29.5s-32.5 -32.833 -43.5 -56.5s-16.5 -53.167 -16.5 -88.5c0 -38 5 -70.833 15 -98.5s23.667 -50.167 41 -67.5s37.5 -30.166 60.5 -38.499s47.5 -12.5 73.5 -12.5v400zM388 -190.001l69.002 -25v-35
h-223v35l70 25l1 190c-38.667 0 -74.667 4.5 -108 13.5s-62.333 23.333 -87 43s-44.167 45.167 -58.5 76.5s-21.5 69.333 -21.5 114c0 34 5.66699 66.333 17 97s28.333 57.5 51 80.5s51 41.333 85 55s73.667 20.5 119 20.5v160l-68 15v35l154 30v-240
c38 0 73.667 -3.83301 107 -11.5s62.166 -20.5 86.499 -38.5s43.666 -42 57.999 -72s21.5 -67 21.5 -111c0 -40 -5.66699 -76.333 -17 -109s-28.333 -60.667 -51 -84s-51 -41.5 -85 -54.5s-73.667 -19.5 -119 -19.5zM387.002 49.999c23.333 0 46.332 3.5 68.999 10.5
s42.834 18.333 60.501 34s32 36 43 61s16.5 55.5 16.5 91.5c0 40.667 -5 74 -15 100s-23.5 46.667 -40.5 62s-36.833 26 -59.5 32s-46.667 9 -72 9z" />
    <glyph glyph-name="uni0445" unicode="&#x445;" horiz-adv-x="541" 
d="M547 35v-35h-240v35l70 25l-121 152l-109 -152l70 -24v-36h-207v36l70 24l143 193l-147 187l-70 25v35h231v-35l-60 -25l105 -140l100 140l-70 25v35h206v-35l-70 -25l-135 -179l164 -201z" />
    <glyph glyph-name="uni0446" unicode="&#x446;" horiz-adv-x="616" 
d="M597 50v-201h-41l-50 151h-476v35l70 25v380l-70 25v35h228v-35l-70 -25v-390h232v390l-70 25v35h226v-35l-70 -25v-390h91z" />
    <glyph glyph-name="uni0447" unicode="&#x447;" horiz-adv-x="588" 
d="M75 440l-69.998 25v35h213v-35l-60 -25v-97c0 -15.333 1.83301 -29.333 5.5 -42s10 -23.5 19 -32.5s21.167 -16 36.5 -21s34.666 -7.5 57.999 -7.5c2.66699 0 8.5 0.5 17.5 1.5s19.5 3.66699 31.5 8s24.5 10.833 37.5 19.5s24.833 21 35.5 37l1 134l-60 25v35h218v-35
l-70 -25v-380l70 -25v-35h-248v35l90 25l-1 186c-18.667 -16 -36.834 -28 -54.501 -36s-33.667 -13.5 -48 -16.5s-26.5 -4.33301 -36.5 -4s-16.667 0.5 -20 0.5c-52 0 -92.5 12.833 -121.5 38.5s-43.5 60.5 -43.5 104.5v107z" />
    <glyph glyph-name="uni0448" unicode="&#x448;" horiz-adv-x="914" 
d="M707 50l1 390l-80 25v35h256v-35l-90 -25v-380l90 -25v-35h-854v35l90 25v380l-90 25v35h256v-35l-79 -25l1 -390h204l1 390l-80 25v35h246v-35l-80 -25v-390h208z" />
    <glyph glyph-name="uni0449" unicode="&#x449;" horiz-adv-x="884" 
d="M30 0v35l70 25v380l-70 25v35h228v-35l-70 -25v-390h204v390l-70 25v35h226v-35l-70 -25v-390h210l1 390l-70 25v35h225v-35l-70 -25v-390h94v-200h-40l-54 150h-744z" />
    <glyph glyph-name="uni044A" unicode="&#x44a;" horiz-adv-x="611" 
d="M274 51l93 -1c36.667 -0.666992 64 9.83301 82 31.5s27 49.5 27 83.5c0 24 -9 44.167 -27 60.5s-45.333 24.5 -82 24.5h-93v-199zM113 0l0.000976562 35l70 35v380h-90l-37 -87h-51l16 137h321v-35l-70 -35l1 -130h94c38 0 70 -4.16699 96 -12.5s47 -19.333 63 -33
s27.5 -29.167 34.5 -46.5s10.5 -35 10.5 -53s-4 -36.167 -12 -54.5s-20.333 -35 -37 -50s-37.834 -27.167 -63.501 -36.5s-56.167 -14 -91.5 -14h-254z" />
    <glyph glyph-name="uni044B" unicode="&#x44b;" horiz-adv-x="761" 
d="M661 70l70 -35v-35h-229v35l70 35v360l-70 35v35h229v-35l-70 -35v-360zM190 50h93c36.667 0 64 10.5 82 31.5s27 48.5 27 82.5c0 24 -9 44.167 -27 60.5s-45.333 24.5 -82 24.5h-93v-199zM189 299h94.001c38 0 70 -4.16699 96 -12.5s47 -19.333 63 -33
s27.5 -29.167 34.5 -46.5s10.5 -35 10.5 -53s-4 -36 -12 -54s-20.333 -34.5 -37 -49.5s-37.834 -27.167 -63.501 -36.5s-56.167 -14 -91.5 -14h-253v35l70 35v360l-70 35v35h229v-35l-70 -35v-131z" />
    <glyph glyph-name="uni044C" unicode="&#x44c;" horiz-adv-x="522" 
d="M185 50h93c36.667 0 64.5 10.5 83.5 31.5s28.5 48.5 28.5 82.5c0 24 -9.5 44.167 -28.5 60.5s-46.833 24.5 -83.5 24.5h-93v-199zM184 299h94.001c38 0 70 -4.16699 96 -12.5s47 -19.333 63 -33s27.5 -29.167 34.5 -46.5s10.5 -35 10.5 -53s-4 -36 -12 -54
s-20.333 -34.5 -37 -49.5s-37.834 -27.167 -63.501 -36.5s-56.167 -14 -91.5 -14h-248v35l70 35v360l-70 35v35h224v-35l-70 -35v-131z" />
    <glyph glyph-name="uni044D" unicode="&#x44d;" horiz-adv-x="489" 
d="M95 360l-49.9971 -0.00292969v115c19.333 8 36.833 14.333 52.5 19s30.167 8.16699 43.5 10.5s25.666 3.83301 36.999 4.5s22.333 1 33 1c38 0 71.667 -7.5 101 -22.5s53.666 -34.667 72.999 -59s34 -52 44 -83s15 -62.833 15 -95.5
c0 -35.333 -6.5 -68.666 -19.5 -99.999s-30.5 -58.833 -52.5 -82.5s-47.833 -42.5 -77.5 -56.5s-60.834 -21 -93.501 -21c-37.333 0 -69.333 4.83301 -96 14.5s-46.667 19.834 -60 30.501v115l50 1l34 -86c19.333 -11.333 36.5 -18.333 51.5 -21s25.167 -4 30.5 -4
c17.333 0 34.333 4.33301 51 13s31.5 21.334 44.5 38.001s23.5 36.667 31.5 60s12.667 50 14 80h-198v48h196c-5.33301 56.667 -21 101 -47 133s-57.667 48 -95 48c-10 0 -21.833 -1 -35.5 -3s-28.167 -6 -43.5 -12z" />
    <glyph glyph-name="uni044E" unicode="&#x44e;" horiz-adv-x="795" 
d="M521 -10c-37.333 0 -69.835 7.16699 -97.502 21.5s-51 33 -70 56s-33.5 49.167 -43.5 78.5s-16 58.666 -18 87.999h-103v-174l70 -25v-35h-229v35l70 25v380l-70 25v35h229v-35l-70 -25v-156h104c2 28 8.16699 55.667 18.5 83s24.833 51.5 43.5 72.5s41.834 38 69.501 51
s59.834 19.5 96.501 19.5c40 0 74.333 -7.5 103 -22.5s52.334 -34.5 71.001 -58.5s32.5 -51 41.5 -81s13.5 -60.333 13.5 -91c0 -31.333 -4.5 -62.833 -13.5 -94.5s-22.833 -60.167 -41.5 -85.5s-42.334 -46.166 -71.001 -62.499s-63 -24.5 -103 -24.5zM520.998 40
c24 0 44.499 5.83301 61.499 17.5s30.667 27.334 41 47.001s17.833 42.667 22.5 69s7 54.166 7 83.499c0 28.667 -2.33301 55.5 -7 80.5s-12.167 46.5 -22.5 64.5s-24 32.167 -41 42.5s-37.5 15.5 -61.5 15.5s-44.5 -5.16699 -61.5 -15.5s-30.667 -24.5 -41 -42.5
s-18 -39.5 -23 -64.5s-7.5 -51.833 -7.5 -80.5c0 -29.333 2.33301 -57.166 7 -83.499s12.334 -49.333 23.001 -69s24.5 -35.334 41.5 -47.001s37.5 -17.5 61.5 -17.5z" />
    <glyph glyph-name="uni044F" unicode="&#x44f;" horiz-adv-x="531" 
d="M345 201h-90l-121 -201h-134v35l70 25l99 156c-40 12.667 -68.5 31 -85.5 55s-25.5 49 -25.5 75c0 18 3 36 9 54s17.333 34.5 34 49.5s39.5 27.167 68.5 36.5s66.167 14 111.5 14h220v-35l-70 -25v-380l70 -25v-35h-226v35l70 25v141zM344 450l-72.999 -0.000976562
c-42 0 -72.667 -8.83301 -92 -26.5s-29 -43.5 -29 -77.5c0 -19.333 4.33301 -35.166 13 -47.499s19.5 -22 32.5 -29s27.167 -11.833 42.5 -14.5s29.666 -4 42.999 -4h63v199z" />
    <glyph glyph-name="uni0451" unicode="&#x451;" horiz-adv-x="533" 
d="M116 308l280 0.00292969c0 48 -10.167 85.333 -30.5 112s-48.833 40 -85.5 40c-27.333 0 -49.833 -5.33301 -67.5 -16s-31.667 -24.5 -42 -41.5s-17.5 -36.333 -21.5 -58s-6 -43.167 -6 -64.5c0 -71.333 13 -127.5 39 -168.5s68.667 -61.5 128 -61.5
c30 0 58 4.16699 84 12.5s48.667 17.833 68 28.5l17 -31c-18.667 -14 -35.5 -25.5 -50.5 -34.5s-30 -16.167 -45 -21.5s-30.833 -9 -47.5 -11s-35.334 -3 -56.001 -3c-35.333 0 -67.166 6.16699 -95.499 18.5s-52.5 29.666 -72.5 51.999s-35.333 49 -46 80
s-16 65.167 -16 102.5c0 36 5.33301 70.167 16 102.5s26 60.666 46 84.999s44.167 43.666 72.5 57.999s60.166 21.5 95.499 21.5c65.333 0 116.333 -20.5 153 -61.5s54.334 -104.5 53.001 -190.5h-370v50zM249 680.003v-70l-20 -20h-70l-20 20v70l20 20h70zM433 680.003v-70
l-20 -20h-70l-20 20v70l20 20h70z" />
    <glyph glyph-name="uni0452" unicode="&#x452;" horiz-adv-x="600" 
d="M188 524l0.00195312 -173.996c36 19.333 67.5 34.166 94.5 44.499s49.833 15.5 68.5 15.5c30.667 0 56.5 -4.33301 77.5 -13s37.833 -20.834 50.5 -36.501s21.667 -33.834 27 -54.501s8 -43 8 -67c0 -82.667 -8.16699 -151.834 -24.5 -207.501
s-36.5 -101.334 -60.5 -137.001s-50.167 -63.5 -78.5 -83.5s-54.5 -36 -78.5 -48l-22 34c32.667 23.333 60.167 49 82.5 77s40.166 59 53.499 93s22.666 71.333 27.999 112s7.66602 85 6.99902 133c0 16.667 -1.83301 32.834 -5.5 48.501s-10 29.334 -19 41.001
s-21 21 -36 28s-34.167 10.5 -57.5 10.5c-16.667 0 -34.667 -2.33301 -54 -7s-39.666 -12.334 -60.999 -23.001v-250l60 -25v-35h-218v35l70 25v464h-66v56h66v70l-70 25v35l158 30v-160h174v-56h-174z" />
    </font>
</defs>
</svg>
